<?xml version="1.0" encoding="utf-8" standalone="no"?>
<!DOCTYPE svg PUBLIC "-//W3C//DTD SVG 1.1//EN"
  "http://www.w3.org/Graphics/SVG/1.1/DTD/svg11.dtd">
<svg xmlns:xlink="http://www.w3.org/1999/xlink" width="576pt" height="432pt" viewBox="0 0 576 432" xmlns="http://www.w3.org/2000/svg" version="1.1">
 <metadata>
  <rdf:RDF xmlns:dc="http://purl.org/dc/elements/1.1/" xmlns:cc="http://creativecommons.org/ns#" xmlns:rdf="http://www.w3.org/1999/02/22-rdf-syntax-ns#">
   <cc:Work>
    <dc:type rdf:resource="http://purl.org/dc/dcmitype/StillImage"/>
    <dc:date>2026-01-30T11:50:10.757390</dc:date>
    <dc:format>image/svg+xml</dc:format>
    <dc:creator>
     <cc:Agent>
      <dc:title>Matplotlib v3.10.8, https://matplotlib.org/</dc:title>
     </cc:Agent>
    </dc:creator>
   </cc:Work>
  </rdf:RDF>
 </metadata>
 <defs>
  <style type="text/css">*{stroke-linejoin: round; stroke-linecap: butt}</style>
 </defs>
 <g id="figure_1">
  <g id="patch_1">
   <path d="M 0 432 
L 576 432 
L 576 0 
L 0 0 
z
" style="fill: #ffffff"/>
  </g>
  <g id="axes_1">
   <g id="patch_2">
    <path d="M 61.265 154.151794 
L 565.2 154.151794 
L 565.2 50.04375 
L 61.265 50.04375 
z
" style="fill: #ffffff"/>
   </g>
   <g id="matplotlib.axis_1">
    <g id="xtick_1">
     <g id="line2d_1">
      <path d="M 84.171136 154.151794 
L 84.171136 50.04375 
" clip-path="url(#p996579728b)" style="fill: none; stroke: #b0b0b0; stroke-opacity: 0.3; stroke-width: 0.8; stroke-linecap: square"/>
     </g>
     <g id="line2d_2">
      <defs>
       <path id="m4904a94d79" d="M 0 0 
L 0 3.5 
" style="stroke: #000000; stroke-width: 0.8"/>
      </defs>
      <g>
       <use xlink:href="#m4904a94d79" x="84.171136" y="154.151794" style="stroke: #000000; stroke-width: 0.8"/>
      </g>
     </g>
    </g>
    <g id="xtick_2">
     <g id="line2d_3">
      <path d="M 175.795682 154.151794 
L 175.795682 50.04375 
" clip-path="url(#p996579728b)" style="fill: none; stroke: #b0b0b0; stroke-opacity: 0.3; stroke-width: 0.8; stroke-linecap: square"/>
     </g>
     <g id="line2d_4">
      <g>
       <use xlink:href="#m4904a94d79" x="175.795682" y="154.151794" style="stroke: #000000; stroke-width: 0.8"/>
      </g>
     </g>
    </g>
    <g id="xtick_3">
     <g id="line2d_5">
      <path d="M 267.420227 154.151794 
L 267.420227 50.04375 
" clip-path="url(#p996579728b)" style="fill: none; stroke: #b0b0b0; stroke-opacity: 0.3; stroke-width: 0.8; stroke-linecap: square"/>
     </g>
     <g id="line2d_6">
      <g>
       <use xlink:href="#m4904a94d79" x="267.420227" y="154.151794" style="stroke: #000000; stroke-width: 0.8"/>
      </g>
     </g>
    </g>
    <g id="xtick_4">
     <g id="line2d_7">
      <path d="M 359.044773 154.151794 
L 359.044773 50.04375 
" clip-path="url(#p996579728b)" style="fill: none; stroke: #b0b0b0; stroke-opacity: 0.3; stroke-width: 0.8; stroke-linecap: square"/>
     </g>
     <g id="line2d_8">
      <g>
       <use xlink:href="#m4904a94d79" x="359.044773" y="154.151794" style="stroke: #000000; stroke-width: 0.8"/>
      </g>
     </g>
    </g>
    <g id="xtick_5">
     <g id="line2d_9">
      <path d="M 450.669318 154.151794 
L 450.669318 50.04375 
" clip-path="url(#p996579728b)" style="fill: none; stroke: #b0b0b0; stroke-opacity: 0.3; stroke-width: 0.8; stroke-linecap: square"/>
     </g>
     <g id="line2d_10">
      <g>
       <use xlink:href="#m4904a94d79" x="450.669318" y="154.151794" style="stroke: #000000; stroke-width: 0.8"/>
      </g>
     </g>
    </g>
    <g id="xtick_6">
     <g id="line2d_11">
      <path d="M 542.293864 154.151794 
L 542.293864 50.04375 
" clip-path="url(#p996579728b)" style="fill: none; stroke: #b0b0b0; stroke-opacity: 0.3; stroke-width: 0.8; stroke-linecap: square"/>
     </g>
     <g id="line2d_12">
      <g>
       <use xlink:href="#m4904a94d79" x="542.293864" y="154.151794" style="stroke: #000000; stroke-width: 0.8"/>
      </g>
     </g>
    </g>
   </g>
   <g id="matplotlib.axis_2">
    <g id="ytick_1">
     <g id="line2d_13">
      <path d="M 61.265 129.494625 
L 565.2 129.494625 
" clip-path="url(#p996579728b)" style="fill: none; stroke: #b0b0b0; stroke-opacity: 0.3; stroke-width: 0.8; stroke-linecap: square"/>
     </g>
     <g id="line2d_14">
      <defs>
       <path id="m9cab8b34db" d="M 0 0 
L -3.5 0 
" style="stroke: #000000; stroke-width: 0.8"/>
      </defs>
      <g>
       <use xlink:href="#m9cab8b34db" x="61.265" y="129.494625" style="stroke: #000000; stroke-width: 0.8"/>
      </g>
     </g>
     <g id="text_1">
      <!-- 0.5 -->
      <g transform="translate(39.265 132.932125) scale(0.1 -0.1)">
       <defs>
        <path id="SimHei-30" d="M 225 2537 
Q 250 3200 412 3587 
Q 575 3975 875 4225 
Q 1175 4475 1612 4475 
Q 2050 4475 2375 4112 
Q 2700 3750 2800 3200 
Q 2900 2650 2862 1937 
Q 2825 1225 2612 775 
Q 2400 325 1975 150 
Q 1550 -25 1125 187 
Q 700 400 525 750 
Q 350 1100 275 1487 
Q 200 1875 225 2537 
z
M 750 2687 
Q 675 2000 800 1462 
Q 925 925 1212 700 
Q 1500 475 1800 612 
Q 2100 750 2237 1162 
Q 2375 1575 2375 2062 
Q 2375 2550 2337 2950 
Q 2300 3350 2112 3675 
Q 1925 4000 1612 4012 
Q 1300 4025 1062 3700 
Q 825 3375 750 2687 
z
" transform="scale(0.015625)"/>
        <path id="SimHei-2e" d="M 1075 125 
L 500 125 
L 500 675 
L 1075 675 
L 1075 125 
z
" transform="scale(0.015625)"/>
        <path id="SimHei-35" d="M 550 1325 
Q 725 650 1150 575 
Q 1575 500 1837 662 
Q 2100 825 2212 1087 
Q 2325 1350 2312 1675 
Q 2300 2000 2137 2225 
Q 1975 2450 1725 2525 
Q 1475 2600 1162 2525 
Q 850 2450 650 2175 
L 225 2225 
Q 275 2375 700 4375 
L 2675 4375 
L 2675 3925 
L 1075 3925 
Q 950 3250 825 2850 
Q 1200 3025 1525 3012 
Q 1850 3000 2150 2862 
Q 2450 2725 2587 2487 
Q 2725 2250 2787 2012 
Q 2850 1775 2837 1500 
Q 2825 1225 2725 937 
Q 2625 650 2425 462 
Q 2225 275 1937 162 
Q 1650 50 1275 75 
Q 900 100 562 350 
Q 225 600 100 1200 
L 550 1325 
z
" transform="scale(0.015625)"/>
       </defs>
       <use xlink:href="#SimHei-30"/>
       <use xlink:href="#SimHei-2e" transform="translate(50 0)"/>
       <use xlink:href="#SimHei-35" transform="translate(100 0)"/>
      </g>
     </g>
    </g>
    <g id="ytick_2">
     <g id="line2d_15">
      <path d="M 61.265 104.588395 
L 565.2 104.588395 
" clip-path="url(#p996579728b)" style="fill: none; stroke: #b0b0b0; stroke-opacity: 0.3; stroke-width: 0.8; stroke-linecap: square"/>
     </g>
     <g id="line2d_16">
      <g>
       <use xlink:href="#m9cab8b34db" x="61.265" y="104.588395" style="stroke: #000000; stroke-width: 0.8"/>
      </g>
     </g>
     <g id="text_2">
      <!-- 1.0 -->
      <g transform="translate(39.265 108.025895) scale(0.1 -0.1)">
       <defs>
        <path id="SimHei-31" d="M 1400 3600 
Q 1075 3275 575 2975 
L 575 3450 
Q 1200 3875 1600 4450 
L 1900 4450 
L 1900 150 
L 1400 150 
L 1400 3600 
z
" transform="scale(0.015625)"/>
       </defs>
       <use xlink:href="#SimHei-31"/>
       <use xlink:href="#SimHei-2e" transform="translate(50 0)"/>
       <use xlink:href="#SimHei-30" transform="translate(100 0)"/>
      </g>
     </g>
    </g>
    <g id="ytick_3">
     <g id="line2d_17">
      <path d="M 61.265 79.682164 
L 565.2 79.682164 
" clip-path="url(#p996579728b)" style="fill: none; stroke: #b0b0b0; stroke-opacity: 0.3; stroke-width: 0.8; stroke-linecap: square"/>
     </g>
     <g id="line2d_18">
      <g>
       <use xlink:href="#m9cab8b34db" x="61.265" y="79.682164" style="stroke: #000000; stroke-width: 0.8"/>
      </g>
     </g>
     <g id="text_3">
      <!-- 1.5 -->
      <g transform="translate(39.265 83.119664) scale(0.1 -0.1)">
       <use xlink:href="#SimHei-31"/>
       <use xlink:href="#SimHei-2e" transform="translate(50 0)"/>
       <use xlink:href="#SimHei-35" transform="translate(100 0)"/>
      </g>
     </g>
    </g>
    <g id="ytick_4">
     <g id="line2d_19">
      <path d="M 61.265 54.775934 
L 565.2 54.775934 
" clip-path="url(#p996579728b)" style="fill: none; stroke: #b0b0b0; stroke-opacity: 0.3; stroke-width: 0.8; stroke-linecap: square"/>
     </g>
     <g id="line2d_20">
      <g>
       <use xlink:href="#m9cab8b34db" x="61.265" y="54.775934" style="stroke: #000000; stroke-width: 0.8"/>
      </g>
     </g>
     <g id="text_4">
      <!-- 2.0 -->
      <g transform="translate(39.265 58.213434) scale(0.1 -0.1)">
       <defs>
        <path id="SimHei-32" d="M 300 250 
Q 325 625 650 925 
Q 975 1225 1475 1862 
Q 1975 2500 2125 2850 
Q 2275 3200 2237 3450 
Q 2200 3700 2000 3862 
Q 1800 4025 1537 4000 
Q 1275 3975 1037 3800 
Q 800 3625 675 3275 
L 200 3350 
Q 400 3925 712 4187 
Q 1025 4450 1450 4475 
Q 1700 4500 1900 4462 
Q 2100 4425 2312 4287 
Q 2525 4150 2662 3875 
Q 2800 3600 2762 3212 
Q 2725 2825 2375 2287 
Q 2025 1750 1025 600 
L 2825 600 
L 2825 150 
L 300 150 
L 300 250 
z
" transform="scale(0.015625)"/>
       </defs>
       <use xlink:href="#SimHei-32"/>
       <use xlink:href="#SimHei-2e" transform="translate(50 0)"/>
       <use xlink:href="#SimHei-30" transform="translate(100 0)"/>
      </g>
     </g>
    </g>
    <g id="text_5">
     <!-- Current [A] -->
     <g transform="translate(34.015 129.597772) rotate(-90) scale(0.1 -0.1)">
      <defs>
       <path id="SimHei-43" d="M 2975 1825 
Q 2950 875 2575 475 
Q 2200 75 1675 75 
Q 1075 75 650 562 
Q 225 1050 225 2125 
Q 225 3300 637 3875 
Q 1050 4450 1700 4450 
Q 2250 4450 2612 4037 
Q 2975 3625 2950 2875 
L 2400 2875 
Q 2400 3425 2225 3700 
Q 2050 3975 1700 3975 
Q 1300 3975 1062 3562 
Q 825 3150 825 2175 
Q 825 1275 1062 912 
Q 1300 550 1675 550 
Q 1950 550 2175 812 
Q 2400 1075 2400 1825 
L 2975 1825 
z
" transform="scale(0.015625)"/>
       <path id="SimHei-75" d="M 2800 125 
L 2300 125 
L 2300 650 
Q 2100 375 1862 225 
Q 1625 75 1250 75 
Q 800 75 575 325 
Q 350 575 350 950 
L 350 2925 
L 850 2925 
L 850 1125 
Q 850 825 1000 650 
Q 1150 475 1400 475 
Q 1725 475 2012 812 
Q 2300 1150 2300 1650 
L 2300 2925 
L 2800 2925 
L 2800 125 
z
" transform="scale(0.015625)"/>
       <path id="SimHei-72" d="M 2500 2425 
Q 2025 2500 1700 2287 
Q 1375 2075 1150 1550 
L 1150 125 
L 650 125 
L 650 2925 
L 1150 2925 
L 1150 2200 
Q 1375 2600 1712 2787 
Q 2050 2975 2500 2975 
L 2500 2425 
z
" transform="scale(0.015625)"/>
       <path id="SimHei-65" d="M 2850 1075 
Q 2800 625 2450 350 
Q 2100 75 1625 75 
Q 1025 75 637 462 
Q 250 850 250 1525 
Q 250 2200 637 2587 
Q 1025 2975 1625 2975 
Q 2150 2975 2487 2637 
Q 2825 2300 2825 1525 
L 800 1525 
Q 800 975 1037 750 
Q 1275 525 1625 525 
Q 1900 525 2075 662 
Q 2250 800 2300 1075 
L 2850 1075 
z
M 2250 1925 
Q 2200 2275 2025 2412 
Q 1850 2550 1575 2550 
Q 1325 2550 1125 2412 
Q 925 2275 825 1925 
L 2250 1925 
z
" transform="scale(0.015625)"/>
       <path id="SimHei-6e" d="M 2800 125 
L 2300 125 
L 2300 1925 
Q 2300 2225 2150 2400 
Q 2000 2575 1750 2575 
Q 1425 2575 1137 2237 
Q 850 1900 850 1400 
L 850 125 
L 350 125 
L 350 2925 
L 850 2925 
L 850 2400 
Q 1050 2675 1287 2825 
Q 1525 2975 1900 2975 
Q 2350 2975 2575 2725 
Q 2800 2475 2800 2100 
L 2800 125 
z
" transform="scale(0.015625)"/>
       <path id="SimHei-74" d="M 2750 200 
Q 2625 150 2462 112 
Q 2300 75 2025 75 
Q 1575 75 1300 325 
Q 1025 575 1025 1025 
L 1025 2525 
L 175 2525 
L 175 2925 
L 1025 2925 
L 1025 3900 
L 1525 3900 
L 1525 2925 
L 2550 2925 
L 2550 2525 
L 1525 2525 
L 1525 1000 
Q 1525 800 1625 662 
Q 1725 525 2000 525 
Q 2275 525 2450 575 
Q 2625 625 2750 700 
L 2750 200 
z
" transform="scale(0.015625)"/>
       <path id="SimHei-20" transform="scale(0.015625)"/>
       <path id="SimHei-5b" d="M 2825 -525 
L 1250 -525 
L 1250 5050 
L 2825 5050 
L 2825 4650 
L 1675 4650 
L 1675 -125 
L 2825 -125 
L 2825 -525 
z
" transform="scale(0.015625)"/>
       <path id="SimHei-41" d="M 3075 125 
L 2475 125 
L 2125 1450 
L 1025 1450 
L 675 125 
L 75 125 
L 1325 4450 
L 1825 4450 
L 3075 125 
z
M 2000 1925 
L 1600 3450 
L 1550 3450 
L 1150 1925 
L 2000 1925 
z
" transform="scale(0.015625)"/>
       <path id="SimHei-5d" d="M 1875 -525 
L 300 -525 
L 300 -125 
L 1450 -125 
L 1450 4650 
L 300 4650 
L 300 5050 
L 1875 5050 
L 1875 -525 
z
" transform="scale(0.015625)"/>
      </defs>
      <use xlink:href="#SimHei-43"/>
      <use xlink:href="#SimHei-75" transform="translate(50 0)"/>
      <use xlink:href="#SimHei-72" transform="translate(100 0)"/>
      <use xlink:href="#SimHei-72" transform="translate(150 0)"/>
      <use xlink:href="#SimHei-65" transform="translate(200 0)"/>
      <use xlink:href="#SimHei-6e" transform="translate(250 0)"/>
      <use xlink:href="#SimHei-74" transform="translate(300 0)"/>
      <use xlink:href="#SimHei-20" transform="translate(350 0)"/>
      <use xlink:href="#SimHei-5b" transform="translate(400 0)"/>
      <use xlink:href="#SimHei-41" transform="translate(450 0)"/>
      <use xlink:href="#SimHei-5d" transform="translate(500 0)"/>
     </g>
    </g>
   </g>
   <g id="line2d_21">
    <path d="M 84.171136 149.41961 
L 175.795682 149.41961 
L 175.795682 54.775934 
L 313.2325 54.775934 
L 313.2325 149.41961 
L 542.293864 149.41961 
L 542.293864 149.41961 
" clip-path="url(#p996579728b)" style="fill: none; stroke: #ffa500; stroke-width: 1.5; stroke-linecap: square"/>
   </g>
   <g id="patch_3">
    <path d="M 61.265 154.151794 
L 61.265 50.04375 
" style="fill: none; stroke: #000000; stroke-width: 0.8; stroke-linejoin: miter; stroke-linecap: square"/>
   </g>
   <g id="patch_4">
    <path d="M 565.2 154.151794 
L 565.2 50.04375 
" style="fill: none; stroke: #000000; stroke-width: 0.8; stroke-linejoin: miter; stroke-linecap: square"/>
   </g>
   <g id="patch_5">
    <path d="M 61.265 154.151794 
L 565.2 154.151794 
" style="fill: none; stroke: #000000; stroke-width: 0.8; stroke-linejoin: miter; stroke-linecap: square"/>
   </g>
   <g id="patch_6">
    <path d="M 61.265 50.04375 
L 565.2 50.04375 
" style="fill: none; stroke: #000000; stroke-width: 0.8; stroke-linejoin: miter; stroke-linecap: square"/>
   </g>
   <g id="text_6">
    <!-- 阶跃电流：待机 → 玩游戏 → 待机 -->
    <g transform="translate(217.2325 44.04375) scale(0.12 -0.12)">
     <defs>
      <path id="SimHei-9636" d="M 2450 4850 
Q 2350 4575 2175 3962 
Q 2000 3350 1825 2800 
Q 2225 2225 2312 1912 
Q 2400 1600 2375 1250 
Q 2350 900 2137 725 
Q 1925 550 1400 475 
Q 1300 925 1200 1075 
Q 1725 1025 1837 1225 
Q 1950 1425 1875 1775 
Q 1800 2125 1350 2725 
Q 1700 3825 1825 4400 
L 975 4400 
L 975 -500 
L 500 -500 
Q 525 175 525 675 
L 525 3650 
Q 525 4225 500 4850 
L 2450 4850 
z
M 4250 4825 
Q 4600 4100 5187 3637 
Q 5775 3175 6200 3025 
Q 5950 2775 5800 2500 
Q 4975 3075 4600 3512 
Q 4225 3950 4025 4400 
Q 3850 4025 3512 3487 
Q 3175 2950 2625 2350 
Q 2425 2575 2175 2700 
Q 2700 3075 3150 3787 
Q 3600 4500 3850 5275 
Q 4050 5150 4375 5075 
Q 4275 4900 4250 4825 
z
M 3750 2700 
Q 3650 2325 3575 1512 
Q 3500 700 3250 225 
Q 3000 -250 2650 -575 
Q 2425 -400 2175 -300 
Q 2550 -25 2762 337 
Q 2975 700 3087 1200 
Q 3200 1700 3200 2800 
Q 3350 2725 3750 2700 
z
M 5025 2775 
Q 4975 2425 4975 2025 
L 4975 350 
Q 4975 100 5000 -525 
L 4475 -525 
Q 4500 150 4500 375 
L 4500 2025 
Q 4500 2375 4475 2775 
L 5025 2775 
z
" transform="scale(0.015625)"/>
      <path id="SimHei-8dc3" d="M 625 1950 
Q 625 2225 600 2525 
L 1100 2525 
Q 1075 2225 1075 1950 
L 1075 525 
L 1525 600 
L 1525 3050 
L 725 3050 
Q 750 3525 750 4025 
Q 750 4550 725 5025 
L 2675 5025 
Q 2650 4550 2650 4025 
Q 2650 3525 2675 3050 
L 1975 3050 
L 1975 2225 
Q 2300 2225 2675 2250 
L 2675 1825 
Q 2300 1850 1975 1850 
L 1975 700 
L 2775 900 
L 2775 475 
Q 1325 125 1025 37 
Q 725 -50 425 -175 
Q 325 125 225 375 
Q 425 400 625 450 
L 625 1950 
z
M 2175 -300 
Q 2600 -75 2912 225 
Q 3225 525 3437 887 
Q 3650 1250 3775 1662 
Q 3900 2075 3950 2500 
Q 3050 2500 2725 2475 
L 2725 2900 
Q 3225 2875 4000 2875 
L 4000 4350 
Q 3625 4300 3025 4175 
Q 3000 4425 2850 4625 
Q 3425 4650 4212 4800 
Q 5000 4950 5250 5125 
Q 5375 4925 5625 4675 
Q 5350 4600 4450 4450 
L 4450 2875 
Q 5525 2875 5900 2900 
L 5900 2475 
Q 5500 2500 4525 2500 
Q 4550 2075 4862 1387 
Q 5175 700 5525 350 
Q 5875 0 6175 -175 
Q 5900 -275 5725 -550 
Q 5225 -125 4950 275 
Q 4675 675 4525 1000 
Q 4375 1325 4275 1725 
Q 4100 1050 3787 550 
Q 3475 50 2650 -625 
Q 2425 -450 2175 -300 
z
M 2225 3450 
L 2225 4625 
L 1175 4625 
L 1175 3450 
L 2225 3450 
z
" transform="scale(0.015625)"/>
      <path id="SimHei-7535" d="M 6150 325 
Q 5975 -250 5825 -412 
Q 5675 -575 5325 -575 
L 3375 -575 
Q 2700 -600 2675 100 
L 2675 975 
L 1225 975 
L 1225 500 
L 650 500 
Q 675 750 675 2225 
Q 675 3700 650 4150 
L 2675 4150 
Q 2675 4825 2650 5200 
L 3200 5200 
Q 3175 4875 3175 4150 
L 5200 4150 
Q 5175 3775 5175 2600 
Q 5175 1450 5200 975 
L 3175 975 
L 3175 300 
Q 3175 -150 3650 -150 
L 4975 -150 
Q 5375 -150 5450 25 
Q 5525 200 5575 575 
Q 5825 400 6150 325 
z
M 4675 1400 
L 4675 2400 
L 3175 2400 
L 3175 1400 
L 4675 1400 
z
M 2675 1400 
L 2675 2400 
L 1225 2400 
L 1225 1400 
L 2675 1400 
z
M 4675 2800 
L 4675 3725 
L 3175 3725 
L 3175 2800 
L 4675 2800 
z
M 2675 2800 
L 2675 3725 
L 1225 3725 
L 1225 2800 
L 2675 2800 
z
" transform="scale(0.015625)"/>
      <path id="SimHei-6d41" d="M 3725 5250 
Q 3975 4875 4225 4450 
L 5025 4450 
Q 5425 4450 5925 4475 
L 5925 4025 
Q 5325 4050 5025 4050 
L 3425 4050 
Q 3625 3900 3775 3825 
Q 3650 3725 3450 3475 
Q 3250 3225 2850 2775 
Q 3750 2800 4775 2850 
Q 4525 3150 4275 3375 
Q 4525 3550 4625 3675 
Q 5325 2950 5800 2375 
Q 5575 2200 5400 2050 
Q 5200 2325 5050 2525 
Q 4500 2475 3562 2412 
Q 2625 2350 2300 2250 
Q 2225 2475 2075 2675 
Q 2325 2750 2675 3175 
Q 3025 3600 3250 4050 
L 2975 4050 
Q 2525 4050 2050 4000 
L 2050 4475 
Q 2525 4450 2975 4450 
L 3675 4450 
Q 3475 4800 3325 5000 
Q 3575 5125 3725 5250 
z
M 5025 2025 
Q 5000 1700 5000 1375 
L 5000 150 
Q 5000 -75 5225 -75 
L 5475 -75 
Q 5675 -75 5700 500 
Q 5900 350 6200 275 
Q 6050 -350 5887 -425 
Q 5725 -500 5500 -500 
L 5025 -500 
Q 4550 -500 4550 -25 
L 4550 1425 
Q 4550 1725 4525 2025 
L 5025 2025 
z
M 3125 1975 
Q 3075 1725 3037 1212 
Q 3000 700 2812 225 
Q 2625 -250 1950 -700 
Q 1775 -475 1575 -325 
Q 2075 -100 2312 287 
Q 2550 675 2575 1162 
Q 2600 1650 2575 2025 
Q 2825 1975 3125 1975 
z
M 4000 2025 
Q 3975 1875 3975 1400 
L 3975 300 
Q 3975 -25 4000 -500 
L 3475 -500 
Q 3500 -50 3500 300 
L 3500 1400 
Q 3500 1825 3475 2025 
L 4000 2025 
z
M 1900 1625 
Q 1650 1200 1350 562 
Q 1050 -75 850 -425 
Q 625 -250 325 -125 
Q 575 175 900 750 
Q 1225 1325 1450 1950 
Q 1650 1775 1900 1625 
z
M 625 3450 
Q 1200 3100 1725 2725 
Q 1525 2525 1375 2275 
Q 925 2700 325 3000 
Q 475 3200 625 3450 
z
M 925 4975 
Q 1500 4625 1900 4300 
Q 1725 4075 1550 3875 
Q 1150 4275 625 4575 
Q 800 4800 925 4975 
z
" transform="scale(0.015625)"/>
      <path id="SimHei-ff1a" d="M 1200 2425 
L 2025 2425 
L 2025 1600 
L 1200 1600 
L 1200 2425 
z
M 1200 825 
L 2025 825 
L 2025 0 
L 1200 0 
L 1200 825 
z
" transform="scale(0.015625)"/>
      <path id="SimHei-5f85" d="M 3725 3050 
L 3725 3875 
Q 3100 3875 2500 3850 
L 2500 4300 
Q 3025 4275 3725 4275 
Q 3725 4925 3700 5225 
L 4225 5225 
Q 4200 4900 4200 4275 
L 4750 4275 
Q 5250 4300 5525 4325 
L 5525 3850 
Q 5275 3875 4750 3875 
L 4200 3875 
L 4200 3050 
L 5300 3050 
Q 5800 3050 6075 3075 
L 6075 2625 
Q 5550 2650 5100 2650 
L 5100 1950 
Q 5625 1950 6000 1975 
L 6000 1500 
Q 5625 1525 5100 1525 
L 5100 225 
Q 5100 -225 4887 -325 
Q 4675 -425 4100 -550 
Q 4050 -250 3875 50 
Q 4300 25 4462 75 
Q 4625 125 4625 400 
L 4625 1525 
L 3100 1525 
Q 2725 1525 2200 1500 
L 2200 1975 
Q 2725 1950 3100 1950 
L 4625 1950 
L 4625 2650 
L 3275 2650 
Q 2775 2650 2250 2600 
L 2250 3075 
Q 2775 3050 3275 3050 
L 3725 3050 
z
M 2350 3425 
Q 2000 3075 1725 2625 
L 1725 450 
Q 1725 0 1750 -600 
L 1225 -600 
Q 1250 0 1250 425 
L 1250 2075 
Q 950 1750 600 1325 
Q 425 1525 250 1700 
Q 700 2050 1187 2687 
Q 1675 3325 1900 3800 
Q 2075 3625 2350 3425 
z
M 2250 4900 
Q 2050 4750 1700 4300 
Q 1350 3850 725 3225 
Q 600 3400 375 3575 
Q 1425 4550 1750 5225 
Q 1975 5050 2250 4900 
z
M 3125 1375 
Q 3500 875 3750 525 
Q 3525 400 3275 200 
Q 3000 700 2675 1050 
Q 2925 1200 3125 1375 
z
" transform="scale(0.015625)"/>
      <path id="SimHei-673a" d="M 5100 4775 
Q 5075 4075 5075 3575 
L 5075 325 
Q 5075 0 5225 -25 
Q 5375 -50 5475 -37 
Q 5575 -25 5612 137 
Q 5650 300 5650 625 
Q 5875 500 6175 425 
Q 6075 -100 5975 -275 
Q 5875 -450 5650 -450 
L 5125 -450 
Q 4825 -450 4687 -312 
Q 4550 -175 4575 250 
L 4575 4350 
L 3625 4350 
Q 3625 2925 3587 2137 
Q 3550 1350 3362 712 
Q 3175 75 2625 -575 
Q 2500 -425 2175 -175 
Q 2525 100 2737 500 
Q 2950 900 3025 1325 
Q 3100 1750 3125 2225 
Q 3150 2700 3150 3425 
Q 3150 4175 3125 4775 
L 5100 4775 
z
M 2150 2725 
Q 2550 2175 2750 1875 
Q 2575 1725 2325 1550 
Q 2175 1875 1800 2425 
L 1800 600 
Q 1800 100 1825 -525 
L 1275 -525 
Q 1300 100 1300 600 
L 1300 2200 
Q 1175 1825 1025 1487 
Q 875 1150 600 725 
Q 375 975 200 1125 
Q 400 1350 725 2000 
Q 1050 2650 1225 3450 
L 1075 3450 
Q 725 3450 375 3400 
L 375 3875 
Q 725 3850 1050 3850 
L 1300 3850 
L 1300 4350 
Q 1300 4750 1275 5100 
L 1850 5100 
Q 1800 4850 1800 4350 
L 1800 3850 
L 2075 3850 
Q 2350 3850 2700 3875 
L 2700 3425 
Q 2150 3450 1800 3450 
L 1800 2450 
Q 1950 2575 2150 2725 
z
" transform="scale(0.015625)"/>
      <path id="SimHei-2192" d="M 3900 4275 
L 5475 2300 
L 3900 400 
L 3900 1900 
L 400 1900 
L 400 2725 
L 3900 2725 
L 3900 4275 
z
" transform="scale(0.015625)"/>
      <path id="SimHei-73a9" d="M 5100 3250 
Q 5550 3250 6025 3275 
L 6025 2825 
Q 5575 2850 5075 2850 
L 4800 2850 
L 4800 225 
Q 4800 0 4975 -12 
Q 5150 -25 5325 -25 
Q 5525 -25 5575 162 
Q 5625 350 5650 750 
Q 5875 600 6200 525 
Q 6075 -25 5950 -250 
Q 5825 -475 5450 -475 
L 4900 -475 
Q 4325 -475 4325 100 
L 4325 2850 
L 3675 2850 
Q 3700 1375 3362 625 
Q 3025 -125 2350 -700 
Q 2100 -400 1825 -325 
Q 2600 175 2925 887 
Q 3250 1600 3200 2850 
Q 2825 2850 2400 2825 
L 2400 3275 
Q 2850 3250 3250 3250 
L 5100 3250 
z
M 1750 4750 
Q 2025 4750 2350 4775 
L 2350 4300 
Q 2000 4325 1550 4325 
L 1550 2900 
Q 1875 2900 2225 2925 
L 2225 2450 
Q 1875 2475 1550 2475 
L 1550 1000 
Q 1975 1150 2300 1275 
Q 2275 1025 2275 775 
Q 1700 600 1250 437 
Q 800 275 450 75 
Q 350 375 200 650 
Q 650 700 1100 850 
L 1100 2475 
Q 750 2475 425 2450 
L 425 2925 
Q 750 2900 1100 2900 
L 1100 4325 
Q 700 4325 350 4300 
L 350 4775 
Q 750 4750 975 4750 
L 1750 4750 
z
M 4675 4875 
Q 5200 4875 5575 4900 
L 5575 4450 
Q 5200 4475 4700 4475 
L 3650 4475 
Q 3275 4475 2825 4450 
L 2825 4900 
Q 3250 4875 3600 4875 
L 4675 4875 
z
" transform="scale(0.015625)"/>
      <path id="SimHei-6e38" d="M 3475 3125 
Q 3650 3300 3787 3550 
Q 3925 3800 4025 4062 
Q 4125 4325 4212 4625 
Q 4300 4925 4350 5225 
Q 4625 5100 4950 5050 
Q 4825 4875 4750 4700 
Q 4675 4525 4625 4325 
L 5075 4325 
Q 5575 4325 6150 4350 
L 6150 3925 
Q 5575 3950 5050 3950 
L 4500 3950 
Q 4400 3750 4325 3587 
Q 4250 3425 4150 3225 
L 5925 3225 
L 5925 2750 
Q 5800 2625 5637 2475 
Q 5475 2325 5275 2075 
L 5275 1775 
L 5550 1775 
Q 5725 1775 6175 1800 
L 6175 1375 
Q 5775 1400 5550 1400 
L 5275 1400 
L 5275 0 
Q 5275 -375 5050 -487 
Q 4825 -600 4300 -675 
Q 4275 -450 4100 -125 
Q 4500 -150 4650 -125 
Q 4800 -100 4800 200 
L 4800 1400 
L 4575 1400 
Q 4275 1400 3850 1375 
L 3850 1800 
Q 4250 1775 4550 1775 
L 4800 1775 
Q 4800 2000 4775 2200 
Q 5075 2450 5375 2850 
L 4650 2850 
L 4150 2825 
L 4150 3200 
Q 4000 3000 3900 2800 
Q 3725 2975 3475 3125 
z
M 2425 0 
Q 2900 -25 2975 25 
Q 3050 75 3050 225 
L 3050 2450 
L 2500 2450 
Q 2500 2000 2450 1562 
Q 2400 1125 2312 750 
Q 2225 375 2062 50 
Q 1900 -275 1625 -625 
Q 1475 -400 1200 -275 
Q 1575 50 1762 537 
Q 1950 1025 2000 1525 
Q 2050 2025 2062 2575 
Q 2075 3125 2075 3700 
Q 1900 3700 1575 3675 
L 1575 4075 
Q 2100 4050 2250 4050 
L 3125 4050 
Q 3350 4050 3675 4075 
L 3675 3675 
Q 3375 3700 3100 3700 
L 2525 3700 
L 2525 2850 
L 3525 2850 
Q 3500 2450 3500 2100 
L 3500 125 
Q 3500 -125 3337 -262 
Q 3175 -400 2625 -500 
Q 2600 -275 2425 0 
z
M 1475 1600 
Q 1275 1050 1187 775 
Q 1100 500 987 137 
Q 875 -225 800 -625 
Q 475 -425 225 -350 
Q 525 175 650 575 
Q 775 975 850 1250 
Q 925 1525 1000 1850 
Q 1250 1700 1475 1600 
z
M 1300 2425 
Q 1050 2625 825 2762 
Q 600 2900 275 3050 
Q 425 3250 550 3450 
Q 750 3325 1037 3162 
Q 1325 3000 1575 2825 
Q 1425 2600 1300 2425 
z
M 725 5075 
Q 875 4950 1137 4762 
Q 1400 4575 1600 4400 
Q 1400 4175 1275 4000 
Q 1025 4275 425 4700 
Q 575 4900 725 5075 
z
M 2525 5225 
Q 2925 4625 3000 4450 
Q 2800 4375 2575 4225 
Q 2500 4425 2400 4612 
Q 2300 4800 2150 5000 
Q 2350 5100 2525 5225 
z
" transform="scale(0.015625)"/>
      <path id="SimHei-620f" d="M 3450 3200 
Q 3375 3775 3325 5200 
Q 3675 5150 3875 5150 
Q 3800 4050 3900 3275 
Q 5475 3650 5825 3750 
L 5900 3250 
Q 5600 3225 3950 2850 
Q 4050 1900 4300 1350 
Q 4750 2125 4900 2725 
Q 5100 2575 5500 2475 
Q 5275 2225 5112 1837 
Q 4950 1450 4525 825 
Q 4975 225 5225 62 
Q 5475 -100 5550 50 
Q 5625 200 5675 550 
Q 5900 375 6175 275 
Q 6000 -200 5875 -412 
Q 5750 -625 5550 -662 
Q 5350 -700 4912 -325 
Q 4475 50 4175 525 
Q 3400 -250 2975 -600 
Q 2800 -375 2500 -225 
Q 3050 100 3412 425 
Q 3775 750 3950 950 
Q 3650 1650 3500 2725 
Q 3125 2650 2575 2500 
L 2500 3000 
Q 2900 3050 3450 3200 
z
M 2450 4400 
Q 2425 4025 2350 3312 
Q 2275 2600 2025 1725 
Q 2550 925 2825 475 
Q 2575 350 2375 175 
Q 2175 700 1800 1200 
Q 1175 175 625 -425 
Q 450 -150 200 25 
Q 725 450 987 812 
Q 1250 1175 1450 1625 
Q 1250 2025 500 2950 
Q 675 3050 850 3250 
Q 1450 2475 1675 2175 
Q 1825 2625 1950 4000 
L 1250 4000 
Q 775 4000 325 3975 
L 325 4425 
Q 750 4400 1225 4400 
L 2450 4400 
z
M 4825 4925 
Q 5250 4400 5425 4200 
Q 5225 4100 4975 3950 
Q 4850 4125 4425 4625 
Q 4650 4775 4825 4925 
z
" transform="scale(0.015625)"/>
     </defs>
     <use xlink:href="#SimHei-9636"/>
     <use xlink:href="#SimHei-8dc3" transform="translate(100 0)"/>
     <use xlink:href="#SimHei-7535" transform="translate(200 0)"/>
     <use xlink:href="#SimHei-6d41" transform="translate(300 0)"/>
     <use xlink:href="#SimHei-ff1a" transform="translate(400 0)"/>
     <use xlink:href="#SimHei-5f85" transform="translate(500 0)"/>
     <use xlink:href="#SimHei-673a" transform="translate(600 0)"/>
     <use xlink:href="#SimHei-20" transform="translate(700 0)"/>
     <use xlink:href="#SimHei-2192" transform="translate(750 0)"/>
     <use xlink:href="#SimHei-20" transform="translate(850 0)"/>
     <use xlink:href="#SimHei-73a9" transform="translate(900 0)"/>
     <use xlink:href="#SimHei-6e38" transform="translate(1000 0)"/>
     <use xlink:href="#SimHei-620f" transform="translate(1100 0)"/>
     <use xlink:href="#SimHei-20" transform="translate(1200 0)"/>
     <use xlink:href="#SimHei-2192" transform="translate(1250 0)"/>
     <use xlink:href="#SimHei-20" transform="translate(1350 0)"/>
     <use xlink:href="#SimHei-5f85" transform="translate(1400 0)"/>
     <use xlink:href="#SimHei-673a" transform="translate(1500 0)"/>
    </g>
   </g>
   <g id="legend_1">
    <g id="patch_7">
     <path d="M 506.2 71.598438 
L 558.2 71.598438 
Q 560.2 71.598438 560.2 69.598438 
L 560.2 57.04375 
Q 560.2 55.04375 558.2 55.04375 
L 506.2 55.04375 
Q 504.2 55.04375 504.2 57.04375 
L 504.2 69.598438 
Q 504.2 71.598438 506.2 71.598438 
z
" style="fill: #ffffff; opacity: 0.8; stroke: #cccccc; stroke-linejoin: miter"/>
    </g>
    <g id="line2d_22">
     <path d="M 508.2 62.848438 
L 518.2 62.848438 
L 518.2 62.848438 
L 528.2 62.848438 
L 528.2 62.848438 
" style="fill: none; stroke: #ffa500; stroke-width: 1.5; stroke-linecap: square"/>
    </g>
    <g id="text_7">
     <!-- I(t) -->
     <g transform="translate(536.2 66.348438) scale(0.1 -0.1)">
      <defs>
       <path id="SimHei-49" d="M 1850 125 
L 1275 125 
L 1275 4400 
L 1850 4400 
L 1850 125 
z
" transform="scale(0.015625)"/>
       <path id="SimHei-28" d="M 2975 -200 
L 2700 -475 
Q 2075 125 1762 775 
Q 1450 1425 1450 2250 
Q 1450 3075 1762 3725 
Q 2075 4375 2700 5000 
L 2975 4725 
Q 2400 4175 2112 3587 
Q 1825 3000 1825 2250 
Q 1825 1500 2112 912 
Q 2400 325 2975 -200 
z
" transform="scale(0.015625)"/>
       <path id="SimHei-29" d="M 1675 2250 
Q 1675 1425 1362 775 
Q 1050 125 425 -475 
L 150 -200 
Q 725 325 1012 912 
Q 1300 1500 1300 2250 
Q 1300 3000 1012 3587 
Q 725 4175 150 4725 
L 425 5000 
Q 1050 4375 1362 3725 
Q 1675 3075 1675 2250 
z
" transform="scale(0.015625)"/>
      </defs>
      <use xlink:href="#SimHei-49"/>
      <use xlink:href="#SimHei-28" transform="translate(50 0)"/>
      <use xlink:href="#SimHei-74" transform="translate(100 0)"/>
      <use xlink:href="#SimHei-29" transform="translate(150 0)"/>
     </g>
    </g>
   </g>
  </g>
  <g id="axes_2">
   <g id="patch_8">
    <path d="M 61.265 273.153397 
L 565.2 273.153397 
L 565.2 169.045353 
L 61.265 169.045353 
z
" style="fill: #ffffff"/>
   </g>
   <g id="matplotlib.axis_3">
    <g id="xtick_7">
     <g id="line2d_23">
      <path d="M 84.171136 273.153397 
L 84.171136 169.045353 
" clip-path="url(#p17b4703be6)" style="fill: none; stroke: #b0b0b0; stroke-opacity: 0.3; stroke-width: 0.8; stroke-linecap: square"/>
     </g>
     <g id="line2d_24">
      <g>
       <use xlink:href="#m4904a94d79" x="84.171136" y="273.153397" style="stroke: #000000; stroke-width: 0.8"/>
      </g>
     </g>
    </g>
    <g id="xtick_8">
     <g id="line2d_25">
      <path d="M 175.795682 273.153397 
L 175.795682 169.045353 
" clip-path="url(#p17b4703be6)" style="fill: none; stroke: #b0b0b0; stroke-opacity: 0.3; stroke-width: 0.8; stroke-linecap: square"/>
     </g>
     <g id="line2d_26">
      <g>
       <use xlink:href="#m4904a94d79" x="175.795682" y="273.153397" style="stroke: #000000; stroke-width: 0.8"/>
      </g>
     </g>
    </g>
    <g id="xtick_9">
     <g id="line2d_27">
      <path d="M 267.420227 273.153397 
L 267.420227 169.045353 
" clip-path="url(#p17b4703be6)" style="fill: none; stroke: #b0b0b0; stroke-opacity: 0.3; stroke-width: 0.8; stroke-linecap: square"/>
     </g>
     <g id="line2d_28">
      <g>
       <use xlink:href="#m4904a94d79" x="267.420227" y="273.153397" style="stroke: #000000; stroke-width: 0.8"/>
      </g>
     </g>
    </g>
    <g id="xtick_10">
     <g id="line2d_29">
      <path d="M 359.044773 273.153397 
L 359.044773 169.045353 
" clip-path="url(#p17b4703be6)" style="fill: none; stroke: #b0b0b0; stroke-opacity: 0.3; stroke-width: 0.8; stroke-linecap: square"/>
     </g>
     <g id="line2d_30">
      <g>
       <use xlink:href="#m4904a94d79" x="359.044773" y="273.153397" style="stroke: #000000; stroke-width: 0.8"/>
      </g>
     </g>
    </g>
    <g id="xtick_11">
     <g id="line2d_31">
      <path d="M 450.669318 273.153397 
L 450.669318 169.045353 
" clip-path="url(#p17b4703be6)" style="fill: none; stroke: #b0b0b0; stroke-opacity: 0.3; stroke-width: 0.8; stroke-linecap: square"/>
     </g>
     <g id="line2d_32">
      <g>
       <use xlink:href="#m4904a94d79" x="450.669318" y="273.153397" style="stroke: #000000; stroke-width: 0.8"/>
      </g>
     </g>
    </g>
    <g id="xtick_12">
     <g id="line2d_33">
      <path d="M 542.293864 273.153397 
L 542.293864 169.045353 
" clip-path="url(#p17b4703be6)" style="fill: none; stroke: #b0b0b0; stroke-opacity: 0.3; stroke-width: 0.8; stroke-linecap: square"/>
     </g>
     <g id="line2d_34">
      <g>
       <use xlink:href="#m4904a94d79" x="542.293864" y="273.153397" style="stroke: #000000; stroke-width: 0.8"/>
      </g>
     </g>
    </g>
   </g>
   <g id="matplotlib.axis_4">
    <g id="ytick_5">
     <g id="line2d_35">
      <path d="M 61.265 264.223608 
L 565.2 264.223608 
" clip-path="url(#p17b4703be6)" style="fill: none; stroke: #b0b0b0; stroke-opacity: 0.3; stroke-width: 0.8; stroke-linecap: square"/>
     </g>
     <g id="line2d_36">
      <g>
       <use xlink:href="#m9cab8b34db" x="61.265" y="264.223608" style="stroke: #000000; stroke-width: 0.8"/>
      </g>
     </g>
     <g id="text_8">
      <!-- 4.24 -->
      <g transform="translate(34.265 267.661108) scale(0.1 -0.1)">
       <defs>
        <path id="SimHei-34" d="M 2000 1100 
L 75 1100 
L 75 1525 
L 2100 4450 
L 2475 4450 
L 2475 1525 
L 3075 1525 
L 3075 1100 
L 2475 1100 
L 2475 150 
L 2000 150 
L 2000 1100 
z
M 2000 1525 
L 2000 3500 
L 600 1525 
L 2000 1525 
z
" transform="scale(0.015625)"/>
       </defs>
       <use xlink:href="#SimHei-34"/>
       <use xlink:href="#SimHei-2e" transform="translate(50 0)"/>
       <use xlink:href="#SimHei-32" transform="translate(100 0)"/>
       <use xlink:href="#SimHei-34" transform="translate(150 0)"/>
      </g>
     </g>
    </g>
    <g id="ytick_6">
     <g id="line2d_37">
      <path d="M 61.265 233.563923 
L 565.2 233.563923 
" clip-path="url(#p17b4703be6)" style="fill: none; stroke: #b0b0b0; stroke-opacity: 0.3; stroke-width: 0.8; stroke-linecap: square"/>
     </g>
     <g id="line2d_38">
      <g>
       <use xlink:href="#m9cab8b34db" x="61.265" y="233.563923" style="stroke: #000000; stroke-width: 0.8"/>
      </g>
     </g>
     <g id="text_9">
      <!-- 4.26 -->
      <g transform="translate(34.265 237.001423) scale(0.1 -0.1)">
       <defs>
        <path id="SimHei-36" d="M 250 1612 
Q 275 1975 387 2225 
Q 500 2475 725 2850 
L 1750 4450 
L 2325 4450 
L 1275 2800 
Q 1950 2975 2350 2750 
Q 2750 2525 2887 2237 
Q 3025 1950 3037 1612 
Q 3050 1275 2937 950 
Q 2825 625 2537 362 
Q 2250 100 1737 75 
Q 1225 50 862 262 
Q 500 475 362 862 
Q 225 1250 250 1612 
z
M 1025 787 
Q 1250 550 1625 525 
Q 2000 500 2250 775 
Q 2500 1050 2500 1575 
Q 2500 2100 2187 2300 
Q 1875 2500 1487 2450 
Q 1100 2400 925 2075 
Q 750 1750 775 1387 
Q 800 1025 1025 787 
z
" transform="scale(0.015625)"/>
       </defs>
       <use xlink:href="#SimHei-34"/>
       <use xlink:href="#SimHei-2e" transform="translate(50 0)"/>
       <use xlink:href="#SimHei-32" transform="translate(100 0)"/>
       <use xlink:href="#SimHei-36" transform="translate(150 0)"/>
      </g>
     </g>
    </g>
    <g id="ytick_7">
     <g id="line2d_39">
      <path d="M 61.265 202.904238 
L 565.2 202.904238 
" clip-path="url(#p17b4703be6)" style="fill: none; stroke: #b0b0b0; stroke-opacity: 0.3; stroke-width: 0.8; stroke-linecap: square"/>
     </g>
     <g id="line2d_40">
      <g>
       <use xlink:href="#m9cab8b34db" x="61.265" y="202.904238" style="stroke: #000000; stroke-width: 0.8"/>
      </g>
     </g>
     <g id="text_10">
      <!-- 4.28 -->
      <g transform="translate(34.265 206.341738) scale(0.1 -0.1)">
       <defs>
        <path id="SimHei-38" d="M 175 1375 
Q 175 1675 325 1962 
Q 475 2250 825 2425 
Q 525 2600 425 2812 
Q 325 3025 312 3300 
Q 300 3575 387 3775 
Q 475 3975 650 4150 
Q 825 4325 1037 4387 
Q 1250 4450 1500 4450 
Q 1750 4450 1950 4400 
Q 2150 4350 2375 4187 
Q 2600 4025 2700 3725 
Q 2800 3425 2687 3025 
Q 2575 2625 2100 2400 
Q 2525 2275 2700 2012 
Q 2875 1750 2875 1375 
Q 2875 1000 2762 775 
Q 2650 550 2512 400 
Q 2375 250 2137 162 
Q 1900 75 1537 75 
Q 1175 75 912 162 
Q 650 250 475 425 
Q 300 600 237 837 
Q 175 1075 175 1375 
z
M 687 1400 
Q 675 1100 787 875 
Q 900 650 1200 587 
Q 1500 525 1825 600 
Q 2150 675 2275 950 
Q 2400 1225 2362 1500 
Q 2325 1775 2050 1962 
Q 1775 2150 1450 2125 
Q 1125 2100 912 1900 
Q 700 1700 687 1400 
z
M 775 3350 
Q 775 3100 950 2875 
Q 1125 2650 1500 2650 
Q 1875 2650 2062 2875 
Q 2250 3100 2237 3412 
Q 2225 3725 2012 3875 
Q 1800 4025 1437 4000 
Q 1075 3975 925 3787 
Q 775 3600 775 3350 
z
" transform="scale(0.015625)"/>
       </defs>
       <use xlink:href="#SimHei-34"/>
       <use xlink:href="#SimHei-2e" transform="translate(50 0)"/>
       <use xlink:href="#SimHei-32" transform="translate(100 0)"/>
       <use xlink:href="#SimHei-38" transform="translate(150 0)"/>
      </g>
     </g>
    </g>
    <g id="ytick_8">
     <g id="line2d_41">
      <path d="M 61.265 172.244553 
L 565.2 172.244553 
" clip-path="url(#p17b4703be6)" style="fill: none; stroke: #b0b0b0; stroke-opacity: 0.3; stroke-width: 0.8; stroke-linecap: square"/>
     </g>
     <g id="line2d_42">
      <g>
       <use xlink:href="#m9cab8b34db" x="61.265" y="172.244553" style="stroke: #000000; stroke-width: 0.8"/>
      </g>
     </g>
     <g id="text_11">
      <!-- 4.30 -->
      <g transform="translate(34.265 175.682053) scale(0.1 -0.1)">
       <defs>
        <path id="SimHei-33" d="M 250 1225 
L 700 1300 
Q 800 975 1025 762 
Q 1250 550 1587 562 
Q 1925 575 2125 837 
Q 2325 1100 2300 1437 
Q 2275 1775 2037 1962 
Q 1800 2150 1275 2225 
L 1275 2550 
Q 1800 2600 2037 2825 
Q 2275 3050 2250 3412 
Q 2225 3775 1925 3937 
Q 1625 4100 1287 3975 
Q 950 3850 750 3275 
L 300 3350 
Q 450 3800 712 4100 
Q 975 4400 1425 4450 
Q 1875 4500 2212 4337 
Q 2550 4175 2687 3837 
Q 2825 3500 2725 3100 
Q 2625 2700 2150 2400 
Q 2500 2250 2687 1950 
Q 2875 1650 2812 1162 
Q 2750 675 2375 375 
Q 2000 75 1525 87 
Q 1050 100 700 387 
Q 350 675 250 1225 
z
" transform="scale(0.015625)"/>
       </defs>
       <use xlink:href="#SimHei-34"/>
       <use xlink:href="#SimHei-2e" transform="translate(50 0)"/>
       <use xlink:href="#SimHei-33" transform="translate(100 0)"/>
       <use xlink:href="#SimHei-30" transform="translate(150 0)"/>
      </g>
     </g>
    </g>
    <g id="text_12">
     <!-- Voltage [V] -->
     <g transform="translate(29.015 248.599375) rotate(-90) scale(0.1 -0.1)">
      <defs>
       <path id="SimHei-56" d="M 3050 4400 
L 1800 75 
L 1300 75 
L 50 4400 
L 650 4400 
L 1525 1125 
L 1575 1125 
L 2450 4400 
L 3050 4400 
z
" transform="scale(0.015625)"/>
       <path id="SimHei-6f" d="M 2925 1525 
Q 2925 875 2525 475 
Q 2125 75 1575 75 
Q 1025 75 625 475 
Q 225 875 225 1525 
Q 225 2175 625 2575 
Q 1025 2975 1575 2975 
Q 2125 2975 2525 2575 
Q 2925 2175 2925 1525 
z
M 2375 1525 
Q 2375 2025 2125 2275 
Q 1875 2525 1575 2525 
Q 1275 2525 1025 2275 
Q 775 2025 775 1525 
Q 775 1025 1025 775 
Q 1275 525 1575 525 
Q 1875 525 2125 775 
Q 2375 1025 2375 1525 
z
" transform="scale(0.015625)"/>
       <path id="SimHei-6c" d="M 1825 125 
L 1325 125 
L 1325 4400 
L 1825 4400 
L 1825 125 
z
" transform="scale(0.015625)"/>
       <path id="SimHei-61" d="M 2875 125 
L 2275 125 
Q 2225 175 2200 262 
Q 2175 350 2175 475 
Q 2000 275 1750 175 
Q 1500 75 1225 75 
Q 825 75 550 275 
Q 275 475 275 850 
Q 275 1225 525 1450 
Q 775 1675 1300 1750 
Q 1650 1800 1912 1875 
Q 2175 1950 2175 2075 
Q 2175 2225 2062 2375 
Q 1950 2525 1575 2525 
Q 1275 2525 1137 2412 
Q 1000 2300 950 2100 
L 400 2100 
Q 450 2500 762 2737 
Q 1075 2975 1575 2975 
Q 2125 2975 2400 2725 
Q 2675 2475 2675 2025 
L 2675 650 
Q 2675 500 2725 375 
Q 2775 250 2875 125 
z
M 2175 1050 
L 2175 1550 
Q 2025 1500 1887 1462 
Q 1750 1425 1425 1375 
Q 1050 1325 937 1200 
Q 825 1075 825 900 
Q 825 750 937 637 
Q 1050 525 1275 525 
Q 1500 525 1762 650 
Q 2025 775 2175 1050 
z
" transform="scale(0.015625)"/>
       <path id="SimHei-67" d="M 2975 2500 
Q 2800 2550 2637 2562 
Q 2475 2575 2300 2525 
Q 2375 2450 2425 2337 
Q 2475 2225 2475 2000 
Q 2475 1575 2187 1300 
Q 1900 1025 1475 1025 
Q 1375 1025 1212 1062 
Q 1050 1100 950 1150 
Q 875 1100 850 1050 
Q 825 1000 825 925 
Q 825 800 1000 737 
Q 1175 675 1625 675 
Q 2350 675 2612 475 
Q 2875 275 2875 -25 
Q 2875 -425 2487 -612 
Q 2100 -800 1575 -800 
Q 900 -800 575 -625 
Q 250 -450 250 -150 
Q 250 0 375 150 
Q 500 300 700 400 
Q 550 475 462 587 
Q 375 700 375 875 
Q 375 1025 487 1137 
Q 600 1250 750 1325 
Q 625 1450 550 1625 
Q 475 1800 475 2000 
Q 475 2425 762 2700 
Q 1050 2975 1475 2975 
Q 1700 2975 1862 2912 
Q 2025 2850 2150 2725 
Q 2350 2875 2550 2937 
Q 2750 3000 2975 2975 
L 2975 2500 
z
M 1975 2000 
Q 1975 2250 1850 2400 
Q 1725 2550 1475 2550 
Q 1225 2550 1100 2400 
Q 975 2250 975 2000 
Q 975 1750 1100 1600 
Q 1225 1450 1475 1450 
Q 1725 1450 1850 1600 
Q 1975 1750 1975 2000 
z
M 2400 -75 
Q 2400 25 2287 125 
Q 2175 225 1725 225 
Q 1625 225 1450 237 
Q 1275 250 1050 275 
Q 850 200 775 100 
Q 700 0 700 -100 
Q 700 -250 900 -350 
Q 1100 -450 1600 -450 
Q 2025 -450 2212 -337 
Q 2400 -225 2400 -75 
z
" transform="scale(0.015625)"/>
      </defs>
      <use xlink:href="#SimHei-56"/>
      <use xlink:href="#SimHei-6f" transform="translate(50 0)"/>
      <use xlink:href="#SimHei-6c" transform="translate(100 0)"/>
      <use xlink:href="#SimHei-74" transform="translate(150 0)"/>
      <use xlink:href="#SimHei-61" transform="translate(200 0)"/>
      <use xlink:href="#SimHei-67" transform="translate(250 0)"/>
      <use xlink:href="#SimHei-65" transform="translate(300 0)"/>
      <use xlink:href="#SimHei-20" transform="translate(350 0)"/>
      <use xlink:href="#SimHei-5b" transform="translate(400 0)"/>
      <use xlink:href="#SimHei-56" transform="translate(450 0)"/>
      <use xlink:href="#SimHei-5d" transform="translate(500 0)"/>
     </g>
    </g>
   </g>
   <g id="line2d_43">
    <path d="M 84.171136 173.777537 
L 84.680162 174.467789 
L 85.316443 174.944363 
L 86.207237 175.296235 
L 87.607057 175.562929 
L 90.024927 175.749923 
L 95.115179 175.866109 
L 132.783048 176.225592 
L 175.795682 176.627854 
L 175.922938 209.831802 
L 176.431963 221.330356 
L 176.940989 228.13993 
L 177.450014 232.485386 
L 178.086295 236.049099 
L 178.722577 238.448884 
L 179.486115 240.427804 
L 180.249653 241.786698 
L 181.140447 242.887164 
L 182.158497 243.746528 
L 183.303804 244.406696 
L 184.83088 245.007079 
L 187.121494 245.629228 
L 191.448208 246.520182 
L 209.773117 249.914785 
L 258.766798 258.799866 
L 308.905785 267.666459 
L 313.2325 268.421213 
L 313.359756 235.242708 
L 313.868782 223.843716 
L 314.377807 217.13318 
L 314.886832 212.8866 
L 315.523114 209.446695 
L 316.159395 207.168949 
L 316.795677 205.594261 
L 317.559215 204.295167 
L 318.322753 203.424968 
L 319.213547 202.751341 
L 320.231597 202.26991 
L 321.50416 201.926653 
L 323.285749 201.700316 
L 326.212644 201.588944 
L 333.59351 201.608577 
L 511.752348 203.155185 
L 542.293864 203.419877 
L 542.293864 203.419877 
" clip-path="url(#p17b4703be6)" style="fill: none; stroke: #0000ff; stroke-width: 1.5; stroke-linecap: square"/>
   </g>
   <g id="line2d_44">
    <path d="M 175.795682 273.153397 
L 175.795682 169.045353 
" clip-path="url(#p17b4703be6)" style="fill: none; stroke-dasharray: 5.55,2.4; stroke-dashoffset: 0; stroke: #808080; stroke-opacity: 0.5; stroke-width: 1.5"/>
   </g>
   <g id="line2d_45">
    <path d="M 313.2325 273.153397 
L 313.2325 169.045353 
" clip-path="url(#p17b4703be6)" style="fill: none; stroke-dasharray: 5.55,2.4; stroke-dashoffset: 0; stroke: #808080; stroke-opacity: 0.5; stroke-width: 1.5"/>
   </g>
   <g id="patch_9">
    <path d="M 61.265 273.153397 
L 61.265 169.045353 
" style="fill: none; stroke: #000000; stroke-width: 0.8; stroke-linejoin: miter; stroke-linecap: square"/>
   </g>
   <g id="patch_10">
    <path d="M 565.2 273.153397 
L 565.2 169.045353 
" style="fill: none; stroke: #000000; stroke-width: 0.8; stroke-linejoin: miter; stroke-linecap: square"/>
   </g>
   <g id="patch_11">
    <path d="M 61.265 273.153397 
L 565.2 273.153397 
" style="fill: none; stroke: #000000; stroke-width: 0.8; stroke-linejoin: miter; stroke-linecap: square"/>
   </g>
   <g id="patch_12">
    <path d="M 61.265 169.045353 
L 565.2 169.045353 
" style="fill: none; stroke: #000000; stroke-width: 0.8; stroke-linejoin: miter; stroke-linecap: square"/>
   </g>
   <g id="legend_2">
    <g id="patch_13">
     <path d="M 496.2 190.373478 
L 558.2 190.373478 
Q 560.2 190.373478 560.2 188.373478 
L 560.2 176.045353 
Q 560.2 174.045353 558.2 174.045353 
L 496.2 174.045353 
Q 494.2 174.045353 494.2 176.045353 
L 494.2 188.373478 
Q 494.2 190.373478 496.2 190.373478 
z
" style="fill: #ffffff; opacity: 0.8; stroke: #cccccc; stroke-linejoin: miter"/>
    </g>
    <g id="line2d_46">
     <path d="M 498.2 181.545353 
L 508.2 181.545353 
L 518.2 181.545353 
" style="fill: none; stroke: #0000ff; stroke-width: 1.5; stroke-linecap: square"/>
    </g>
    <g id="text_13">
     <!-- V_cell -->
     <g transform="translate(526.2 185.045353) scale(0.1 -0.1)">
      <defs>
       <path id="SimHei-5f" d="M 3150 -850 
L 0 -850 
L 0 -550 
L 3150 -550 
L 3150 -850 
z
" transform="scale(0.015625)"/>
       <path id="SimHei-63" d="M 2850 1250 
Q 2850 725 2487 400 
Q 2125 75 1575 75 
Q 1025 75 625 462 
Q 225 850 225 1525 
Q 225 2200 625 2587 
Q 1025 2975 1575 2975 
Q 2125 2975 2450 2687 
Q 2775 2400 2775 2000 
L 2225 2000 
Q 2200 2300 2012 2412 
Q 1825 2525 1575 2525 
Q 1275 2525 1025 2287 
Q 775 2050 775 1525 
Q 775 1000 1025 762 
Q 1275 525 1575 525 
Q 1900 525 2100 700 
Q 2300 875 2300 1250 
L 2850 1250 
z
" transform="scale(0.015625)"/>
      </defs>
      <use xlink:href="#SimHei-56"/>
      <use xlink:href="#SimHei-5f" transform="translate(50 0)"/>
      <use xlink:href="#SimHei-63" transform="translate(100 0)"/>
      <use xlink:href="#SimHei-65" transform="translate(150 0)"/>
      <use xlink:href="#SimHei-6c" transform="translate(200 0)"/>
      <use xlink:href="#SimHei-6c" transform="translate(250 0)"/>
     </g>
    </g>
   </g>
  </g>
  <g id="axes_3">
   <g id="patch_14">
    <path d="M 61.265 392.155 
L 565.2 392.155 
L 565.2 288.046956 
L 61.265 288.046956 
z
" style="fill: #ffffff"/>
   </g>
   <g id="matplotlib.axis_5">
    <g id="xtick_13">
     <g id="line2d_47">
      <path d="M 84.171136 392.155 
L 84.171136 288.046956 
" clip-path="url(#p4e1a28a3ba)" style="fill: none; stroke: #b0b0b0; stroke-opacity: 0.3; stroke-width: 0.8; stroke-linecap: square"/>
     </g>
     <g id="line2d_48">
      <g>
       <use xlink:href="#m4904a94d79" x="84.171136" y="392.155" style="stroke: #000000; stroke-width: 0.8"/>
      </g>
     </g>
     <g id="text_14">
      <!-- 0.0 -->
      <g transform="translate(76.671136 406.03) scale(0.1 -0.1)">
       <use xlink:href="#SimHei-30"/>
       <use xlink:href="#SimHei-2e" transform="translate(50 0)"/>
       <use xlink:href="#SimHei-30" transform="translate(100 0)"/>
      </g>
     </g>
    </g>
    <g id="xtick_14">
     <g id="line2d_49">
      <path d="M 175.795682 392.155 
L 175.795682 288.046956 
" clip-path="url(#p4e1a28a3ba)" style="fill: none; stroke: #b0b0b0; stroke-opacity: 0.3; stroke-width: 0.8; stroke-linecap: square"/>
     </g>
     <g id="line2d_50">
      <g>
       <use xlink:href="#m4904a94d79" x="175.795682" y="392.155" style="stroke: #000000; stroke-width: 0.8"/>
      </g>
     </g>
     <g id="text_15">
      <!-- 0.2 -->
      <g transform="translate(168.295682 406.03) scale(0.1 -0.1)">
       <use xlink:href="#SimHei-30"/>
       <use xlink:href="#SimHei-2e" transform="translate(50 0)"/>
       <use xlink:href="#SimHei-32" transform="translate(100 0)"/>
      </g>
     </g>
    </g>
    <g id="xtick_15">
     <g id="line2d_51">
      <path d="M 267.420227 392.155 
L 267.420227 288.046956 
" clip-path="url(#p4e1a28a3ba)" style="fill: none; stroke: #b0b0b0; stroke-opacity: 0.3; stroke-width: 0.8; stroke-linecap: square"/>
     </g>
     <g id="line2d_52">
      <g>
       <use xlink:href="#m4904a94d79" x="267.420227" y="392.155" style="stroke: #000000; stroke-width: 0.8"/>
      </g>
     </g>
     <g id="text_16">
      <!-- 0.4 -->
      <g transform="translate(259.920227 406.03) scale(0.1 -0.1)">
       <use xlink:href="#SimHei-30"/>
       <use xlink:href="#SimHei-2e" transform="translate(50 0)"/>
       <use xlink:href="#SimHei-34" transform="translate(100 0)"/>
      </g>
     </g>
    </g>
    <g id="xtick_16">
     <g id="line2d_53">
      <path d="M 359.044773 392.155 
L 359.044773 288.046956 
" clip-path="url(#p4e1a28a3ba)" style="fill: none; stroke: #b0b0b0; stroke-opacity: 0.3; stroke-width: 0.8; stroke-linecap: square"/>
     </g>
     <g id="line2d_54">
      <g>
       <use xlink:href="#m4904a94d79" x="359.044773" y="392.155" style="stroke: #000000; stroke-width: 0.8"/>
      </g>
     </g>
     <g id="text_17">
      <!-- 0.6 -->
      <g transform="translate(351.544773 406.03) scale(0.1 -0.1)">
       <use xlink:href="#SimHei-30"/>
       <use xlink:href="#SimHei-2e" transform="translate(50 0)"/>
       <use xlink:href="#SimHei-36" transform="translate(100 0)"/>
      </g>
     </g>
    </g>
    <g id="xtick_17">
     <g id="line2d_55">
      <path d="M 450.669318 392.155 
L 450.669318 288.046956 
" clip-path="url(#p4e1a28a3ba)" style="fill: none; stroke: #b0b0b0; stroke-opacity: 0.3; stroke-width: 0.8; stroke-linecap: square"/>
     </g>
     <g id="line2d_56">
      <g>
       <use xlink:href="#m4904a94d79" x="450.669318" y="392.155" style="stroke: #000000; stroke-width: 0.8"/>
      </g>
     </g>
     <g id="text_18">
      <!-- 0.8 -->
      <g transform="translate(443.169318 406.03) scale(0.1 -0.1)">
       <use xlink:href="#SimHei-30"/>
       <use xlink:href="#SimHei-2e" transform="translate(50 0)"/>
       <use xlink:href="#SimHei-38" transform="translate(100 0)"/>
      </g>
     </g>
    </g>
    <g id="xtick_18">
     <g id="line2d_57">
      <path d="M 542.293864 392.155 
L 542.293864 288.046956 
" clip-path="url(#p4e1a28a3ba)" style="fill: none; stroke: #b0b0b0; stroke-opacity: 0.3; stroke-width: 0.8; stroke-linecap: square"/>
     </g>
     <g id="line2d_58">
      <g>
       <use xlink:href="#m4904a94d79" x="542.293864" y="392.155" style="stroke: #000000; stroke-width: 0.8"/>
      </g>
     </g>
     <g id="text_19">
      <!-- 1.0 -->
      <g transform="translate(534.793864 406.03) scale(0.1 -0.1)">
       <use xlink:href="#SimHei-31"/>
       <use xlink:href="#SimHei-2e" transform="translate(50 0)"/>
       <use xlink:href="#SimHei-30" transform="translate(100 0)"/>
      </g>
     </g>
    </g>
    <g id="text_20">
     <!-- Time [h] -->
     <g transform="translate(293.2325 418.740937) scale(0.1 -0.1)">
      <defs>
       <path id="SimHei-54" d="M 2850 3925 
L 1850 3925 
L 1850 125 
L 1275 125 
L 1275 3925 
L 275 3925 
L 275 4400 
L 2850 4400 
L 2850 3925 
z
" transform="scale(0.015625)"/>
       <path id="SimHei-69" d="M 1800 3725 
L 1300 3725 
L 1300 4375 
L 1800 4375 
L 1800 3725 
z
M 1800 125 
L 1300 125 
L 1300 2925 
L 1800 2925 
L 1800 125 
z
" transform="scale(0.015625)"/>
       <path id="SimHei-6d" d="M 3050 125 
L 2550 125 
L 2550 2150 
Q 2550 2300 2500 2400 
Q 2450 2500 2300 2500 
Q 2125 2500 1975 2312 
Q 1825 2125 1825 1825 
L 1825 125 
L 1325 125 
L 1325 2150 
Q 1325 2300 1275 2400 
Q 1225 2500 1075 2500 
Q 900 2500 750 2312 
Q 600 2125 600 1825 
L 600 125 
L 100 125 
L 100 2925 
L 600 2925 
L 600 2550 
Q 725 2750 900 2862 
Q 1075 2975 1275 2975 
Q 1475 2975 1612 2862 
Q 1750 2750 1800 2550 
Q 1925 2750 2087 2862 
Q 2250 2975 2450 2975 
Q 2750 2975 2900 2812 
Q 3050 2650 3050 2350 
L 3050 125 
z
" transform="scale(0.015625)"/>
       <path id="SimHei-68" d="M 2800 125 
L 2300 125 
L 2300 1925 
Q 2300 2225 2150 2400 
Q 2000 2575 1750 2575 
Q 1425 2575 1137 2237 
Q 850 1900 850 1400 
L 850 125 
L 350 125 
L 350 4400 
L 850 4400 
L 850 2400 
Q 1050 2675 1287 2825 
Q 1525 2975 1900 2975 
Q 2350 2975 2575 2725 
Q 2800 2475 2800 2100 
L 2800 125 
z
" transform="scale(0.015625)"/>
      </defs>
      <use xlink:href="#SimHei-54"/>
      <use xlink:href="#SimHei-69" transform="translate(50 0)"/>
      <use xlink:href="#SimHei-6d" transform="translate(100 0)"/>
      <use xlink:href="#SimHei-65" transform="translate(150 0)"/>
      <use xlink:href="#SimHei-20" transform="translate(200 0)"/>
      <use xlink:href="#SimHei-5b" transform="translate(250 0)"/>
      <use xlink:href="#SimHei-68" transform="translate(300 0)"/>
      <use xlink:href="#SimHei-5d" transform="translate(350 0)"/>
     </g>
    </g>
   </g>
   <g id="matplotlib.axis_6">
    <g id="ytick_9">
     <g id="line2d_59">
      <path d="M 61.265 377.534671 
L 565.2 377.534671 
" clip-path="url(#p4e1a28a3ba)" style="fill: none; stroke: #b0b0b0; stroke-opacity: 0.3; stroke-width: 0.8; stroke-linecap: square"/>
     </g>
     <g id="line2d_60">
      <g>
       <use xlink:href="#m9cab8b34db" x="61.265" y="377.534671" style="stroke: #000000; stroke-width: 0.8"/>
      </g>
     </g>
     <g id="text_21">
      <!-- 0.992 -->
      <g transform="translate(29.265 380.972171) scale(0.1 -0.1)">
       <defs>
        <path id="SimHei-39" d="M 800 75 
Q 1350 1000 1700 1750 
Q 1075 1650 662 1912 
Q 250 2175 162 2625 
Q 75 3075 175 3437 
Q 275 3800 487 4037 
Q 700 4275 1000 4375 
Q 1300 4475 1537 4475 
Q 1775 4475 2025 4375 
Q 2275 4275 2475 4075 
Q 2675 3875 2750 3662 
Q 2825 3450 2825 3112 
Q 2825 2775 2575 2250 
Q 2325 1725 1350 75 
L 800 75 
z
M 662 2875 
Q 700 2550 937 2337 
Q 1175 2125 1450 2150 
Q 1725 2175 1887 2300 
Q 2050 2425 2200 2725 
Q 2300 3100 2250 3362 
Q 2200 3625 1987 3800 
Q 1775 3975 1525 3975 
Q 1375 4000 1137 3900 
Q 900 3800 762 3500 
Q 625 3200 662 2875 
z
" transform="scale(0.015625)"/>
       </defs>
       <use xlink:href="#SimHei-30"/>
       <use xlink:href="#SimHei-2e" transform="translate(50 0)"/>
       <use xlink:href="#SimHei-39" transform="translate(100 0)"/>
       <use xlink:href="#SimHei-39" transform="translate(150 0)"/>
       <use xlink:href="#SimHei-32" transform="translate(200 0)"/>
      </g>
     </g>
    </g>
    <g id="ytick_10">
     <g id="line2d_61">
      <path d="M 61.265 356.345788 
L 565.2 356.345788 
" clip-path="url(#p4e1a28a3ba)" style="fill: none; stroke: #b0b0b0; stroke-opacity: 0.3; stroke-width: 0.8; stroke-linecap: square"/>
     </g>
     <g id="line2d_62">
      <g>
       <use xlink:href="#m9cab8b34db" x="61.265" y="356.345788" style="stroke: #000000; stroke-width: 0.8"/>
      </g>
     </g>
     <g id="text_22">
      <!-- 0.994 -->
      <g transform="translate(29.265 359.783288) scale(0.1 -0.1)">
       <use xlink:href="#SimHei-30"/>
       <use xlink:href="#SimHei-2e" transform="translate(50 0)"/>
       <use xlink:href="#SimHei-39" transform="translate(100 0)"/>
       <use xlink:href="#SimHei-39" transform="translate(150 0)"/>
       <use xlink:href="#SimHei-34" transform="translate(200 0)"/>
      </g>
     </g>
    </g>
    <g id="ytick_11">
     <g id="line2d_63">
      <path d="M 61.265 335.156906 
L 565.2 335.156906 
" clip-path="url(#p4e1a28a3ba)" style="fill: none; stroke: #b0b0b0; stroke-opacity: 0.3; stroke-width: 0.8; stroke-linecap: square"/>
     </g>
     <g id="line2d_64">
      <g>
       <use xlink:href="#m9cab8b34db" x="61.265" y="335.156906" style="stroke: #000000; stroke-width: 0.8"/>
      </g>
     </g>
     <g id="text_23">
      <!-- 0.996 -->
      <g transform="translate(29.265 338.594406) scale(0.1 -0.1)">
       <use xlink:href="#SimHei-30"/>
       <use xlink:href="#SimHei-2e" transform="translate(50 0)"/>
       <use xlink:href="#SimHei-39" transform="translate(100 0)"/>
       <use xlink:href="#SimHei-39" transform="translate(150 0)"/>
       <use xlink:href="#SimHei-36" transform="translate(200 0)"/>
      </g>
     </g>
    </g>
    <g id="ytick_12">
     <g id="line2d_65">
      <path d="M 61.265 313.968023 
L 565.2 313.968023 
" clip-path="url(#p4e1a28a3ba)" style="fill: none; stroke: #b0b0b0; stroke-opacity: 0.3; stroke-width: 0.8; stroke-linecap: square"/>
     </g>
     <g id="line2d_66">
      <g>
       <use xlink:href="#m9cab8b34db" x="61.265" y="313.968023" style="stroke: #000000; stroke-width: 0.8"/>
      </g>
     </g>
     <g id="text_24">
      <!-- 0.998 -->
      <g transform="translate(29.265 317.405523) scale(0.1 -0.1)">
       <use xlink:href="#SimHei-30"/>
       <use xlink:href="#SimHei-2e" transform="translate(50 0)"/>
       <use xlink:href="#SimHei-39" transform="translate(100 0)"/>
       <use xlink:href="#SimHei-39" transform="translate(150 0)"/>
       <use xlink:href="#SimHei-38" transform="translate(200 0)"/>
      </g>
     </g>
    </g>
    <g id="ytick_13">
     <g id="line2d_67">
      <path d="M 61.265 292.77914 
L 565.2 292.77914 
" clip-path="url(#p4e1a28a3ba)" style="fill: none; stroke: #b0b0b0; stroke-opacity: 0.3; stroke-width: 0.8; stroke-linecap: square"/>
     </g>
     <g id="line2d_68">
      <g>
       <use xlink:href="#m9cab8b34db" x="61.265" y="292.77914" style="stroke: #000000; stroke-width: 0.8"/>
      </g>
     </g>
     <g id="text_25">
      <!-- 1.000 -->
      <g transform="translate(29.265 296.21664) scale(0.1 -0.1)">
       <use xlink:href="#SimHei-31"/>
       <use xlink:href="#SimHei-2e" transform="translate(50 0)"/>
       <use xlink:href="#SimHei-30" transform="translate(100 0)"/>
       <use xlink:href="#SimHei-30" transform="translate(150 0)"/>
       <use xlink:href="#SimHei-30" transform="translate(200 0)"/>
      </g>
     </g>
    </g>
    <g id="text_26">
     <!-- SOC [-] -->
     <g transform="translate(24.015 357.600978) rotate(-90) scale(0.1 -0.1)">
      <defs>
       <path id="SimHei-53" d="M 2900 1325 
Q 2900 750 2537 412 
Q 2175 75 1550 75 
Q 925 75 575 425 
Q 225 775 225 1300 
L 225 1475 
L 800 1475 
L 800 1325 
Q 800 950 1025 750 
Q 1250 550 1550 550 
Q 1950 550 2137 762 
Q 2325 975 2325 1275 
Q 2325 1525 2100 1737 
Q 1875 1950 1450 2125 
Q 850 2350 587 2625 
Q 325 2900 325 3275 
Q 325 3800 687 4125 
Q 1050 4450 1550 4450 
Q 2200 4450 2487 4062 
Q 2775 3675 2775 3225 
L 2200 3225 
Q 2225 3500 2050 3725 
Q 1875 3950 1550 3950 
Q 1250 3950 1075 3787 
Q 900 3625 900 3350 
Q 900 3125 1037 2962 
Q 1175 2800 1750 2575 
Q 2300 2350 2600 2037 
Q 2900 1725 2900 1325 
z
" transform="scale(0.015625)"/>
       <path id="SimHei-4f" d="M 2950 2275 
Q 2950 1100 2587 587 
Q 2225 75 1575 75 
Q 925 75 550 587 
Q 175 1100 175 2275 
Q 175 3450 550 3950 
Q 925 4450 1575 4450 
Q 2225 4450 2587 3950 
Q 2950 3450 2950 2275 
z
M 2350 2275 
Q 2350 3325 2125 3650 
Q 1900 3975 1575 3975 
Q 1250 3975 1012 3650 
Q 775 3325 775 2275 
Q 775 1225 1012 887 
Q 1250 550 1575 550 
Q 1900 550 2125 887 
Q 2350 1225 2350 2275 
z
" transform="scale(0.015625)"/>
       <path id="SimHei-2d" d="M 2975 2125 
L 125 2125 
L 125 2525 
L 2975 2525 
L 2975 2125 
z
" transform="scale(0.015625)"/>
      </defs>
      <use xlink:href="#SimHei-53"/>
      <use xlink:href="#SimHei-4f" transform="translate(50 0)"/>
      <use xlink:href="#SimHei-43" transform="translate(100 0)"/>
      <use xlink:href="#SimHei-20" transform="translate(150 0)"/>
      <use xlink:href="#SimHei-5b" transform="translate(200 0)"/>
      <use xlink:href="#SimHei-2d" transform="translate(250 0)"/>
      <use xlink:href="#SimHei-5d" transform="translate(300 0)"/>
     </g>
    </g>
   </g>
   <g id="line2d_69">
    <path d="M 84.171136 292.77914 
L 175.922938 295.682802 
L 313.359756 380.363779 
L 542.293864 387.422816 
L 542.293864 387.422816 
" clip-path="url(#p4e1a28a3ba)" style="fill: none; stroke: #008000; stroke-width: 1.5; stroke-linecap: square"/>
   </g>
   <g id="patch_15">
    <path d="M 61.265 392.155 
L 61.265 288.046956 
" style="fill: none; stroke: #000000; stroke-width: 0.8; stroke-linejoin: miter; stroke-linecap: square"/>
   </g>
   <g id="patch_16">
    <path d="M 565.2 392.155 
L 565.2 288.046956 
" style="fill: none; stroke: #000000; stroke-width: 0.8; stroke-linejoin: miter; stroke-linecap: square"/>
   </g>
   <g id="patch_17">
    <path d="M 61.265 392.155 
L 565.2 392.155 
" style="fill: none; stroke: #000000; stroke-width: 0.8; stroke-linejoin: miter; stroke-linecap: square"/>
   </g>
   <g id="patch_18">
    <path d="M 61.265 288.046956 
L 565.2 288.046956 
" style="fill: none; stroke: #000000; stroke-width: 0.8; stroke-linejoin: miter; stroke-linecap: square"/>
   </g>
   <g id="legend_3">
    <g id="patch_19">
     <path d="M 511.2 309.296956 
L 558.2 309.296956 
Q 560.2 309.296956 560.2 307.296956 
L 560.2 295.046956 
Q 560.2 293.046956 558.2 293.046956 
L 511.2 293.046956 
Q 509.2 293.046956 509.2 295.046956 
L 509.2 307.296956 
Q 509.2 309.296956 511.2 309.296956 
z
" style="fill: #ffffff; opacity: 0.8; stroke: #cccccc; stroke-linejoin: miter"/>
    </g>
    <g id="line2d_70">
     <path d="M 513.2 300.546956 
L 523.2 300.546956 
L 533.2 300.546956 
" style="fill: none; stroke: #008000; stroke-width: 1.5; stroke-linecap: square"/>
    </g>
    <g id="text_27">
     <!-- SOC -->
     <g transform="translate(541.2 304.046956) scale(0.1 -0.1)">
      <use xlink:href="#SimHei-53"/>
      <use xlink:href="#SimHei-4f" transform="translate(50 0)"/>
      <use xlink:href="#SimHei-43" transform="translate(100 0)"/>
     </g>
    </g>
   </g>
  </g>
  <g id="text_28">
   <!-- 2-RC 等效电路（I(t) 阶跃，变负载；0.2h 电压跳水，0.5h 电压回升） -->
   <g transform="translate(96 18.5775) scale(0.12 -0.12)">
    <defs>
     <path id="SimHei-52" d="M 3000 125 
L 2400 125 
L 1500 1975 
L 850 1975 
L 850 125 
L 275 125 
L 275 4400 
L 1525 4400 
Q 2125 4400 2500 4112 
Q 2875 3825 2875 3175 
Q 2875 2675 2625 2400 
Q 2375 2125 2050 2050 
L 3000 125 
z
M 2300 3175 
Q 2300 3525 2087 3725 
Q 1875 3925 1400 3925 
L 850 3925 
L 850 2450 
L 1550 2450 
Q 1850 2450 2075 2612 
Q 2300 2775 2300 3175 
z
" transform="scale(0.015625)"/>
     <path id="SimHei-7b49" d="M 2925 3450 
Q 2925 3625 2900 3950 
L 3450 3950 
Q 3425 3625 3425 3450 
L 4475 3450 
Q 4850 3450 5350 3475 
L 5350 3050 
Q 4875 3075 4500 3075 
L 3425 3075 
L 3425 2400 
L 5225 2400 
Q 5625 2400 6125 2425 
L 6125 1975 
Q 5650 2000 5225 2000 
L 4700 2000 
L 4700 1350 
Q 5325 1350 5750 1375 
L 5750 925 
Q 5250 950 4700 950 
L 4700 125 
Q 4725 -325 4437 -437 
Q 4150 -550 3550 -625 
Q 3500 -325 3350 -75 
Q 3775 -100 3975 -75 
Q 4175 -50 4175 275 
L 4175 950 
L 1550 950 
Q 1225 950 700 925 
L 700 1375 
Q 1200 1350 1650 1350 
L 4175 1350 
L 4175 2000 
L 1075 2000 
Q 750 2000 200 1975 
L 200 2425 
Q 750 2400 1075 2400 
L 2925 2400 
L 2925 3075 
L 1925 3075 
Q 1575 3075 1050 3050 
L 1050 3475 
Q 1725 3450 1925 3450 
L 2925 3450 
z
M 1825 5100 
Q 1675 5000 1500 4725 
L 2400 4725 
Q 2925 4725 3275 4750 
L 3275 4350 
Q 3000 4375 2575 4375 
L 2275 4375 
Q 2400 4175 2575 3850 
Q 2275 3750 2025 3675 
Q 2025 3725 1775 4375 
L 1325 4375 
Q 1125 4075 750 3625 
Q 525 3800 275 3900 
Q 625 4175 850 4525 
Q 1075 4875 1250 5300 
Q 1550 5175 1825 5100 
z
M 3700 3875 
Q 3500 4000 3225 4075 
Q 3475 4275 3650 4575 
Q 3825 4875 3975 5250 
Q 4250 5150 4550 5050 
Q 4350 4875 4250 4700 
L 5275 4700 
Q 5450 4700 6125 4725 
L 6125 4325 
Q 5650 4350 5200 4350 
Q 5475 3900 5600 3725 
Q 5250 3650 5025 3575 
Q 4975 3800 4700 4350 
L 4050 4350 
Q 3925 4150 3700 3875 
z
M 2575 75 
Q 2350 -50 2125 -200 
Q 1900 225 1525 625 
Q 1700 725 1925 900 
Q 2300 500 2575 75 
z
" transform="scale(0.015625)"/>
     <path id="SimHei-6548" d="M 3500 2400 
Q 3400 2675 3200 2900 
Q 3500 3350 3750 4025 
Q 4000 4700 4100 5300 
Q 4400 5150 4750 5075 
Q 4625 4950 4500 4687 
Q 4375 4425 4225 4025 
Q 5800 4025 6150 4050 
L 6150 3625 
Q 5850 3650 5475 3650 
Q 5450 2925 5300 2137 
Q 5150 1350 4825 800 
Q 4900 575 5312 275 
Q 5725 -25 6175 -175 
Q 5875 -350 5775 -650 
Q 5350 -425 5050 -162 
Q 4750 100 4500 425 
Q 4175 125 3837 -112 
Q 3500 -350 2850 -700 
Q 2725 -425 2425 -250 
Q 2750 -200 3325 137 
Q 3900 475 4200 800 
Q 4000 1225 3887 1675 
Q 3775 2125 3675 2700 
L 3500 2400 
z
M 1100 2225 
Q 1525 1875 1925 1575 
Q 2125 1900 2200 2400 
Q 2450 2275 2700 2200 
Q 2475 1625 2300 1250 
L 3000 550 
Q 2775 375 2575 175 
Q 2400 450 2025 825 
Q 1825 600 1550 312 
Q 1275 25 700 -425 
Q 500 -175 250 -25 
Q 575 125 950 400 
Q 1325 675 1675 1175 
Q 1325 1475 850 1875 
L 1100 2225 
z
M 4075 2950 
Q 4100 2700 4212 2187 
Q 4325 1675 4525 1225 
Q 4775 1700 4887 2475 
Q 5000 3250 4975 3650 
L 4100 3650 
Q 3900 3125 3725 2850 
Q 3900 2850 4075 2950 
z
M 2500 4200 
Q 2875 4200 3175 4225 
L 3175 3800 
Q 2875 3825 2525 3825 
L 1000 3825 
Q 600 3825 275 3800 
L 275 4225 
Q 600 4200 1000 4200 
L 2500 4200 
z
M 1125 3650 
Q 1400 3500 1625 3325 
Q 1525 3250 1300 2900 
Q 1050 2525 675 2000 
Q 450 2150 225 2275 
Q 550 2575 787 2975 
Q 1025 3375 1125 3650 
z
M 2475 3625 
Q 2625 3400 2850 3100 
Q 3075 2800 3250 2575 
Q 3025 2450 2825 2275 
Q 2325 3000 2075 3325 
Q 2275 3425 2475 3625 
z
M 1825 5250 
Q 2025 4875 2175 4475 
Q 1950 4375 1700 4275 
Q 1550 4650 1350 5075 
Q 1575 5150 1825 5250 
z
" transform="scale(0.015625)"/>
     <path id="SimHei-8def" d="M 2900 425 
Q 1225 -75 475 -350 
Q 425 -150 275 125 
Q 525 150 700 225 
L 700 1800 
Q 700 2000 675 2325 
L 1150 2325 
Q 1125 2100 1125 1675 
L 1125 325 
Q 1300 375 1550 450 
L 1550 2975 
L 725 2975 
Q 750 3225 750 3850 
Q 750 4500 725 4750 
L 2650 4750 
Q 2625 4475 2625 3850 
Q 2625 3250 2650 2975 
L 1975 2975 
L 1975 2075 
Q 2275 2075 2600 2100 
L 2600 1650 
Q 2275 1675 1975 1675 
L 1975 550 
Q 2200 600 2900 875 
Q 2875 675 2900 425 
z
M 4225 5025 
Q 4075 4850 3925 4550 
L 5750 4550 
Q 5575 4125 5287 3650 
Q 5000 3175 4750 2850 
Q 5325 2400 6200 2200 
Q 6000 1950 5900 1750 
Q 5600 1875 5200 2087 
Q 4800 2300 4475 2550 
Q 4150 2300 3762 2100 
Q 3375 1900 2925 1700 
Q 2825 1925 2650 2125 
Q 2975 2200 3400 2375 
Q 3825 2550 4150 2825 
Q 3900 3075 3425 3650 
Q 3250 3350 3100 3150 
Q 2950 3300 2725 3425 
Q 3000 3675 3275 4187 
Q 3550 4700 3700 5225 
Q 3975 5050 4225 5025 
z
M 5525 1800 
Q 5500 1475 5500 650 
Q 5500 -150 5525 -525 
L 5050 -525 
L 5050 -50 
L 3625 -50 
L 3625 -550 
L 3175 -550 
Q 3200 -125 3200 650 
Q 3200 1450 3175 1800 
L 5525 1800 
z
M 5050 325 
L 5050 1400 
L 3625 1400 
L 3625 325 
L 5050 325 
z
M 2200 3350 
L 2200 4375 
L 1175 4375 
L 1175 3350 
L 2200 3350 
z
M 3650 4000 
Q 3950 3550 4425 3125 
Q 4575 3275 4775 3612 
Q 4975 3950 5075 4175 
L 3750 4175 
L 3650 4000 
z
" transform="scale(0.015625)"/>
     <path id="SimHei-ff08" d="M 5425 5100 
L 5700 4775 
Q 4275 3725 4325 2350 
Q 4350 1025 5675 50 
L 5400 -275 
Q 3875 825 3925 2500 
Q 3925 3875 5425 5100 
z
" transform="scale(0.015625)"/>
     <path id="SimHei-ff0c" d="M 875 950 
L 1775 950 
L 1775 -50 
Q 1700 -675 1150 -975 
L 900 -750 
Q 1350 -500 1350 0 
L 875 0 
L 875 950 
z
" transform="scale(0.015625)"/>
     <path id="SimHei-53d8" d="M 5200 1975 
Q 4950 1600 4537 1137 
Q 4125 675 3675 375 
Q 3925 225 4600 87 
Q 5275 -50 6000 -75 
Q 5700 -400 5650 -625 
Q 4850 -525 4212 -312 
Q 3575 -100 3225 125 
Q 2800 -125 2150 -325 
Q 1500 -525 700 -675 
Q 600 -425 400 -175 
Q 950 -150 1687 12 
Q 2425 175 2825 375 
Q 2275 775 1675 1575 
Q 1350 1575 1000 1550 
L 1000 2000 
Q 1450 1975 2075 1975 
L 5200 1975 
z
M 3225 5275 
Q 3400 4900 3550 4475 
L 4675 4475 
Q 5400 4475 5975 4500 
L 5975 4025 
Q 5375 4050 4725 4050 
L 4125 4050 
L 4125 2950 
Q 4125 2550 4150 2150 
L 3600 2150 
Q 3625 2550 3625 2950 
L 3625 4050 
L 2750 4050 
L 2750 2950 
Q 2750 2675 2775 2150 
L 2225 2150 
Q 2250 2675 2250 2950 
L 2250 4050 
L 1700 4050 
Q 975 4050 425 4025 
L 425 4500 
Q 950 4475 1700 4475 
L 2975 4475 
Q 2925 4675 2700 5125 
Q 2950 5150 3225 5275 
z
M 2200 1575 
Q 2650 975 3250 600 
Q 3850 1000 4275 1575 
L 2200 1575 
z
M 4850 3750 
Q 5375 3275 5950 2675 
Q 5750 2525 5500 2300 
Q 5075 2800 4450 3400 
Q 4675 3575 4850 3750 
z
M 1825 3500 
Q 1700 3375 1425 3025 
Q 1150 2675 825 2300 
Q 575 2475 375 2600 
Q 975 3150 1300 3825 
Q 1525 3650 1825 3500 
z
" transform="scale(0.015625)"/>
     <path id="SimHei-8d1f" d="M 2900 5000 
Q 2575 4600 2500 4475 
L 4800 4475 
Q 4200 3500 4025 3200 
L 5450 3200 
Q 5425 2850 5425 1975 
Q 5425 1100 5450 725 
L 4925 725 
L 4925 2800 
L 1825 2800 
L 1825 650 
L 1300 650 
Q 1325 1050 1325 1925 
Q 1325 2800 1300 3150 
Q 950 2900 750 2725 
Q 525 2975 300 3125 
Q 625 3275 1062 3612 
Q 1500 3950 1875 4462 
Q 2250 4975 2375 5250 
Q 2625 5075 2900 5000 
z
M 3650 2150 
Q 3575 1900 3450 1337 
Q 3325 775 3050 412 
Q 2775 50 2162 -225 
Q 1550 -500 675 -675 
Q 600 -425 400 -175 
Q 1000 -125 1575 50 
Q 2150 225 2475 500 
Q 2800 775 2925 1187 
Q 3050 1600 3050 2225 
Q 3375 2175 3650 2150 
z
M 2225 4075 
Q 1800 3600 1350 3200 
L 3475 3200 
Q 3800 3725 4000 4075 
L 2225 4075 
z
M 3875 750 
Q 4350 525 4850 300 
Q 5350 75 5925 -225 
Q 5775 -425 5650 -700 
Q 5100 -400 4612 -150 
Q 4125 100 3650 300 
Q 3850 600 3875 750 
z
" transform="scale(0.015625)"/>
     <path id="SimHei-8f7d" d="M 2875 -275 
Q 3150 -150 3525 137 
Q 3900 425 4225 875 
Q 4050 1300 3912 1937 
Q 3775 2575 3725 3400 
L 1100 3400 
Q 675 3400 250 3375 
L 250 3800 
Q 675 3775 1700 3775 
L 1700 4225 
Q 900 4225 600 4200 
L 600 4625 
Q 900 4600 1700 4600 
Q 1700 4950 1675 5225 
L 2200 5225 
Q 2175 5075 2175 4600 
L 2575 4600 
Q 2975 4600 3250 4625 
L 3250 4200 
Q 2950 4225 2575 4225 
L 2175 4225 
L 2175 3775 
L 3700 3775 
Q 3675 4550 3625 5250 
Q 3950 5200 4150 5200 
Q 4100 4775 4125 3775 
L 5225 3775 
Q 5675 3775 6100 3800 
L 6100 3375 
Q 5650 3400 5225 3400 
L 4150 3400 
Q 4225 2625 4312 2100 
Q 4400 1575 4525 1350 
Q 4650 1625 4812 2050 
Q 4975 2475 5050 3000 
Q 5250 2875 5600 2775 
Q 5400 2375 5237 1925 
Q 5075 1475 4725 850 
Q 5325 -275 5462 50 
Q 5600 375 5650 600 
Q 5900 475 6125 400 
Q 5750 -600 5437 -637 
Q 5125 -675 4450 425 
Q 3925 -200 3275 -600 
Q 3125 -425 2875 -275 
z
M 2325 325 
Q 2325 -75 2350 -600 
L 1850 -600 
Q 1850 -75 1875 250 
Q 850 100 500 0 
L 325 525 
Q 600 525 1875 650 
L 1875 1250 
L 1350 1250 
Q 1025 1250 700 1175 
L 525 1650 
Q 625 1750 712 1825 
Q 800 1900 1125 2350 
Q 850 2350 450 2325 
L 450 2775 
Q 900 2750 1350 2750 
Q 1550 3100 1675 3375 
Q 1925 3275 2225 3175 
Q 2025 2950 1875 2750 
L 2425 2750 
Q 2925 2775 3350 2775 
L 3350 2325 
Q 2925 2350 2425 2350 
L 1625 2350 
Q 1525 2200 1075 1625 
L 1875 1625 
Q 1875 1825 1850 2150 
L 2350 2150 
Q 2325 1825 2325 1625 
Q 2750 1625 3275 1650 
L 3275 1225 
Q 2750 1250 2325 1250 
L 2325 725 
Q 3125 825 3350 875 
Q 3300 625 3275 450 
Q 3100 450 2325 325 
z
M 5000 5075 
Q 5500 4550 5625 4350 
Q 5400 4225 5225 4100 
Q 5100 4275 4625 4825 
Q 4800 4950 5000 5075 
z
" transform="scale(0.015625)"/>
     <path id="SimHei-ff1b" d="M 1200 850 
L 2025 850 
L 2025 -100 
Q 2000 -600 1400 -975 
L 1150 -725 
Q 1575 -500 1625 0 
L 1200 0 
L 1200 850 
z
M 1200 2425 
L 2025 2425 
L 2025 1600 
L 1200 1600 
L 1200 2425 
z
" transform="scale(0.015625)"/>
     <path id="SimHei-538b" d="M 3300 2725 
L 3300 3475 
Q 3300 3875 3275 4150 
L 3850 4150 
Q 3800 3950 3800 3450 
L 3800 2725 
L 4700 2725 
Q 5225 2725 5475 2750 
L 5475 2200 
Q 5225 2225 4700 2225 
L 3800 2225 
L 3800 175 
L 4900 175 
Q 5525 175 5850 200 
L 5850 -325 
Q 5525 -300 4925 -300 
L 2375 -300 
Q 1725 -300 1450 -325 
L 1450 200 
Q 1825 175 2375 175 
L 3300 175 
L 3300 2225 
L 2725 2225 
Q 2075 2225 1850 2200 
L 1850 2750 
Q 2250 2725 2725 2725 
L 3300 2725 
z
M 4900 4950 
Q 5450 4950 5750 4975 
L 5750 4475 
Q 5500 4500 4900 4500 
L 1450 4500 
L 1450 2275 
Q 1450 1425 1262 725 
Q 1075 25 725 -650 
Q 525 -450 200 -325 
Q 625 300 775 862 
Q 925 1425 950 2125 
L 950 4000 
Q 925 4525 900 4950 
L 4900 4950 
z
M 4625 1850 
Q 5025 1325 5275 925 
Q 5000 775 4775 625 
Q 4525 1150 4225 1575 
Q 4450 1700 4625 1850 
z
" transform="scale(0.015625)"/>
     <path id="SimHei-8df3" d="M 2475 275 
Q 2100 200 1537 12 
Q 975 -175 450 -425 
Q 375 -150 200 125 
L 575 200 
L 575 1650 
Q 575 2000 550 2375 
L 1050 2375 
Q 1025 2050 1025 1650 
L 1025 325 
L 1450 450 
L 1450 2925 
L 575 2925 
Q 600 3450 600 3925 
Q 600 4400 575 4825 
L 2425 4825 
Q 2400 4350 2400 3850 
Q 2400 3350 2425 2925 
L 1875 2925 
L 1875 2150 
Q 2100 2150 2425 2175 
L 2425 1725 
Q 2100 1750 1875 1750 
L 1875 550 
Q 2150 625 2500 725 
Q 2475 525 2475 275 
z
M 4900 5225 
Q 4875 4875 4875 4500 
L 4875 3100 
Q 5075 3400 5225 3750 
Q 5375 4100 5450 4400 
Q 5725 4275 6025 4175 
Q 5850 4000 5687 3650 
Q 5525 3300 5300 2800 
Q 5100 2975 4875 3025 
L 4875 2475 
Q 5175 2250 5387 2050 
Q 5600 1850 5925 1600 
Q 5750 1400 5575 1150 
Q 5450 1375 4875 1925 
L 4875 225 
Q 4875 -25 5100 0 
L 5400 0 
Q 5600 0 5600 675 
Q 5875 550 6125 475 
Q 6025 -450 5575 -450 
L 4875 -450 
Q 4475 -450 4450 0 
L 4450 4450 
Q 4450 4875 4425 5225 
L 4900 5225 
z
M 4025 5075 
Q 3950 4275 3962 3425 
Q 3975 2575 3912 1850 
Q 3850 1125 3587 500 
Q 3325 -125 2675 -675 
Q 2500 -500 2225 -350 
Q 2850 100 3125 600 
Q 3400 1100 3500 1850 
Q 2900 1350 2700 1050 
Q 2550 1350 2350 1525 
Q 2700 1700 3525 2400 
L 3525 3850 
Q 3525 4675 3500 5150 
Q 3750 5100 4025 5075 
z
M 1975 3325 
L 1975 4425 
L 1025 4425 
L 1025 3325 
L 1975 3325 
z
M 3000 4275 
Q 3225 3625 3350 3050 
Q 3125 3025 2900 2875 
Q 2775 3600 2575 4125 
Q 2800 4200 3000 4275 
z
" transform="scale(0.015625)"/>
     <path id="SimHei-6c34" d="M 3450 5175 
Q 3450 4800 3437 4500 
Q 3425 4200 3487 3762 
Q 3550 3325 3950 2725 
Q 4975 3575 5175 4050 
Q 5450 3800 5675 3575 
Q 5350 3350 5037 3075 
Q 4725 2800 4175 2325 
Q 4375 1900 4900 1375 
Q 5425 850 6175 625 
Q 5750 425 5675 125 
Q 4725 700 4212 1400 
Q 3700 2100 3425 2800 
L 3425 25 
Q 3450 -325 3162 -475 
Q 2875 -625 2400 -675 
Q 2375 -400 2175 -75 
Q 2575 -150 2750 -100 
Q 2925 -50 2925 225 
L 2925 4175 
Q 2925 4800 2875 5175 
L 3450 5175 
z
M 2550 3575 
Q 2425 2900 2237 2362 
Q 2050 1825 1737 1300 
Q 1425 775 750 100 
Q 575 325 225 450 
Q 925 950 1337 1600 
Q 1750 2250 1950 3125 
L 1275 3125 
Q 900 3125 425 3075 
L 425 3600 
Q 875 3575 1250 3575 
L 2550 3575 
z
" transform="scale(0.015625)"/>
     <path id="SimHei-56de" d="M 5650 4850 
Q 5625 4125 5625 3450 
L 5625 950 
Q 5625 300 5650 -375 
L 5150 -375 
L 5150 100 
L 1175 100 
L 1175 -375 
L 700 -375 
Q 725 250 725 950 
L 725 3450 
Q 725 4100 700 4850 
L 5650 4850 
z
M 5150 500 
L 5150 4425 
L 1200 4425 
L 1200 500 
L 5150 500 
z
M 4325 3500 
Q 4300 3125 4300 2750 
L 4300 2175 
Q 4300 1850 4325 1400 
L 2025 1400 
Q 2050 1850 2050 2175 
L 2050 2800 
Q 2050 3150 2025 3500 
L 4325 3500 
z
M 3825 1825 
L 3825 3100 
L 2500 3100 
L 2500 1825 
L 3825 1825 
z
" transform="scale(0.015625)"/>
     <path id="SimHei-5347" d="M 3600 4600 
Q 3275 4550 2650 4300 
Q 2650 3650 2625 2825 
L 4100 2825 
L 4100 4275 
Q 4100 4775 4075 5100 
L 4650 5100 
Q 4625 4775 4625 4275 
L 4625 2825 
Q 5675 2825 6175 2850 
L 6175 2350 
Q 5725 2375 4625 2375 
L 4625 450 
Q 4625 50 4650 -500 
L 4075 -500 
Q 4100 25 4100 450 
L 4100 2375 
L 2625 2375 
Q 2550 1500 2050 812 
Q 1550 125 700 -450 
Q 575 -225 225 -50 
Q 800 200 1412 887 
Q 2025 1575 2075 2375 
L 875 2375 
Q 575 2375 225 2350 
L 225 2850 
Q 575 2825 875 2825 
L 2100 2825 
Q 2125 3325 2125 4150 
Q 1250 3925 950 3825 
Q 850 4100 600 4300 
Q 1050 4350 1812 4575 
Q 2575 4800 3125 5125 
L 3600 4600 
z
" transform="scale(0.015625)"/>
     <path id="SimHei-ff09" d="M 1000 5100 
Q 2500 3875 2500 2500 
Q 2550 825 1025 -275 
L 750 50 
Q 2075 1025 2100 2350 
Q 2150 3725 725 4775 
L 1000 5100 
z
" transform="scale(0.015625)"/>
    </defs>
    <use xlink:href="#SimHei-32"/>
    <use xlink:href="#SimHei-2d" transform="translate(50 0)"/>
    <use xlink:href="#SimHei-52" transform="translate(100 0)"/>
    <use xlink:href="#SimHei-43" transform="translate(150 0)"/>
    <use xlink:href="#SimHei-20" transform="translate(200 0)"/>
    <use xlink:href="#SimHei-7b49" transform="translate(250 0)"/>
    <use xlink:href="#SimHei-6548" transform="translate(350 0)"/>
    <use xlink:href="#SimHei-7535" transform="translate(450 0)"/>
    <use xlink:href="#SimHei-8def" transform="translate(550 0)"/>
    <use xlink:href="#SimHei-ff08" transform="translate(650 0)"/>
    <use xlink:href="#SimHei-49" transform="translate(750 0)"/>
    <use xlink:href="#SimHei-28" transform="translate(800 0)"/>
    <use xlink:href="#SimHei-74" transform="translate(850 0)"/>
    <use xlink:href="#SimHei-29" transform="translate(900 0)"/>
    <use xlink:href="#SimHei-20" transform="translate(950 0)"/>
    <use xlink:href="#SimHei-9636" transform="translate(1000 0)"/>
    <use xlink:href="#SimHei-8dc3" transform="translate(1100 0)"/>
    <use xlink:href="#SimHei-ff0c" transform="translate(1200 0)"/>
    <use xlink:href="#SimHei-53d8" transform="translate(1300 0)"/>
    <use xlink:href="#SimHei-8d1f" transform="translate(1400 0)"/>
    <use xlink:href="#SimHei-8f7d" transform="translate(1500 0)"/>
    <use xlink:href="#SimHei-ff1b" transform="translate(1600 0)"/>
    <use xlink:href="#SimHei-30" transform="translate(1700 0)"/>
    <use xlink:href="#SimHei-2e" transform="translate(1750 0)"/>
    <use xlink:href="#SimHei-32" transform="translate(1800 0)"/>
    <use xlink:href="#SimHei-68" transform="translate(1850 0)"/>
    <use xlink:href="#SimHei-20" transform="translate(1900 0)"/>
    <use xlink:href="#SimHei-7535" transform="translate(1950 0)"/>
    <use xlink:href="#SimHei-538b" transform="translate(2050 0)"/>
    <use xlink:href="#SimHei-8df3" transform="translate(2150 0)"/>
    <use xlink:href="#SimHei-6c34" transform="translate(2250 0)"/>
    <use xlink:href="#SimHei-ff0c" transform="translate(2350 0)"/>
    <use xlink:href="#SimHei-30" transform="translate(2450 0)"/>
    <use xlink:href="#SimHei-2e" transform="translate(2500 0)"/>
    <use xlink:href="#SimHei-35" transform="translate(2550 0)"/>
    <use xlink:href="#SimHei-68" transform="translate(2600 0)"/>
    <use xlink:href="#SimHei-20" transform="translate(2650 0)"/>
    <use xlink:href="#SimHei-7535" transform="translate(2700 0)"/>
    <use xlink:href="#SimHei-538b" transform="translate(2800 0)"/>
    <use xlink:href="#SimHei-56de" transform="translate(2900 0)"/>
    <use xlink:href="#SimHei-5347" transform="translate(3000 0)"/>
    <use xlink:href="#SimHei-ff09" transform="translate(3100 0)"/>
   </g>
  </g>
 </g>
 <defs>
  <clipPath id="p996579728b">
   <rect x="61.265" y="50.04375" width="503.935" height="104.108044"/>
  </clipPath>
  <clipPath id="p17b4703be6">
   <rect x="61.265" y="169.045353" width="503.935" height="104.108044"/>
  </clipPath>
  <clipPath id="p4e1a28a3ba">
   <rect x="61.265" y="288.046956" width="503.935" height="104.108044"/>
  </clipPath>
 </defs>
</svg>
