<?xml version="1.0" encoding="utf-8" standalone="no"?>
<!DOCTYPE svg PUBLIC "-//W3C//DTD SVG 1.1//EN"
  "http://www.w3.org/Graphics/SVG/1.1/DTD/svg11.dtd">
<svg xmlns:xlink="http://www.w3.org/1999/xlink" width="576pt" height="360pt" viewBox="0 0 576 360" xmlns="http://www.w3.org/2000/svg" version="1.1">
 <metadata>
  <rdf:RDF xmlns:dc="http://purl.org/dc/elements/1.1/" xmlns:cc="http://creativecommons.org/ns#" xmlns:rdf="http://www.w3.org/1999/02/22-rdf-syntax-ns#">
   <cc:Work>
    <dc:type rdf:resource="http://purl.org/dc/dcmitype/StillImage"/>
    <dc:date>2026-01-30T11:36:48.288897</dc:date>
    <dc:format>image/svg+xml</dc:format>
    <dc:creator>
     <cc:Agent>
      <dc:title>Matplotlib v3.10.8, https://matplotlib.org/</dc:title>
     </cc:Agent>
    </dc:creator>
   </cc:Work>
  </rdf:RDF>
 </metadata>
 <defs>
  <style type="text/css">*{stroke-linejoin: round; stroke-linecap: butt}</style>
 </defs>
 <g id="figure_1">
  <g id="patch_1">
   <path d="M 0 360 
L 576 360 
L 576 0 
L 0 0 
z
" style="fill: #ffffff"/>
  </g>
  <g id="axes_1">
   <g id="patch_2">
    <path d="M 56.225 169.864375 
L 565.2 169.864375 
L 565.2 33.87375 
L 56.225 33.87375 
z
" style="fill: #ffffff"/>
   </g>
   <g id="matplotlib.axis_1">
    <g id="xtick_1">
     <g id="line2d_1">
      <path d="M 79.360227 169.864375 
L 79.360227 33.87375 
" clip-path="url(#p9300ccac90)" style="fill: none; stroke: #b0b0b0; stroke-opacity: 0.3; stroke-width: 0.8; stroke-linecap: square"/>
     </g>
     <g id="line2d_2">
      <defs>
       <path id="m259896838d" d="M 0 0 
L 0 3.5 
" style="stroke: #000000; stroke-width: 0.8"/>
      </defs>
      <g>
       <use xlink:href="#m259896838d" x="79.360227" y="169.864375" style="stroke: #000000; stroke-width: 0.8"/>
      </g>
     </g>
    </g>
    <g id="xtick_2">
     <g id="line2d_3">
      <path d="M 171.901136 169.864375 
L 171.901136 33.87375 
" clip-path="url(#p9300ccac90)" style="fill: none; stroke: #b0b0b0; stroke-opacity: 0.3; stroke-width: 0.8; stroke-linecap: square"/>
     </g>
     <g id="line2d_4">
      <g>
       <use xlink:href="#m259896838d" x="171.901136" y="169.864375" style="stroke: #000000; stroke-width: 0.8"/>
      </g>
     </g>
    </g>
    <g id="xtick_3">
     <g id="line2d_5">
      <path d="M 264.442045 169.864375 
L 264.442045 33.87375 
" clip-path="url(#p9300ccac90)" style="fill: none; stroke: #b0b0b0; stroke-opacity: 0.3; stroke-width: 0.8; stroke-linecap: square"/>
     </g>
     <g id="line2d_6">
      <g>
       <use xlink:href="#m259896838d" x="264.442045" y="169.864375" style="stroke: #000000; stroke-width: 0.8"/>
      </g>
     </g>
    </g>
    <g id="xtick_4">
     <g id="line2d_7">
      <path d="M 356.982955 169.864375 
L 356.982955 33.87375 
" clip-path="url(#p9300ccac90)" style="fill: none; stroke: #b0b0b0; stroke-opacity: 0.3; stroke-width: 0.8; stroke-linecap: square"/>
     </g>
     <g id="line2d_8">
      <g>
       <use xlink:href="#m259896838d" x="356.982955" y="169.864375" style="stroke: #000000; stroke-width: 0.8"/>
      </g>
     </g>
    </g>
    <g id="xtick_5">
     <g id="line2d_9">
      <path d="M 449.523864 169.864375 
L 449.523864 33.87375 
" clip-path="url(#p9300ccac90)" style="fill: none; stroke: #b0b0b0; stroke-opacity: 0.3; stroke-width: 0.8; stroke-linecap: square"/>
     </g>
     <g id="line2d_10">
      <g>
       <use xlink:href="#m259896838d" x="449.523864" y="169.864375" style="stroke: #000000; stroke-width: 0.8"/>
      </g>
     </g>
    </g>
    <g id="xtick_6">
     <g id="line2d_11">
      <path d="M 542.064773 169.864375 
L 542.064773 33.87375 
" clip-path="url(#p9300ccac90)" style="fill: none; stroke: #b0b0b0; stroke-opacity: 0.3; stroke-width: 0.8; stroke-linecap: square"/>
     </g>
     <g id="line2d_12">
      <g>
       <use xlink:href="#m259896838d" x="542.064773" y="169.864375" style="stroke: #000000; stroke-width: 0.8"/>
      </g>
     </g>
    </g>
   </g>
   <g id="matplotlib.axis_2">
    <g id="ytick_1">
     <g id="line2d_13">
      <path d="M 56.225 156.239236 
L 565.2 156.239236 
" clip-path="url(#p9300ccac90)" style="fill: none; stroke: #b0b0b0; stroke-opacity: 0.3; stroke-width: 0.8; stroke-linecap: square"/>
     </g>
     <g id="line2d_14">
      <defs>
       <path id="mcdc226e399" d="M 0 0 
L -3.5 0 
" style="stroke: #000000; stroke-width: 0.8"/>
      </defs>
      <g>
       <use xlink:href="#mcdc226e399" x="56.225" y="156.239236" style="stroke: #000000; stroke-width: 0.8"/>
      </g>
     </g>
     <g id="text_1">
      <!-- 3.9 -->
      <g transform="translate(34.225 159.676736) scale(0.1 -0.1)">
       <defs>
        <path id="SimHei-33" d="M 250 1225 
L 700 1300 
Q 800 975 1025 762 
Q 1250 550 1587 562 
Q 1925 575 2125 837 
Q 2325 1100 2300 1437 
Q 2275 1775 2037 1962 
Q 1800 2150 1275 2225 
L 1275 2550 
Q 1800 2600 2037 2825 
Q 2275 3050 2250 3412 
Q 2225 3775 1925 3937 
Q 1625 4100 1287 3975 
Q 950 3850 750 3275 
L 300 3350 
Q 450 3800 712 4100 
Q 975 4400 1425 4450 
Q 1875 4500 2212 4337 
Q 2550 4175 2687 3837 
Q 2825 3500 2725 3100 
Q 2625 2700 2150 2400 
Q 2500 2250 2687 1950 
Q 2875 1650 2812 1162 
Q 2750 675 2375 375 
Q 2000 75 1525 87 
Q 1050 100 700 387 
Q 350 675 250 1225 
z
" transform="scale(0.015625)"/>
        <path id="SimHei-2e" d="M 1075 125 
L 500 125 
L 500 675 
L 1075 675 
L 1075 125 
z
" transform="scale(0.015625)"/>
        <path id="SimHei-39" d="M 800 75 
Q 1350 1000 1700 1750 
Q 1075 1650 662 1912 
Q 250 2175 162 2625 
Q 75 3075 175 3437 
Q 275 3800 487 4037 
Q 700 4275 1000 4375 
Q 1300 4475 1537 4475 
Q 1775 4475 2025 4375 
Q 2275 4275 2475 4075 
Q 2675 3875 2750 3662 
Q 2825 3450 2825 3112 
Q 2825 2775 2575 2250 
Q 2325 1725 1350 75 
L 800 75 
z
M 662 2875 
Q 700 2550 937 2337 
Q 1175 2125 1450 2150 
Q 1725 2175 1887 2300 
Q 2050 2425 2200 2725 
Q 2300 3100 2250 3362 
Q 2200 3625 1987 3800 
Q 1775 3975 1525 3975 
Q 1375 4000 1137 3900 
Q 900 3800 762 3500 
Q 625 3200 662 2875 
z
" transform="scale(0.015625)"/>
       </defs>
       <use xlink:href="#SimHei-33"/>
       <use xlink:href="#SimHei-2e" transform="translate(50 0)"/>
       <use xlink:href="#SimHei-39" transform="translate(100 0)"/>
      </g>
     </g>
    </g>
    <g id="ytick_2">
     <g id="line2d_15">
      <path d="M 56.225 117.511205 
L 565.2 117.511205 
" clip-path="url(#p9300ccac90)" style="fill: none; stroke: #b0b0b0; stroke-opacity: 0.3; stroke-width: 0.8; stroke-linecap: square"/>
     </g>
     <g id="line2d_16">
      <g>
       <use xlink:href="#mcdc226e399" x="56.225" y="117.511205" style="stroke: #000000; stroke-width: 0.8"/>
      </g>
     </g>
     <g id="text_2">
      <!-- 4.0 -->
      <g transform="translate(34.225 120.948705) scale(0.1 -0.1)">
       <defs>
        <path id="SimHei-34" d="M 2000 1100 
L 75 1100 
L 75 1525 
L 2100 4450 
L 2475 4450 
L 2475 1525 
L 3075 1525 
L 3075 1100 
L 2475 1100 
L 2475 150 
L 2000 150 
L 2000 1100 
z
M 2000 1525 
L 2000 3500 
L 600 1525 
L 2000 1525 
z
" transform="scale(0.015625)"/>
        <path id="SimHei-30" d="M 225 2537 
Q 250 3200 412 3587 
Q 575 3975 875 4225 
Q 1175 4475 1612 4475 
Q 2050 4475 2375 4112 
Q 2700 3750 2800 3200 
Q 2900 2650 2862 1937 
Q 2825 1225 2612 775 
Q 2400 325 1975 150 
Q 1550 -25 1125 187 
Q 700 400 525 750 
Q 350 1100 275 1487 
Q 200 1875 225 2537 
z
M 750 2687 
Q 675 2000 800 1462 
Q 925 925 1212 700 
Q 1500 475 1800 612 
Q 2100 750 2237 1162 
Q 2375 1575 2375 2062 
Q 2375 2550 2337 2950 
Q 2300 3350 2112 3675 
Q 1925 4000 1612 4012 
Q 1300 4025 1062 3700 
Q 825 3375 750 2687 
z
" transform="scale(0.015625)"/>
       </defs>
       <use xlink:href="#SimHei-34"/>
       <use xlink:href="#SimHei-2e" transform="translate(50 0)"/>
       <use xlink:href="#SimHei-30" transform="translate(100 0)"/>
      </g>
     </g>
    </g>
    <g id="ytick_3">
     <g id="line2d_17">
      <path d="M 56.225 78.783173 
L 565.2 78.783173 
" clip-path="url(#p9300ccac90)" style="fill: none; stroke: #b0b0b0; stroke-opacity: 0.3; stroke-width: 0.8; stroke-linecap: square"/>
     </g>
     <g id="line2d_18">
      <g>
       <use xlink:href="#mcdc226e399" x="56.225" y="78.783173" style="stroke: #000000; stroke-width: 0.8"/>
      </g>
     </g>
     <g id="text_3">
      <!-- 4.1 -->
      <g transform="translate(34.225 82.220673) scale(0.1 -0.1)">
       <defs>
        <path id="SimHei-31" d="M 1400 3600 
Q 1075 3275 575 2975 
L 575 3450 
Q 1200 3875 1600 4450 
L 1900 4450 
L 1900 150 
L 1400 150 
L 1400 3600 
z
" transform="scale(0.015625)"/>
       </defs>
       <use xlink:href="#SimHei-34"/>
       <use xlink:href="#SimHei-2e" transform="translate(50 0)"/>
       <use xlink:href="#SimHei-31" transform="translate(100 0)"/>
      </g>
     </g>
    </g>
    <g id="ytick_4">
     <g id="line2d_19">
      <path d="M 56.225 40.055142 
L 565.2 40.055142 
" clip-path="url(#p9300ccac90)" style="fill: none; stroke: #b0b0b0; stroke-opacity: 0.3; stroke-width: 0.8; stroke-linecap: square"/>
     </g>
     <g id="line2d_20">
      <g>
       <use xlink:href="#mcdc226e399" x="56.225" y="40.055142" style="stroke: #000000; stroke-width: 0.8"/>
      </g>
     </g>
     <g id="text_4">
      <!-- 4.2 -->
      <g transform="translate(34.225 43.492642) scale(0.1 -0.1)">
       <defs>
        <path id="SimHei-32" d="M 300 250 
Q 325 625 650 925 
Q 975 1225 1475 1862 
Q 1975 2500 2125 2850 
Q 2275 3200 2237 3450 
Q 2200 3700 2000 3862 
Q 1800 4025 1537 4000 
Q 1275 3975 1037 3800 
Q 800 3625 675 3275 
L 200 3350 
Q 400 3925 712 4187 
Q 1025 4450 1450 4475 
Q 1700 4500 1900 4462 
Q 2100 4425 2312 4287 
Q 2525 4150 2662 3875 
Q 2800 3600 2762 3212 
Q 2725 2825 2375 2287 
Q 2025 1750 1025 600 
L 2825 600 
L 2825 150 
L 300 150 
L 300 250 
z
" transform="scale(0.015625)"/>
       </defs>
       <use xlink:href="#SimHei-34"/>
       <use xlink:href="#SimHei-2e" transform="translate(50 0)"/>
       <use xlink:href="#SimHei-32" transform="translate(100 0)"/>
      </g>
     </g>
    </g>
    <g id="text_5">
     <!-- Voltage [V] -->
     <g transform="translate(28.975 129.369062) rotate(-90) scale(0.1 -0.1)">
      <defs>
       <path id="SimHei-56" d="M 3050 4400 
L 1800 75 
L 1300 75 
L 50 4400 
L 650 4400 
L 1525 1125 
L 1575 1125 
L 2450 4400 
L 3050 4400 
z
" transform="scale(0.015625)"/>
       <path id="SimHei-6f" d="M 2925 1525 
Q 2925 875 2525 475 
Q 2125 75 1575 75 
Q 1025 75 625 475 
Q 225 875 225 1525 
Q 225 2175 625 2575 
Q 1025 2975 1575 2975 
Q 2125 2975 2525 2575 
Q 2925 2175 2925 1525 
z
M 2375 1525 
Q 2375 2025 2125 2275 
Q 1875 2525 1575 2525 
Q 1275 2525 1025 2275 
Q 775 2025 775 1525 
Q 775 1025 1025 775 
Q 1275 525 1575 525 
Q 1875 525 2125 775 
Q 2375 1025 2375 1525 
z
" transform="scale(0.015625)"/>
       <path id="SimHei-6c" d="M 1825 125 
L 1325 125 
L 1325 4400 
L 1825 4400 
L 1825 125 
z
" transform="scale(0.015625)"/>
       <path id="SimHei-74" d="M 2750 200 
Q 2625 150 2462 112 
Q 2300 75 2025 75 
Q 1575 75 1300 325 
Q 1025 575 1025 1025 
L 1025 2525 
L 175 2525 
L 175 2925 
L 1025 2925 
L 1025 3900 
L 1525 3900 
L 1525 2925 
L 2550 2925 
L 2550 2525 
L 1525 2525 
L 1525 1000 
Q 1525 800 1625 662 
Q 1725 525 2000 525 
Q 2275 525 2450 575 
Q 2625 625 2750 700 
L 2750 200 
z
" transform="scale(0.015625)"/>
       <path id="SimHei-61" d="M 2875 125 
L 2275 125 
Q 2225 175 2200 262 
Q 2175 350 2175 475 
Q 2000 275 1750 175 
Q 1500 75 1225 75 
Q 825 75 550 275 
Q 275 475 275 850 
Q 275 1225 525 1450 
Q 775 1675 1300 1750 
Q 1650 1800 1912 1875 
Q 2175 1950 2175 2075 
Q 2175 2225 2062 2375 
Q 1950 2525 1575 2525 
Q 1275 2525 1137 2412 
Q 1000 2300 950 2100 
L 400 2100 
Q 450 2500 762 2737 
Q 1075 2975 1575 2975 
Q 2125 2975 2400 2725 
Q 2675 2475 2675 2025 
L 2675 650 
Q 2675 500 2725 375 
Q 2775 250 2875 125 
z
M 2175 1050 
L 2175 1550 
Q 2025 1500 1887 1462 
Q 1750 1425 1425 1375 
Q 1050 1325 937 1200 
Q 825 1075 825 900 
Q 825 750 937 637 
Q 1050 525 1275 525 
Q 1500 525 1762 650 
Q 2025 775 2175 1050 
z
" transform="scale(0.015625)"/>
       <path id="SimHei-67" d="M 2975 2500 
Q 2800 2550 2637 2562 
Q 2475 2575 2300 2525 
Q 2375 2450 2425 2337 
Q 2475 2225 2475 2000 
Q 2475 1575 2187 1300 
Q 1900 1025 1475 1025 
Q 1375 1025 1212 1062 
Q 1050 1100 950 1150 
Q 875 1100 850 1050 
Q 825 1000 825 925 
Q 825 800 1000 737 
Q 1175 675 1625 675 
Q 2350 675 2612 475 
Q 2875 275 2875 -25 
Q 2875 -425 2487 -612 
Q 2100 -800 1575 -800 
Q 900 -800 575 -625 
Q 250 -450 250 -150 
Q 250 0 375 150 
Q 500 300 700 400 
Q 550 475 462 587 
Q 375 700 375 875 
Q 375 1025 487 1137 
Q 600 1250 750 1325 
Q 625 1450 550 1625 
Q 475 1800 475 2000 
Q 475 2425 762 2700 
Q 1050 2975 1475 2975 
Q 1700 2975 1862 2912 
Q 2025 2850 2150 2725 
Q 2350 2875 2550 2937 
Q 2750 3000 2975 2975 
L 2975 2500 
z
M 1975 2000 
Q 1975 2250 1850 2400 
Q 1725 2550 1475 2550 
Q 1225 2550 1100 2400 
Q 975 2250 975 2000 
Q 975 1750 1100 1600 
Q 1225 1450 1475 1450 
Q 1725 1450 1850 1600 
Q 1975 1750 1975 2000 
z
M 2400 -75 
Q 2400 25 2287 125 
Q 2175 225 1725 225 
Q 1625 225 1450 237 
Q 1275 250 1050 275 
Q 850 200 775 100 
Q 700 0 700 -100 
Q 700 -250 900 -350 
Q 1100 -450 1600 -450 
Q 2025 -450 2212 -337 
Q 2400 -225 2400 -75 
z
" transform="scale(0.015625)"/>
       <path id="SimHei-65" d="M 2850 1075 
Q 2800 625 2450 350 
Q 2100 75 1625 75 
Q 1025 75 637 462 
Q 250 850 250 1525 
Q 250 2200 637 2587 
Q 1025 2975 1625 2975 
Q 2150 2975 2487 2637 
Q 2825 2300 2825 1525 
L 800 1525 
Q 800 975 1037 750 
Q 1275 525 1625 525 
Q 1900 525 2075 662 
Q 2250 800 2300 1075 
L 2850 1075 
z
M 2250 1925 
Q 2200 2275 2025 2412 
Q 1850 2550 1575 2550 
Q 1325 2550 1125 2412 
Q 925 2275 825 1925 
L 2250 1925 
z
" transform="scale(0.015625)"/>
       <path id="SimHei-20" transform="scale(0.015625)"/>
       <path id="SimHei-5b" d="M 2825 -525 
L 1250 -525 
L 1250 5050 
L 2825 5050 
L 2825 4650 
L 1675 4650 
L 1675 -125 
L 2825 -125 
L 2825 -525 
z
" transform="scale(0.015625)"/>
       <path id="SimHei-5d" d="M 1875 -525 
L 300 -525 
L 300 -125 
L 1450 -125 
L 1450 4650 
L 300 4650 
L 300 5050 
L 1875 5050 
L 1875 -525 
z
" transform="scale(0.015625)"/>
      </defs>
      <use xlink:href="#SimHei-56"/>
      <use xlink:href="#SimHei-6f" transform="translate(50 0)"/>
      <use xlink:href="#SimHei-6c" transform="translate(100 0)"/>
      <use xlink:href="#SimHei-74" transform="translate(150 0)"/>
      <use xlink:href="#SimHei-61" transform="translate(200 0)"/>
      <use xlink:href="#SimHei-67" transform="translate(250 0)"/>
      <use xlink:href="#SimHei-65" transform="translate(300 0)"/>
      <use xlink:href="#SimHei-20" transform="translate(350 0)"/>
      <use xlink:href="#SimHei-5b" transform="translate(400 0)"/>
      <use xlink:href="#SimHei-56" transform="translate(450 0)"/>
      <use xlink:href="#SimHei-5d" transform="translate(500 0)"/>
     </g>
    </g>
   </g>
   <g id="line2d_21">
    <path d="M 79.360227 40.055142 
L 79.874343 57.692119 
L 80.38846 67.939864 
L 80.902576 74.367866 
L 81.545221 79.552829 
L 82.187866 82.982294 
L 82.830511 85.382681 
L 83.601686 87.413569 
L 84.37286 88.841494 
L 85.272563 90.0144 
L 86.172266 90.8423 
L 87.329028 91.59218 
L 88.742847 92.237557 
L 90.799312 92.91534 
L 94.526654 93.864824 
L 104.937506 96.203328 
L 125.630682 100.63517 
L 147.480619 105.085506 
L 170.487317 109.542195 
L 194.779306 114.019517 
L 220.613643 118.552811 
L 248.247386 123.173019 
L 277.937595 127.908054 
L 309.941326 132.784103 
L 344.901225 137.881851 
L 383.202879 143.238342 
L 425.488933 148.924032 
L 472.530562 155.020758 
L 524.713352 161.555676 
L 542.064773 163.682983 
L 542.064773 163.682983 
" clip-path="url(#p9300ccac90)" style="fill: none; stroke: #0000ff; stroke-width: 1.5; stroke-linecap: square"/>
   </g>
   <g id="patch_3">
    <path d="M 56.225 169.864375 
L 56.225 33.87375 
" style="fill: none; stroke: #000000; stroke-width: 0.8; stroke-linejoin: miter; stroke-linecap: square"/>
   </g>
   <g id="patch_4">
    <path d="M 565.2 169.864375 
L 565.2 33.87375 
" style="fill: none; stroke: #000000; stroke-width: 0.8; stroke-linejoin: miter; stroke-linecap: square"/>
   </g>
   <g id="patch_5">
    <path d="M 56.225 169.864375 
L 565.2 169.864375 
" style="fill: none; stroke: #000000; stroke-width: 0.8; stroke-linejoin: miter; stroke-linecap: square"/>
   </g>
   <g id="patch_6">
    <path d="M 56.225 33.87375 
L 565.2 33.87375 
" style="fill: none; stroke: #000000; stroke-width: 0.8; stroke-linejoin: miter; stroke-linecap: square"/>
   </g>
   <g id="legend_1">
    <g id="patch_7">
     <path d="M 496.2 55.201875 
L 558.2 55.201875 
Q 560.2 55.201875 560.2 53.201875 
L 560.2 40.87375 
Q 560.2 38.87375 558.2 38.87375 
L 496.2 38.87375 
Q 494.2 38.87375 494.2 40.87375 
L 494.2 53.201875 
Q 494.2 55.201875 496.2 55.201875 
z
" style="fill: #ffffff; opacity: 0.8; stroke: #cccccc; stroke-linejoin: miter"/>
    </g>
    <g id="line2d_22">
     <path d="M 498.2 46.37375 
L 508.2 46.37375 
L 518.2 46.37375 
" style="fill: none; stroke: #0000ff; stroke-width: 1.5; stroke-linecap: square"/>
    </g>
    <g id="text_6">
     <!-- V_cell -->
     <g transform="translate(526.2 49.87375) scale(0.1 -0.1)">
      <defs>
       <path id="SimHei-5f" d="M 3150 -850 
L 0 -850 
L 0 -550 
L 3150 -550 
L 3150 -850 
z
" transform="scale(0.015625)"/>
       <path id="SimHei-63" d="M 2850 1250 
Q 2850 725 2487 400 
Q 2125 75 1575 75 
Q 1025 75 625 462 
Q 225 850 225 1525 
Q 225 2200 625 2587 
Q 1025 2975 1575 2975 
Q 2125 2975 2450 2687 
Q 2775 2400 2775 2000 
L 2225 2000 
Q 2200 2300 2012 2412 
Q 1825 2525 1575 2525 
Q 1275 2525 1025 2287 
Q 775 2050 775 1525 
Q 775 1000 1025 762 
Q 1275 525 1575 525 
Q 1900 525 2100 700 
Q 2300 875 2300 1250 
L 2850 1250 
z
" transform="scale(0.015625)"/>
      </defs>
      <use xlink:href="#SimHei-56"/>
      <use xlink:href="#SimHei-5f" transform="translate(50 0)"/>
      <use xlink:href="#SimHei-63" transform="translate(100 0)"/>
      <use xlink:href="#SimHei-65" transform="translate(150 0)"/>
      <use xlink:href="#SimHei-6c" transform="translate(200 0)"/>
      <use xlink:href="#SimHei-6c" transform="translate(250 0)"/>
     </g>
    </g>
   </g>
  </g>
  <g id="axes_2">
   <g id="patch_8">
    <path d="M 56.225 320.155 
L 565.2 320.155 
L 565.2 184.164375 
L 56.225 184.164375 
z
" style="fill: #ffffff"/>
   </g>
   <g id="matplotlib.axis_3">
    <g id="xtick_7">
     <g id="line2d_23">
      <path d="M 79.360227 320.155 
L 79.360227 184.164375 
" clip-path="url(#pa98cabf9db)" style="fill: none; stroke: #b0b0b0; stroke-opacity: 0.3; stroke-width: 0.8; stroke-linecap: square"/>
     </g>
     <g id="line2d_24">
      <g>
       <use xlink:href="#m259896838d" x="79.360227" y="320.155" style="stroke: #000000; stroke-width: 0.8"/>
      </g>
     </g>
     <g id="text_7">
      <!-- 0.0 -->
      <g transform="translate(71.860227 334.03) scale(0.1 -0.1)">
       <use xlink:href="#SimHei-30"/>
       <use xlink:href="#SimHei-2e" transform="translate(50 0)"/>
       <use xlink:href="#SimHei-30" transform="translate(100 0)"/>
      </g>
     </g>
    </g>
    <g id="xtick_8">
     <g id="line2d_25">
      <path d="M 171.901136 320.155 
L 171.901136 184.164375 
" clip-path="url(#pa98cabf9db)" style="fill: none; stroke: #b0b0b0; stroke-opacity: 0.3; stroke-width: 0.8; stroke-linecap: square"/>
     </g>
     <g id="line2d_26">
      <g>
       <use xlink:href="#m259896838d" x="171.901136" y="320.155" style="stroke: #000000; stroke-width: 0.8"/>
      </g>
     </g>
     <g id="text_8">
      <!-- 0.2 -->
      <g transform="translate(164.401136 334.03) scale(0.1 -0.1)">
       <use xlink:href="#SimHei-30"/>
       <use xlink:href="#SimHei-2e" transform="translate(50 0)"/>
       <use xlink:href="#SimHei-32" transform="translate(100 0)"/>
      </g>
     </g>
    </g>
    <g id="xtick_9">
     <g id="line2d_27">
      <path d="M 264.442045 320.155 
L 264.442045 184.164375 
" clip-path="url(#pa98cabf9db)" style="fill: none; stroke: #b0b0b0; stroke-opacity: 0.3; stroke-width: 0.8; stroke-linecap: square"/>
     </g>
     <g id="line2d_28">
      <g>
       <use xlink:href="#m259896838d" x="264.442045" y="320.155" style="stroke: #000000; stroke-width: 0.8"/>
      </g>
     </g>
     <g id="text_9">
      <!-- 0.4 -->
      <g transform="translate(256.942045 334.03) scale(0.1 -0.1)">
       <use xlink:href="#SimHei-30"/>
       <use xlink:href="#SimHei-2e" transform="translate(50 0)"/>
       <use xlink:href="#SimHei-34" transform="translate(100 0)"/>
      </g>
     </g>
    </g>
    <g id="xtick_10">
     <g id="line2d_29">
      <path d="M 356.982955 320.155 
L 356.982955 184.164375 
" clip-path="url(#pa98cabf9db)" style="fill: none; stroke: #b0b0b0; stroke-opacity: 0.3; stroke-width: 0.8; stroke-linecap: square"/>
     </g>
     <g id="line2d_30">
      <g>
       <use xlink:href="#m259896838d" x="356.982955" y="320.155" style="stroke: #000000; stroke-width: 0.8"/>
      </g>
     </g>
     <g id="text_10">
      <!-- 0.6 -->
      <g transform="translate(349.482955 334.03) scale(0.1 -0.1)">
       <defs>
        <path id="SimHei-36" d="M 250 1612 
Q 275 1975 387 2225 
Q 500 2475 725 2850 
L 1750 4450 
L 2325 4450 
L 1275 2800 
Q 1950 2975 2350 2750 
Q 2750 2525 2887 2237 
Q 3025 1950 3037 1612 
Q 3050 1275 2937 950 
Q 2825 625 2537 362 
Q 2250 100 1737 75 
Q 1225 50 862 262 
Q 500 475 362 862 
Q 225 1250 250 1612 
z
M 1025 787 
Q 1250 550 1625 525 
Q 2000 500 2250 775 
Q 2500 1050 2500 1575 
Q 2500 2100 2187 2300 
Q 1875 2500 1487 2450 
Q 1100 2400 925 2075 
Q 750 1750 775 1387 
Q 800 1025 1025 787 
z
" transform="scale(0.015625)"/>
       </defs>
       <use xlink:href="#SimHei-30"/>
       <use xlink:href="#SimHei-2e" transform="translate(50 0)"/>
       <use xlink:href="#SimHei-36" transform="translate(100 0)"/>
      </g>
     </g>
    </g>
    <g id="xtick_11">
     <g id="line2d_31">
      <path d="M 449.523864 320.155 
L 449.523864 184.164375 
" clip-path="url(#pa98cabf9db)" style="fill: none; stroke: #b0b0b0; stroke-opacity: 0.3; stroke-width: 0.8; stroke-linecap: square"/>
     </g>
     <g id="line2d_32">
      <g>
       <use xlink:href="#m259896838d" x="449.523864" y="320.155" style="stroke: #000000; stroke-width: 0.8"/>
      </g>
     </g>
     <g id="text_11">
      <!-- 0.8 -->
      <g transform="translate(442.023864 334.03) scale(0.1 -0.1)">
       <defs>
        <path id="SimHei-38" d="M 175 1375 
Q 175 1675 325 1962 
Q 475 2250 825 2425 
Q 525 2600 425 2812 
Q 325 3025 312 3300 
Q 300 3575 387 3775 
Q 475 3975 650 4150 
Q 825 4325 1037 4387 
Q 1250 4450 1500 4450 
Q 1750 4450 1950 4400 
Q 2150 4350 2375 4187 
Q 2600 4025 2700 3725 
Q 2800 3425 2687 3025 
Q 2575 2625 2100 2400 
Q 2525 2275 2700 2012 
Q 2875 1750 2875 1375 
Q 2875 1000 2762 775 
Q 2650 550 2512 400 
Q 2375 250 2137 162 
Q 1900 75 1537 75 
Q 1175 75 912 162 
Q 650 250 475 425 
Q 300 600 237 837 
Q 175 1075 175 1375 
z
M 687 1400 
Q 675 1100 787 875 
Q 900 650 1200 587 
Q 1500 525 1825 600 
Q 2150 675 2275 950 
Q 2400 1225 2362 1500 
Q 2325 1775 2050 1962 
Q 1775 2150 1450 2125 
Q 1125 2100 912 1900 
Q 700 1700 687 1400 
z
M 775 3350 
Q 775 3100 950 2875 
Q 1125 2650 1500 2650 
Q 1875 2650 2062 2875 
Q 2250 3100 2237 3412 
Q 2225 3725 2012 3875 
Q 1800 4025 1437 4000 
Q 1075 3975 925 3787 
Q 775 3600 775 3350 
z
" transform="scale(0.015625)"/>
       </defs>
       <use xlink:href="#SimHei-30"/>
       <use xlink:href="#SimHei-2e" transform="translate(50 0)"/>
       <use xlink:href="#SimHei-38" transform="translate(100 0)"/>
      </g>
     </g>
    </g>
    <g id="xtick_12">
     <g id="line2d_33">
      <path d="M 542.064773 320.155 
L 542.064773 184.164375 
" clip-path="url(#pa98cabf9db)" style="fill: none; stroke: #b0b0b0; stroke-opacity: 0.3; stroke-width: 0.8; stroke-linecap: square"/>
     </g>
     <g id="line2d_34">
      <g>
       <use xlink:href="#m259896838d" x="542.064773" y="320.155" style="stroke: #000000; stroke-width: 0.8"/>
      </g>
     </g>
     <g id="text_12">
      <!-- 1.0 -->
      <g transform="translate(534.564773 334.03) scale(0.1 -0.1)">
       <use xlink:href="#SimHei-31"/>
       <use xlink:href="#SimHei-2e" transform="translate(50 0)"/>
       <use xlink:href="#SimHei-30" transform="translate(100 0)"/>
      </g>
     </g>
    </g>
    <g id="text_13">
     <!-- Time [h] -->
     <g transform="translate(290.7125 346.740937) scale(0.1 -0.1)">
      <defs>
       <path id="SimHei-54" d="M 2850 3925 
L 1850 3925 
L 1850 125 
L 1275 125 
L 1275 3925 
L 275 3925 
L 275 4400 
L 2850 4400 
L 2850 3925 
z
" transform="scale(0.015625)"/>
       <path id="SimHei-69" d="M 1800 3725 
L 1300 3725 
L 1300 4375 
L 1800 4375 
L 1800 3725 
z
M 1800 125 
L 1300 125 
L 1300 2925 
L 1800 2925 
L 1800 125 
z
" transform="scale(0.015625)"/>
       <path id="SimHei-6d" d="M 3050 125 
L 2550 125 
L 2550 2150 
Q 2550 2300 2500 2400 
Q 2450 2500 2300 2500 
Q 2125 2500 1975 2312 
Q 1825 2125 1825 1825 
L 1825 125 
L 1325 125 
L 1325 2150 
Q 1325 2300 1275 2400 
Q 1225 2500 1075 2500 
Q 900 2500 750 2312 
Q 600 2125 600 1825 
L 600 125 
L 100 125 
L 100 2925 
L 600 2925 
L 600 2550 
Q 725 2750 900 2862 
Q 1075 2975 1275 2975 
Q 1475 2975 1612 2862 
Q 1750 2750 1800 2550 
Q 1925 2750 2087 2862 
Q 2250 2975 2450 2975 
Q 2750 2975 2900 2812 
Q 3050 2650 3050 2350 
L 3050 125 
z
" transform="scale(0.015625)"/>
       <path id="SimHei-68" d="M 2800 125 
L 2300 125 
L 2300 1925 
Q 2300 2225 2150 2400 
Q 2000 2575 1750 2575 
Q 1425 2575 1137 2237 
Q 850 1900 850 1400 
L 850 125 
L 350 125 
L 350 4400 
L 850 4400 
L 850 2400 
Q 1050 2675 1287 2825 
Q 1525 2975 1900 2975 
Q 2350 2975 2575 2725 
Q 2800 2475 2800 2100 
L 2800 125 
z
" transform="scale(0.015625)"/>
      </defs>
      <use xlink:href="#SimHei-54"/>
      <use xlink:href="#SimHei-69" transform="translate(50 0)"/>
      <use xlink:href="#SimHei-6d" transform="translate(100 0)"/>
      <use xlink:href="#SimHei-65" transform="translate(150 0)"/>
      <use xlink:href="#SimHei-20" transform="translate(200 0)"/>
      <use xlink:href="#SimHei-5b" transform="translate(250 0)"/>
      <use xlink:href="#SimHei-68" transform="translate(300 0)"/>
      <use xlink:href="#SimHei-5d" transform="translate(350 0)"/>
     </g>
    </g>
   </g>
   <g id="matplotlib.axis_4">
    <g id="ytick_5">
     <g id="line2d_35">
      <path d="M 56.225 306.246868 
L 565.2 306.246868 
" clip-path="url(#pa98cabf9db)" style="fill: none; stroke: #b0b0b0; stroke-opacity: 0.3; stroke-width: 0.8; stroke-linecap: square"/>
     </g>
     <g id="line2d_36">
      <g>
       <use xlink:href="#mcdc226e399" x="56.225" y="306.246868" style="stroke: #000000; stroke-width: 0.8"/>
      </g>
     </g>
     <g id="text_14">
      <!-- 0.875 -->
      <g transform="translate(24.225 309.684368) scale(0.1 -0.1)">
       <defs>
        <path id="SimHei-37" d="M 850 150 
Q 1300 2050 2425 3925 
L 275 3925 
L 275 4375 
L 2950 4375 
L 2950 3950 
Q 1775 2050 1400 150 
L 850 150 
z
" transform="scale(0.015625)"/>
        <path id="SimHei-35" d="M 550 1325 
Q 725 650 1150 575 
Q 1575 500 1837 662 
Q 2100 825 2212 1087 
Q 2325 1350 2312 1675 
Q 2300 2000 2137 2225 
Q 1975 2450 1725 2525 
Q 1475 2600 1162 2525 
Q 850 2450 650 2175 
L 225 2225 
Q 275 2375 700 4375 
L 2675 4375 
L 2675 3925 
L 1075 3925 
Q 950 3250 825 2850 
Q 1200 3025 1525 3012 
Q 1850 3000 2150 2862 
Q 2450 2725 2587 2487 
Q 2725 2250 2787 2012 
Q 2850 1775 2837 1500 
Q 2825 1225 2725 937 
Q 2625 650 2425 462 
Q 2225 275 1937 162 
Q 1650 50 1275 75 
Q 900 100 562 350 
Q 225 600 100 1200 
L 550 1325 
z
" transform="scale(0.015625)"/>
       </defs>
       <use xlink:href="#SimHei-30"/>
       <use xlink:href="#SimHei-2e" transform="translate(50 0)"/>
       <use xlink:href="#SimHei-38" transform="translate(100 0)"/>
       <use xlink:href="#SimHei-37" transform="translate(150 0)"/>
       <use xlink:href="#SimHei-35" transform="translate(200 0)"/>
      </g>
     </g>
    </g>
    <g id="ytick_6">
     <g id="line2d_37">
      <path d="M 56.225 283.066648 
L 565.2 283.066648 
" clip-path="url(#pa98cabf9db)" style="fill: none; stroke: #b0b0b0; stroke-opacity: 0.3; stroke-width: 0.8; stroke-linecap: square"/>
     </g>
     <g id="line2d_38">
      <g>
       <use xlink:href="#mcdc226e399" x="56.225" y="283.066648" style="stroke: #000000; stroke-width: 0.8"/>
      </g>
     </g>
     <g id="text_15">
      <!-- 0.900 -->
      <g transform="translate(24.225 286.504148) scale(0.1 -0.1)">
       <use xlink:href="#SimHei-30"/>
       <use xlink:href="#SimHei-2e" transform="translate(50 0)"/>
       <use xlink:href="#SimHei-39" transform="translate(100 0)"/>
       <use xlink:href="#SimHei-30" transform="translate(150 0)"/>
       <use xlink:href="#SimHei-30" transform="translate(200 0)"/>
      </g>
     </g>
    </g>
    <g id="ytick_7">
     <g id="line2d_39">
      <path d="M 56.225 259.886428 
L 565.2 259.886428 
" clip-path="url(#pa98cabf9db)" style="fill: none; stroke: #b0b0b0; stroke-opacity: 0.3; stroke-width: 0.8; stroke-linecap: square"/>
     </g>
     <g id="line2d_40">
      <g>
       <use xlink:href="#mcdc226e399" x="56.225" y="259.886428" style="stroke: #000000; stroke-width: 0.8"/>
      </g>
     </g>
     <g id="text_16">
      <!-- 0.925 -->
      <g transform="translate(24.225 263.323928) scale(0.1 -0.1)">
       <use xlink:href="#SimHei-30"/>
       <use xlink:href="#SimHei-2e" transform="translate(50 0)"/>
       <use xlink:href="#SimHei-39" transform="translate(100 0)"/>
       <use xlink:href="#SimHei-32" transform="translate(150 0)"/>
       <use xlink:href="#SimHei-35" transform="translate(200 0)"/>
      </g>
     </g>
    </g>
    <g id="ytick_8">
     <g id="line2d_41">
      <path d="M 56.225 236.706207 
L 565.2 236.706207 
" clip-path="url(#pa98cabf9db)" style="fill: none; stroke: #b0b0b0; stroke-opacity: 0.3; stroke-width: 0.8; stroke-linecap: square"/>
     </g>
     <g id="line2d_42">
      <g>
       <use xlink:href="#mcdc226e399" x="56.225" y="236.706207" style="stroke: #000000; stroke-width: 0.8"/>
      </g>
     </g>
     <g id="text_17">
      <!-- 0.950 -->
      <g transform="translate(24.225 240.143707) scale(0.1 -0.1)">
       <use xlink:href="#SimHei-30"/>
       <use xlink:href="#SimHei-2e" transform="translate(50 0)"/>
       <use xlink:href="#SimHei-39" transform="translate(100 0)"/>
       <use xlink:href="#SimHei-35" transform="translate(150 0)"/>
       <use xlink:href="#SimHei-30" transform="translate(200 0)"/>
      </g>
     </g>
    </g>
    <g id="ytick_9">
     <g id="line2d_43">
      <path d="M 56.225 213.525987 
L 565.2 213.525987 
" clip-path="url(#pa98cabf9db)" style="fill: none; stroke: #b0b0b0; stroke-opacity: 0.3; stroke-width: 0.8; stroke-linecap: square"/>
     </g>
     <g id="line2d_44">
      <g>
       <use xlink:href="#mcdc226e399" x="56.225" y="213.525987" style="stroke: #000000; stroke-width: 0.8"/>
      </g>
     </g>
     <g id="text_18">
      <!-- 0.975 -->
      <g transform="translate(24.225 216.963487) scale(0.1 -0.1)">
       <use xlink:href="#SimHei-30"/>
       <use xlink:href="#SimHei-2e" transform="translate(50 0)"/>
       <use xlink:href="#SimHei-39" transform="translate(100 0)"/>
       <use xlink:href="#SimHei-37" transform="translate(150 0)"/>
       <use xlink:href="#SimHei-35" transform="translate(200 0)"/>
      </g>
     </g>
    </g>
    <g id="ytick_10">
     <g id="line2d_45">
      <path d="M 56.225 190.345767 
L 565.2 190.345767 
" clip-path="url(#pa98cabf9db)" style="fill: none; stroke: #b0b0b0; stroke-opacity: 0.3; stroke-width: 0.8; stroke-linecap: square"/>
     </g>
     <g id="line2d_46">
      <g>
       <use xlink:href="#mcdc226e399" x="56.225" y="190.345767" style="stroke: #000000; stroke-width: 0.8"/>
      </g>
     </g>
     <g id="text_19">
      <!-- 1.000 -->
      <g transform="translate(24.225 193.783267) scale(0.1 -0.1)">
       <use xlink:href="#SimHei-31"/>
       <use xlink:href="#SimHei-2e" transform="translate(50 0)"/>
       <use xlink:href="#SimHei-30" transform="translate(100 0)"/>
       <use xlink:href="#SimHei-30" transform="translate(150 0)"/>
       <use xlink:href="#SimHei-30" transform="translate(200 0)"/>
      </g>
     </g>
    </g>
    <g id="text_20">
     <!-- SOC [-] -->
     <g transform="translate(18.975 269.659688) rotate(-90) scale(0.1 -0.1)">
      <defs>
       <path id="SimHei-53" d="M 2900 1325 
Q 2900 750 2537 412 
Q 2175 75 1550 75 
Q 925 75 575 425 
Q 225 775 225 1300 
L 225 1475 
L 800 1475 
L 800 1325 
Q 800 950 1025 750 
Q 1250 550 1550 550 
Q 1950 550 2137 762 
Q 2325 975 2325 1275 
Q 2325 1525 2100 1737 
Q 1875 1950 1450 2125 
Q 850 2350 587 2625 
Q 325 2900 325 3275 
Q 325 3800 687 4125 
Q 1050 4450 1550 4450 
Q 2200 4450 2487 4062 
Q 2775 3675 2775 3225 
L 2200 3225 
Q 2225 3500 2050 3725 
Q 1875 3950 1550 3950 
Q 1250 3950 1075 3787 
Q 900 3625 900 3350 
Q 900 3125 1037 2962 
Q 1175 2800 1750 2575 
Q 2300 2350 2600 2037 
Q 2900 1725 2900 1325 
z
" transform="scale(0.015625)"/>
       <path id="SimHei-4f" d="M 2950 2275 
Q 2950 1100 2587 587 
Q 2225 75 1575 75 
Q 925 75 550 587 
Q 175 1100 175 2275 
Q 175 3450 550 3950 
Q 925 4450 1575 4450 
Q 2225 4450 2587 3950 
Q 2950 3450 2950 2275 
z
M 2350 2275 
Q 2350 3325 2125 3650 
Q 1900 3975 1575 3975 
Q 1250 3975 1012 3650 
Q 775 3325 775 2275 
Q 775 1225 1012 887 
Q 1250 550 1575 550 
Q 1900 550 2125 887 
Q 2350 1225 2350 2275 
z
" transform="scale(0.015625)"/>
       <path id="SimHei-43" d="M 2975 1825 
Q 2950 875 2575 475 
Q 2200 75 1675 75 
Q 1075 75 650 562 
Q 225 1050 225 2125 
Q 225 3300 637 3875 
Q 1050 4450 1700 4450 
Q 2250 4450 2612 4037 
Q 2975 3625 2950 2875 
L 2400 2875 
Q 2400 3425 2225 3700 
Q 2050 3975 1700 3975 
Q 1300 3975 1062 3562 
Q 825 3150 825 2175 
Q 825 1275 1062 912 
Q 1300 550 1675 550 
Q 1950 550 2175 812 
Q 2400 1075 2400 1825 
L 2975 1825 
z
" transform="scale(0.015625)"/>
       <path id="SimHei-2d" d="M 2975 2125 
L 125 2125 
L 125 2525 
L 2975 2525 
L 2975 2125 
z
" transform="scale(0.015625)"/>
      </defs>
      <use xlink:href="#SimHei-53"/>
      <use xlink:href="#SimHei-4f" transform="translate(50 0)"/>
      <use xlink:href="#SimHei-43" transform="translate(100 0)"/>
      <use xlink:href="#SimHei-20" transform="translate(150 0)"/>
      <use xlink:href="#SimHei-5b" transform="translate(200 0)"/>
      <use xlink:href="#SimHei-2d" transform="translate(250 0)"/>
      <use xlink:href="#SimHei-5d" transform="translate(300 0)"/>
     </g>
    </g>
   </g>
   <g id="line2d_47">
    <path d="M 79.360227 190.345767 
L 542.064773 313.973608 
L 542.064773 313.973608 
" clip-path="url(#pa98cabf9db)" style="fill: none; stroke: #008000; stroke-width: 1.5; stroke-linecap: square"/>
   </g>
   <g id="patch_9">
    <path d="M 56.225 320.155 
L 56.225 184.164375 
" style="fill: none; stroke: #000000; stroke-width: 0.8; stroke-linejoin: miter; stroke-linecap: square"/>
   </g>
   <g id="patch_10">
    <path d="M 565.2 320.155 
L 565.2 184.164375 
" style="fill: none; stroke: #000000; stroke-width: 0.8; stroke-linejoin: miter; stroke-linecap: square"/>
   </g>
   <g id="patch_11">
    <path d="M 56.225 320.155 
L 565.2 320.155 
" style="fill: none; stroke: #000000; stroke-width: 0.8; stroke-linejoin: miter; stroke-linecap: square"/>
   </g>
   <g id="patch_12">
    <path d="M 56.225 184.164375 
L 565.2 184.164375 
" style="fill: none; stroke: #000000; stroke-width: 0.8; stroke-linejoin: miter; stroke-linecap: square"/>
   </g>
   <g id="legend_2">
    <g id="patch_13">
     <path d="M 511.2 205.414375 
L 558.2 205.414375 
Q 560.2 205.414375 560.2 203.414375 
L 560.2 191.164375 
Q 560.2 189.164375 558.2 189.164375 
L 511.2 189.164375 
Q 509.2 189.164375 509.2 191.164375 
L 509.2 203.414375 
Q 509.2 205.414375 511.2 205.414375 
z
" style="fill: #ffffff; opacity: 0.8; stroke: #cccccc; stroke-linejoin: miter"/>
    </g>
    <g id="line2d_48">
     <path d="M 513.2 196.664375 
L 523.2 196.664375 
L 533.2 196.664375 
" style="fill: none; stroke: #008000; stroke-width: 1.5; stroke-linecap: square"/>
    </g>
    <g id="text_21">
     <!-- SOC -->
     <g transform="translate(541.2 200.164375) scale(0.1 -0.1)">
      <use xlink:href="#SimHei-53"/>
      <use xlink:href="#SimHei-4f" transform="translate(50 0)"/>
      <use xlink:href="#SimHei-43" transform="translate(100 0)"/>
     </g>
    </g>
   </g>
  </g>
  <g id="text_22">
   <!-- 2-RC 等效电路 （I=const，不考虑温度/磁滞效应） -->
   <g transform="translate(150 17.1375) scale(0.12 -0.12)">
    <defs>
     <path id="SimHei-52" d="M 3000 125 
L 2400 125 
L 1500 1975 
L 850 1975 
L 850 125 
L 275 125 
L 275 4400 
L 1525 4400 
Q 2125 4400 2500 4112 
Q 2875 3825 2875 3175 
Q 2875 2675 2625 2400 
Q 2375 2125 2050 2050 
L 3000 125 
z
M 2300 3175 
Q 2300 3525 2087 3725 
Q 1875 3925 1400 3925 
L 850 3925 
L 850 2450 
L 1550 2450 
Q 1850 2450 2075 2612 
Q 2300 2775 2300 3175 
z
" transform="scale(0.015625)"/>
     <path id="SimHei-7b49" d="M 2925 3450 
Q 2925 3625 2900 3950 
L 3450 3950 
Q 3425 3625 3425 3450 
L 4475 3450 
Q 4850 3450 5350 3475 
L 5350 3050 
Q 4875 3075 4500 3075 
L 3425 3075 
L 3425 2400 
L 5225 2400 
Q 5625 2400 6125 2425 
L 6125 1975 
Q 5650 2000 5225 2000 
L 4700 2000 
L 4700 1350 
Q 5325 1350 5750 1375 
L 5750 925 
Q 5250 950 4700 950 
L 4700 125 
Q 4725 -325 4437 -437 
Q 4150 -550 3550 -625 
Q 3500 -325 3350 -75 
Q 3775 -100 3975 -75 
Q 4175 -50 4175 275 
L 4175 950 
L 1550 950 
Q 1225 950 700 925 
L 700 1375 
Q 1200 1350 1650 1350 
L 4175 1350 
L 4175 2000 
L 1075 2000 
Q 750 2000 200 1975 
L 200 2425 
Q 750 2400 1075 2400 
L 2925 2400 
L 2925 3075 
L 1925 3075 
Q 1575 3075 1050 3050 
L 1050 3475 
Q 1725 3450 1925 3450 
L 2925 3450 
z
M 1825 5100 
Q 1675 5000 1500 4725 
L 2400 4725 
Q 2925 4725 3275 4750 
L 3275 4350 
Q 3000 4375 2575 4375 
L 2275 4375 
Q 2400 4175 2575 3850 
Q 2275 3750 2025 3675 
Q 2025 3725 1775 4375 
L 1325 4375 
Q 1125 4075 750 3625 
Q 525 3800 275 3900 
Q 625 4175 850 4525 
Q 1075 4875 1250 5300 
Q 1550 5175 1825 5100 
z
M 3700 3875 
Q 3500 4000 3225 4075 
Q 3475 4275 3650 4575 
Q 3825 4875 3975 5250 
Q 4250 5150 4550 5050 
Q 4350 4875 4250 4700 
L 5275 4700 
Q 5450 4700 6125 4725 
L 6125 4325 
Q 5650 4350 5200 4350 
Q 5475 3900 5600 3725 
Q 5250 3650 5025 3575 
Q 4975 3800 4700 4350 
L 4050 4350 
Q 3925 4150 3700 3875 
z
M 2575 75 
Q 2350 -50 2125 -200 
Q 1900 225 1525 625 
Q 1700 725 1925 900 
Q 2300 500 2575 75 
z
" transform="scale(0.015625)"/>
     <path id="SimHei-6548" d="M 3500 2400 
Q 3400 2675 3200 2900 
Q 3500 3350 3750 4025 
Q 4000 4700 4100 5300 
Q 4400 5150 4750 5075 
Q 4625 4950 4500 4687 
Q 4375 4425 4225 4025 
Q 5800 4025 6150 4050 
L 6150 3625 
Q 5850 3650 5475 3650 
Q 5450 2925 5300 2137 
Q 5150 1350 4825 800 
Q 4900 575 5312 275 
Q 5725 -25 6175 -175 
Q 5875 -350 5775 -650 
Q 5350 -425 5050 -162 
Q 4750 100 4500 425 
Q 4175 125 3837 -112 
Q 3500 -350 2850 -700 
Q 2725 -425 2425 -250 
Q 2750 -200 3325 137 
Q 3900 475 4200 800 
Q 4000 1225 3887 1675 
Q 3775 2125 3675 2700 
L 3500 2400 
z
M 1100 2225 
Q 1525 1875 1925 1575 
Q 2125 1900 2200 2400 
Q 2450 2275 2700 2200 
Q 2475 1625 2300 1250 
L 3000 550 
Q 2775 375 2575 175 
Q 2400 450 2025 825 
Q 1825 600 1550 312 
Q 1275 25 700 -425 
Q 500 -175 250 -25 
Q 575 125 950 400 
Q 1325 675 1675 1175 
Q 1325 1475 850 1875 
L 1100 2225 
z
M 4075 2950 
Q 4100 2700 4212 2187 
Q 4325 1675 4525 1225 
Q 4775 1700 4887 2475 
Q 5000 3250 4975 3650 
L 4100 3650 
Q 3900 3125 3725 2850 
Q 3900 2850 4075 2950 
z
M 2500 4200 
Q 2875 4200 3175 4225 
L 3175 3800 
Q 2875 3825 2525 3825 
L 1000 3825 
Q 600 3825 275 3800 
L 275 4225 
Q 600 4200 1000 4200 
L 2500 4200 
z
M 1125 3650 
Q 1400 3500 1625 3325 
Q 1525 3250 1300 2900 
Q 1050 2525 675 2000 
Q 450 2150 225 2275 
Q 550 2575 787 2975 
Q 1025 3375 1125 3650 
z
M 2475 3625 
Q 2625 3400 2850 3100 
Q 3075 2800 3250 2575 
Q 3025 2450 2825 2275 
Q 2325 3000 2075 3325 
Q 2275 3425 2475 3625 
z
M 1825 5250 
Q 2025 4875 2175 4475 
Q 1950 4375 1700 4275 
Q 1550 4650 1350 5075 
Q 1575 5150 1825 5250 
z
" transform="scale(0.015625)"/>
     <path id="SimHei-7535" d="M 6150 325 
Q 5975 -250 5825 -412 
Q 5675 -575 5325 -575 
L 3375 -575 
Q 2700 -600 2675 100 
L 2675 975 
L 1225 975 
L 1225 500 
L 650 500 
Q 675 750 675 2225 
Q 675 3700 650 4150 
L 2675 4150 
Q 2675 4825 2650 5200 
L 3200 5200 
Q 3175 4875 3175 4150 
L 5200 4150 
Q 5175 3775 5175 2600 
Q 5175 1450 5200 975 
L 3175 975 
L 3175 300 
Q 3175 -150 3650 -150 
L 4975 -150 
Q 5375 -150 5450 25 
Q 5525 200 5575 575 
Q 5825 400 6150 325 
z
M 4675 1400 
L 4675 2400 
L 3175 2400 
L 3175 1400 
L 4675 1400 
z
M 2675 1400 
L 2675 2400 
L 1225 2400 
L 1225 1400 
L 2675 1400 
z
M 4675 2800 
L 4675 3725 
L 3175 3725 
L 3175 2800 
L 4675 2800 
z
M 2675 2800 
L 2675 3725 
L 1225 3725 
L 1225 2800 
L 2675 2800 
z
" transform="scale(0.015625)"/>
     <path id="SimHei-8def" d="M 2900 425 
Q 1225 -75 475 -350 
Q 425 -150 275 125 
Q 525 150 700 225 
L 700 1800 
Q 700 2000 675 2325 
L 1150 2325 
Q 1125 2100 1125 1675 
L 1125 325 
Q 1300 375 1550 450 
L 1550 2975 
L 725 2975 
Q 750 3225 750 3850 
Q 750 4500 725 4750 
L 2650 4750 
Q 2625 4475 2625 3850 
Q 2625 3250 2650 2975 
L 1975 2975 
L 1975 2075 
Q 2275 2075 2600 2100 
L 2600 1650 
Q 2275 1675 1975 1675 
L 1975 550 
Q 2200 600 2900 875 
Q 2875 675 2900 425 
z
M 4225 5025 
Q 4075 4850 3925 4550 
L 5750 4550 
Q 5575 4125 5287 3650 
Q 5000 3175 4750 2850 
Q 5325 2400 6200 2200 
Q 6000 1950 5900 1750 
Q 5600 1875 5200 2087 
Q 4800 2300 4475 2550 
Q 4150 2300 3762 2100 
Q 3375 1900 2925 1700 
Q 2825 1925 2650 2125 
Q 2975 2200 3400 2375 
Q 3825 2550 4150 2825 
Q 3900 3075 3425 3650 
Q 3250 3350 3100 3150 
Q 2950 3300 2725 3425 
Q 3000 3675 3275 4187 
Q 3550 4700 3700 5225 
Q 3975 5050 4225 5025 
z
M 5525 1800 
Q 5500 1475 5500 650 
Q 5500 -150 5525 -525 
L 5050 -525 
L 5050 -50 
L 3625 -50 
L 3625 -550 
L 3175 -550 
Q 3200 -125 3200 650 
Q 3200 1450 3175 1800 
L 5525 1800 
z
M 5050 325 
L 5050 1400 
L 3625 1400 
L 3625 325 
L 5050 325 
z
M 2200 3350 
L 2200 4375 
L 1175 4375 
L 1175 3350 
L 2200 3350 
z
M 3650 4000 
Q 3950 3550 4425 3125 
Q 4575 3275 4775 3612 
Q 4975 3950 5075 4175 
L 3750 4175 
L 3650 4000 
z
" transform="scale(0.015625)"/>
     <path id="SimHei-ff08" d="M 5425 5100 
L 5700 4775 
Q 4275 3725 4325 2350 
Q 4350 1025 5675 50 
L 5400 -275 
Q 3875 825 3925 2500 
Q 3925 3875 5425 5100 
z
" transform="scale(0.015625)"/>
     <path id="SimHei-49" d="M 1850 125 
L 1275 125 
L 1275 4400 
L 1850 4400 
L 1850 125 
z
" transform="scale(0.015625)"/>
     <path id="SimHei-3d" d="M 2975 2900 
L 125 2900 
L 125 3300 
L 2975 3300 
L 2975 2900 
z
M 2975 1375 
L 125 1375 
L 125 1775 
L 2975 1775 
L 2975 1375 
z
" transform="scale(0.015625)"/>
     <path id="SimHei-6e" d="M 2800 125 
L 2300 125 
L 2300 1925 
Q 2300 2225 2150 2400 
Q 2000 2575 1750 2575 
Q 1425 2575 1137 2237 
Q 850 1900 850 1400 
L 850 125 
L 350 125 
L 350 2925 
L 850 2925 
L 850 2400 
Q 1050 2675 1287 2825 
Q 1525 2975 1900 2975 
Q 2350 2975 2575 2725 
Q 2800 2475 2800 2100 
L 2800 125 
z
" transform="scale(0.015625)"/>
     <path id="SimHei-73" d="M 2750 900 
Q 2750 500 2437 287 
Q 2125 75 1650 75 
Q 1050 75 725 312 
Q 400 550 400 1000 
L 900 1000 
Q 900 700 1112 600 
Q 1325 500 1625 500 
Q 1925 500 2075 612 
Q 2225 725 2225 900 
Q 2225 1025 2100 1150 
Q 1975 1275 1475 1350 
Q 900 1425 687 1637 
Q 475 1850 475 2200 
Q 475 2500 762 2737 
Q 1050 2975 1600 2975 
Q 2100 2975 2387 2750 
Q 2675 2525 2675 2150 
L 2175 2150 
Q 2175 2375 2012 2462 
Q 1850 2550 1600 2550 
Q 1275 2550 1137 2437 
Q 1000 2325 1000 2175 
Q 1000 2000 1125 1900 
Q 1250 1800 1650 1750 
Q 2300 1650 2525 1437 
Q 2750 1225 2750 900 
z
" transform="scale(0.015625)"/>
     <path id="SimHei-ff0c" d="M 875 950 
L 1775 950 
L 1775 -50 
Q 1700 -675 1150 -975 
L 900 -750 
Q 1350 -500 1350 0 
L 875 0 
L 875 950 
z
" transform="scale(0.015625)"/>
     <path id="SimHei-4e0d" d="M 5975 4450 
Q 5525 4475 5200 4475 
L 3725 4475 
Q 3550 4125 3300 3700 
L 3300 575 
Q 3300 75 3325 -550 
L 2775 -550 
Q 2800 50 2800 575 
L 2800 3025 
Q 2025 1950 700 1050 
Q 500 1350 325 1475 
Q 825 1700 1650 2437 
Q 2475 3175 3175 4475 
L 1525 4475 
Q 1050 4475 525 4450 
L 525 4950 
Q 1275 4925 1675 4925 
L 5175 4925 
Q 5500 4925 5975 4950 
L 5975 4450 
z
M 5450 1125 
Q 4975 1725 3750 2975 
Q 3950 3150 4075 3325 
Q 4675 2775 5100 2362 
Q 5525 1950 5900 1550 
Q 5650 1350 5450 1125 
z
" transform="scale(0.015625)"/>
     <path id="SimHei-8003" d="M 5175 1300 
Q 5125 1000 5012 425 
Q 4900 -150 4775 -300 
Q 4650 -450 4250 -525 
Q 3850 -600 3150 -650 
Q 3125 -325 2975 -100 
Q 4300 -150 4412 75 
Q 4525 300 4600 900 
L 3225 900 
Q 2700 900 2375 800 
Q 2325 1025 2200 1225 
Q 2375 1250 2500 1412 
Q 2625 1575 2775 1900 
L 2275 1900 
Q 2000 1750 1562 1550 
Q 1125 1350 550 1125 
Q 475 1325 250 1550 
Q 825 1700 1600 2037 
Q 2375 2375 3125 2950 
L 1425 2950 
Q 1100 2950 450 2925 
L 450 3375 
Q 1100 3350 1425 3350 
L 2725 3350 
L 2725 4150 
L 2025 4150 
Q 1800 4150 1350 4125 
L 1350 4550 
Q 1800 4525 2000 4525 
L 2725 4525 
Q 2725 5000 2700 5225 
L 3175 5225 
Q 3150 4875 3150 4525 
L 3525 4525 
Q 3700 4525 4325 4550 
L 4325 4125 
Q 3650 4150 3550 4150 
L 3150 4150 
L 3150 3350 
L 3625 3350 
Q 4100 3750 4487 4150 
Q 4875 4550 5075 4850 
Q 5275 4650 5550 4500 
Q 5375 4375 5012 4062 
Q 4650 3750 4225 3350 
L 5250 3350 
Q 5600 3350 6025 3375 
L 6025 2925 
Q 5600 2950 5250 2950 
L 3775 2950 
Q 3475 2725 2900 2300 
L 4675 2300 
Q 5075 2300 5300 2325 
L 5300 1875 
Q 5075 1900 4700 1900 
L 3250 1900 
Q 3125 1625 2950 1300 
L 5175 1300 
z
" transform="scale(0.015625)"/>
     <path id="SimHei-8651" d="M 3225 5275 
Q 3200 5000 3200 4825 
L 4550 4825 
Q 4900 4825 5325 4850 
L 5325 4425 
Q 4900 4450 4550 4450 
L 3200 4450 
L 3200 3950 
L 5975 3950 
Q 5825 3550 5700 3000 
Q 5450 3075 5175 3100 
Q 5250 3350 5325 3575 
L 3300 3575 
L 3300 3050 
Q 4175 3150 4725 3225 
L 4825 2850 
Q 4350 2800 3300 2650 
L 3300 2400 
Q 3325 2150 3650 2150 
L 4500 2150 
Q 4750 2150 4862 2175 
Q 4975 2200 5075 2675 
Q 5225 2525 5575 2400 
Q 5400 1975 5237 1850 
Q 5075 1725 4675 1750 
L 3475 1750 
Q 2850 1750 2850 2225 
L 2850 2600 
Q 1850 2450 1550 2400 
L 1525 2850 
Q 1850 2850 2850 2975 
L 2850 3575 
L 1350 3575 
Q 1350 1775 1300 1287 
Q 1250 800 1112 362 
Q 975 -75 725 -600 
Q 575 -475 250 -325 
Q 475 50 650 450 
Q 825 850 862 1287 
Q 900 1725 900 2625 
Q 900 3525 875 3950 
L 2750 3950 
L 2750 4475 
Q 2750 4825 2725 5275 
L 3225 5275 
z
M 3050 1125 
Q 3025 750 3025 500 
L 3025 150 
Q 3025 -150 3350 -150 
L 4050 -150 
Q 4350 -150 4475 -87 
Q 4600 -25 4650 400 
Q 4875 175 5150 125 
Q 4975 -300 4862 -425 
Q 4750 -550 4300 -550 
L 3175 -550 
Q 2575 -550 2575 -100 
L 2575 300 
Q 2575 750 2550 1125 
L 3050 1125 
z
M 2350 1000 
Q 1900 50 1700 -325 
Q 1500 -225 1250 -75 
Q 1475 225 1875 1225 
Q 2150 1075 2350 1000 
z
M 5225 1350 
Q 5500 1050 6125 200 
Q 5900 50 5725 -75 
Q 5425 350 4875 1050 
Q 4975 1125 5225 1350 
z
M 3700 1575 
Q 4200 925 4350 675 
Q 4075 525 3925 400 
Q 3800 650 3325 1325 
Q 3500 1425 3700 1575 
z
" transform="scale(0.015625)"/>
     <path id="SimHei-6e29" d="M 5625 1925 
Q 5600 1475 5600 0 
Q 5875 0 6125 25 
L 6125 -425 
Q 5725 -400 5325 -400 
L 2275 -400 
Q 1825 -400 1400 -425 
L 1400 25 
Q 1725 0 2000 0 
Q 2000 1425 1975 1925 
L 5625 1925 
z
M 5325 2525 
L 2250 2525 
Q 2275 2950 2275 3675 
Q 2275 4400 2250 4925 
L 5325 4925 
L 5325 2525 
z
M 4875 2950 
L 4875 3500 
L 2725 3500 
L 2725 2950 
L 4875 2950 
z
M 1550 1775 
Q 1375 1300 1162 600 
Q 950 -100 800 -500 
Q 550 -275 275 -175 
Q 525 250 787 950 
Q 1050 1650 1100 2075 
Q 1300 1875 1550 1775 
z
M 4875 3925 
L 4875 4450 
L 2725 4450 
L 2725 3925 
L 4875 3925 
z
M 5150 0 
L 5150 1500 
L 4525 1500 
L 4525 0 
L 5150 0 
z
M 4075 0 
L 4075 1500 
L 3475 1500 
L 3475 0 
L 4075 0 
z
M 3075 0 
L 3075 1500 
L 2475 1500 
L 2475 0 
L 3075 0 
z
M 875 5050 
Q 1475 4600 1825 4325 
Q 1675 4100 1525 3925 
Q 1300 4200 575 4700 
Q 750 4875 875 5050 
z
M 575 3625 
Q 1000 3400 1550 2900 
Q 1350 2750 1225 2550 
Q 975 2825 325 3300 
Q 425 3400 575 3625 
z
" transform="scale(0.015625)"/>
     <path id="SimHei-5ea6" d="M 1750 1675 
Q 2450 1650 2875 1650 
L 5200 1650 
Q 4975 1250 4650 850 
Q 4325 450 4025 200 
Q 4350 50 4950 -50 
Q 5550 -150 6100 -150 
Q 5950 -300 5825 -650 
Q 5100 -550 4550 -412 
Q 4000 -275 3625 -100 
Q 3100 -325 2587 -462 
Q 2075 -600 1525 -675 
Q 1450 -475 1225 -250 
Q 1675 -250 2250 -125 
Q 2825 0 3250 200 
Q 2825 550 2400 1275 
L 1750 1250 
L 1750 1675 
z
M 2975 5075 
Q 3250 5150 3475 5250 
Q 3625 4975 3775 4525 
L 4700 4525 
Q 4975 4525 5700 4550 
L 5700 4100 
Q 5000 4125 4650 4125 
L 1375 4125 
Q 1375 3000 1350 2312 
Q 1325 1625 1212 950 
Q 1100 275 725 -525 
Q 500 -375 250 -300 
Q 650 400 762 1075 
Q 875 1750 887 2800 
Q 900 3850 875 4525 
L 3200 4525 
Q 3100 4850 2975 5075 
z
M 2475 3300 
Q 2475 3700 2450 3925 
L 2975 3925 
Q 2950 3725 2950 3300 
L 4300 3300 
Q 4300 3700 4275 3950 
L 4800 3950 
Q 4775 3650 4775 3300 
Q 5325 3300 5725 3325 
L 5725 2900 
Q 5350 2925 4775 2925 
Q 4775 2250 4800 1950 
L 2450 1950 
Q 2475 2350 2475 2925 
Q 2175 2925 1600 2900 
L 1600 3325 
Q 2175 3300 2475 3300 
z
M 4300 2350 
L 4300 2925 
L 2950 2925 
L 2950 2350 
L 4300 2350 
z
M 2875 1275 
Q 3200 775 3650 425 
Q 4025 700 4425 1275 
L 2900 1275 
L 2875 1275 
z
" transform="scale(0.015625)"/>
     <path id="SimHei-2f" d="M 3000 4550 
L 350 -175 
L 100 -25 
L 2750 4700 
L 3000 4550 
z
" transform="scale(0.015625)"/>
     <path id="SimHei-78c1" d="M 1700 4550 
Q 2150 4550 2425 4575 
L 2425 4125 
Q 2150 4150 1700 4150 
Q 1550 3425 1300 2750 
L 2325 2750 
Q 2275 2375 2275 1475 
Q 2275 600 2300 75 
L 1850 75 
L 1850 375 
L 1275 375 
L 1275 -250 
L 825 -250 
Q 875 350 875 650 
L 875 2050 
Q 775 1850 500 1525 
Q 400 1750 225 1925 
Q 500 2225 725 2637 
Q 950 3050 1062 3387 
Q 1175 3725 1225 4150 
Q 875 4150 475 4125 
L 475 4575 
Q 850 4550 1325 4550 
L 1700 4550 
z
M 3700 1250 
Q 3300 425 3000 -25 
L 3725 75 
Q 3675 400 3600 625 
Q 3800 700 4050 750 
Q 4225 25 4350 -575 
Q 3975 -600 3850 -675 
L 3800 -275 
Q 3450 -325 3150 -387 
Q 2850 -450 2650 -550 
Q 2500 -150 2425 -25 
Q 2525 25 2625 125 
Q 2725 225 2962 600 
Q 3200 975 3375 1475 
Q 2925 1425 2625 1300 
Q 2525 1600 2425 1775 
Q 2625 1900 2862 2362 
Q 3100 2825 3300 3575 
Q 3600 3375 3800 3325 
Q 3625 3075 3450 2700 
Q 3275 2325 3000 1775 
L 3525 1825 
Q 3750 2250 3875 2725 
Q 4125 2550 4325 2475 
L 3700 1250 
z
M 5175 1525 
Q 4575 1500 4400 1400 
Q 4325 1650 4225 1900 
Q 4425 2025 4587 2425 
Q 4750 2825 4900 3500 
Q 5125 3350 5425 3275 
Q 5325 3150 5200 2862 
Q 5075 2575 4775 1875 
L 5300 1925 
Q 5475 2300 5575 2650 
Q 5800 2525 6025 2425 
Q 5850 2075 5487 1250 
Q 5125 425 4950 100 
L 5500 200 
L 5350 750 
Q 5500 800 5775 875 
Q 6050 -150 6125 -450 
Q 5900 -500 5675 -575 
Q 5600 -250 5575 -175 
Q 5375 -200 5100 -262 
Q 4825 -325 4525 -450 
Q 4425 -200 4325 25 
Q 4500 75 4662 362 
Q 4825 650 5175 1525 
z
M 5575 5025 
Q 5525 4950 5387 4675 
Q 5250 4400 5100 4025 
L 5300 4025 
Q 5675 4025 6125 4050 
L 6125 3625 
Q 5675 3650 5300 3650 
L 3575 3650 
Q 3075 3650 2550 3625 
L 2550 4050 
Q 3100 4025 3575 4025 
L 4625 4025 
Q 4850 4500 5050 5225 
Q 5250 5125 5575 5025 
z
M 1850 750 
L 1850 2375 
L 1275 2375 
L 1275 750 
L 1850 750 
z
M 3950 4250 
Q 3750 4200 3525 4075 
Q 3350 4600 3150 5000 
Q 3350 5075 3550 5200 
Q 3825 4675 3950 4250 
z
" transform="scale(0.015625)"/>
     <path id="SimHei-6ede" d="M 6075 2975 
Q 6050 2750 6050 2525 
Q 6050 2300 6075 2075 
L 5525 2075 
L 5525 2575 
L 4200 2575 
L 4200 1825 
L 5575 1825 
Q 5550 1450 5550 1150 
L 5550 525 
Q 5550 125 5337 25 
Q 5125 -75 4700 -150 
Q 4675 75 4525 325 
Q 4875 300 4975 362 
Q 5075 425 5075 650 
L 5075 1425 
L 4200 1425 
L 4200 225 
Q 4200 -200 4225 -625 
L 3675 -625 
Q 3700 -200 3700 225 
L 3700 1425 
L 2875 1425 
L 2875 -100 
L 2375 -100 
L 2375 1825 
L 3700 1825 
L 3700 2575 
L 2300 2575 
L 2300 2000 
L 1750 2000 
Q 1775 2225 1775 2475 
Q 1775 2725 1750 2975 
L 6075 2975 
z
M 2500 4375 
Q 2500 4750 2475 5075 
L 3025 5075 
Q 3000 4725 3000 4375 
L 3625 4375 
L 3625 4600 
Q 3625 4875 3600 5200 
L 4100 5200 
Q 4075 4875 4075 4600 
L 4075 4375 
L 4725 4375 
Q 4725 4800 4700 5125 
L 5225 5125 
Q 5200 4675 5200 4375 
Q 5625 4375 6025 4400 
L 6025 3950 
Q 5625 3975 5200 3975 
Q 5200 3725 5225 3375 
L 4700 3375 
Q 4725 3750 4725 3975 
L 4075 3975 
Q 4075 3575 4100 3275 
L 3600 3275 
Q 3625 3575 3625 3975 
L 3000 3975 
Q 3000 3600 3025 3325 
L 2475 3325 
Q 2500 3575 2500 3975 
Q 2275 3975 1875 3950 
L 1875 4400 
Q 2250 4375 2500 4375 
z
M 275 -250 
Q 500 200 650 712 
Q 800 1225 950 1725 
Q 1175 1625 1425 1550 
Q 1325 1300 1162 762 
Q 1000 225 825 -475 
Q 625 -350 275 -250 
z
M 1225 2325 
Q 1025 2500 787 2650 
Q 550 2800 225 2950 
Q 375 3150 475 3375 
Q 675 3275 950 3100 
L 1500 2750 
Q 1350 2575 1225 2325 
z
M 1325 3875 
Q 1125 4075 925 4250 
Q 725 4425 500 4575 
L 800 4925 
Q 925 4850 1175 4650 
Q 1425 4450 1625 4250 
Q 1450 4075 1325 3875 
z
" transform="scale(0.015625)"/>
     <path id="SimHei-5e94" d="M 3525 5275 
Q 3700 4825 3850 4400 
L 4750 4400 
Q 5275 4400 5850 4425 
L 5850 3975 
Q 5275 4000 4750 4000 
L 1475 4000 
Q 1475 2525 1425 1900 
Q 1375 1275 1237 625 
Q 1100 -25 750 -625 
Q 575 -400 300 -250 
Q 625 175 800 937 
Q 975 1700 1000 2575 
Q 1025 3450 1000 4400 
L 3250 4400 
Q 3175 4750 3000 5100 
Q 3250 5150 3525 5275 
z
M 5625 3125 
Q 5375 2575 5187 2050 
Q 5000 1525 4450 225 
L 5150 225 
Q 5500 225 5925 250 
L 5925 -275 
Q 5500 -250 5150 -250 
L 2475 -250 
Q 2050 -250 1450 -275 
L 1450 250 
Q 2025 225 2475 225 
L 3950 225 
Q 4325 1000 4612 1850 
Q 4900 2700 5025 3350 
Q 5350 3175 5625 3125 
z
M 2100 2850 
Q 2750 1825 3075 1050 
Q 2900 950 2650 800 
Q 2150 1925 1700 2575 
Q 1925 2750 2100 2850 
z
M 3300 3425 
Q 3800 2550 4175 1700 
Q 3950 1575 3700 1450 
Q 3400 2300 2900 3200 
Q 3100 3275 3300 3425 
z
" transform="scale(0.015625)"/>
     <path id="SimHei-ff09" d="M 1000 5100 
Q 2500 3875 2500 2500 
Q 2550 825 1025 -275 
L 750 50 
Q 2075 1025 2100 2350 
Q 2150 3725 725 4775 
L 1000 5100 
z
" transform="scale(0.015625)"/>
    </defs>
    <use xlink:href="#SimHei-32"/>
    <use xlink:href="#SimHei-2d" transform="translate(50 0)"/>
    <use xlink:href="#SimHei-52" transform="translate(100 0)"/>
    <use xlink:href="#SimHei-43" transform="translate(150 0)"/>
    <use xlink:href="#SimHei-20" transform="translate(200 0)"/>
    <use xlink:href="#SimHei-7b49" transform="translate(250 0)"/>
    <use xlink:href="#SimHei-6548" transform="translate(350 0)"/>
    <use xlink:href="#SimHei-7535" transform="translate(450 0)"/>
    <use xlink:href="#SimHei-8def" transform="translate(550 0)"/>
    <use xlink:href="#SimHei-20" transform="translate(650 0)"/>
    <use xlink:href="#SimHei-ff08" transform="translate(700 0)"/>
    <use xlink:href="#SimHei-49" transform="translate(800 0)"/>
    <use xlink:href="#SimHei-3d" transform="translate(850 0)"/>
    <use xlink:href="#SimHei-63" transform="translate(900 0)"/>
    <use xlink:href="#SimHei-6f" transform="translate(950 0)"/>
    <use xlink:href="#SimHei-6e" transform="translate(1000 0)"/>
    <use xlink:href="#SimHei-73" transform="translate(1050 0)"/>
    <use xlink:href="#SimHei-74" transform="translate(1100 0)"/>
    <use xlink:href="#SimHei-ff0c" transform="translate(1150 0)"/>
    <use xlink:href="#SimHei-4e0d" transform="translate(1250 0)"/>
    <use xlink:href="#SimHei-8003" transform="translate(1350 0)"/>
    <use xlink:href="#SimHei-8651" transform="translate(1450 0)"/>
    <use xlink:href="#SimHei-6e29" transform="translate(1550 0)"/>
    <use xlink:href="#SimHei-5ea6" transform="translate(1650 0)"/>
    <use xlink:href="#SimHei-2f" transform="translate(1750 0)"/>
    <use xlink:href="#SimHei-78c1" transform="translate(1800 0)"/>
    <use xlink:href="#SimHei-6ede" transform="translate(1900 0)"/>
    <use xlink:href="#SimHei-6548" transform="translate(2000 0)"/>
    <use xlink:href="#SimHei-5e94" transform="translate(2100 0)"/>
    <use xlink:href="#SimHei-ff09" transform="translate(2200 0)"/>
   </g>
  </g>
 </g>
 <defs>
  <clipPath id="p9300ccac90">
   <rect x="56.225" y="33.87375" width="508.975" height="135.990625"/>
  </clipPath>
  <clipPath id="pa98cabf9db">
   <rect x="56.225" y="184.164375" width="508.975" height="135.990625"/>
  </clipPath>
 </defs>
</svg>
