<?xml version="1.0" encoding="utf-8" standalone="no"?>
<!DOCTYPE svg PUBLIC "-//W3C//DTD SVG 1.1//EN"
  "http://www.w3.org/Graphics/SVG/1.1/DTD/svg11.dtd">
<svg xmlns:xlink="http://www.w3.org/1999/xlink" width="576pt" height="576pt" viewBox="0 0 576 576" xmlns="http://www.w3.org/2000/svg" version="1.1">
 <metadata>
  <rdf:RDF xmlns:dc="http://purl.org/dc/elements/1.1/" xmlns:cc="http://creativecommons.org/ns#" xmlns:rdf="http://www.w3.org/1999/02/22-rdf-syntax-ns#">
   <cc:Work>
    <dc:type rdf:resource="http://purl.org/dc/dcmitype/StillImage"/>
    <dc:date>2026-01-30T13:04:18.094268</dc:date>
    <dc:format>image/svg+xml</dc:format>
    <dc:creator>
     <cc:Agent>
      <dc:title>Matplotlib v3.10.8, https://matplotlib.org/</dc:title>
     </cc:Agent>
    </dc:creator>
   </cc:Work>
  </rdf:RDF>
 </metadata>
 <defs>
  <style type="text/css">*{stroke-linejoin: round; stroke-linecap: butt}</style>
 </defs>
 <g id="figure_1">
  <g id="patch_1">
   <path d="M 0 576 
L 576 576 
L 576 0 
L 0 0 
z
" style="fill: #ffffff"/>
  </g>
  <g id="axes_1">
   <g id="patch_2">
    <path d="M 56.225 122.512 
L 565.2 122.512 
L 565.2 49.75125 
L 56.225 49.75125 
z
" style="fill: #ffffff"/>
   </g>
   <g id="matplotlib.axis_1">
    <g id="xtick_1">
     <g id="line2d_1">
      <path d="M 79.360227 122.512 
L 79.360227 49.75125 
" clip-path="url(#p3cc0248fc5)" style="fill: none; stroke: #b0b0b0; stroke-opacity: 0.3; stroke-width: 0.8; stroke-linecap: square"/>
     </g>
     <g id="line2d_2">
      <defs>
       <path id="m4271f490ba" d="M 0 0 
L 0 3.5 
" style="stroke: #000000; stroke-width: 0.8"/>
      </defs>
      <g>
       <use xlink:href="#m4271f490ba" x="79.360227" y="122.512" style="stroke: #000000; stroke-width: 0.8"/>
      </g>
     </g>
    </g>
    <g id="xtick_2">
     <g id="line2d_3">
      <path d="M 171.901136 122.512 
L 171.901136 49.75125 
" clip-path="url(#p3cc0248fc5)" style="fill: none; stroke: #b0b0b0; stroke-opacity: 0.3; stroke-width: 0.8; stroke-linecap: square"/>
     </g>
     <g id="line2d_4">
      <g>
       <use xlink:href="#m4271f490ba" x="171.901136" y="122.512" style="stroke: #000000; stroke-width: 0.8"/>
      </g>
     </g>
    </g>
    <g id="xtick_3">
     <g id="line2d_5">
      <path d="M 264.442045 122.512 
L 264.442045 49.75125 
" clip-path="url(#p3cc0248fc5)" style="fill: none; stroke: #b0b0b0; stroke-opacity: 0.3; stroke-width: 0.8; stroke-linecap: square"/>
     </g>
     <g id="line2d_6">
      <g>
       <use xlink:href="#m4271f490ba" x="264.442045" y="122.512" style="stroke: #000000; stroke-width: 0.8"/>
      </g>
     </g>
    </g>
    <g id="xtick_4">
     <g id="line2d_7">
      <path d="M 356.982955 122.512 
L 356.982955 49.75125 
" clip-path="url(#p3cc0248fc5)" style="fill: none; stroke: #b0b0b0; stroke-opacity: 0.3; stroke-width: 0.8; stroke-linecap: square"/>
     </g>
     <g id="line2d_8">
      <g>
       <use xlink:href="#m4271f490ba" x="356.982955" y="122.512" style="stroke: #000000; stroke-width: 0.8"/>
      </g>
     </g>
    </g>
    <g id="xtick_5">
     <g id="line2d_9">
      <path d="M 449.523864 122.512 
L 449.523864 49.75125 
" clip-path="url(#p3cc0248fc5)" style="fill: none; stroke: #b0b0b0; stroke-opacity: 0.3; stroke-width: 0.8; stroke-linecap: square"/>
     </g>
     <g id="line2d_10">
      <g>
       <use xlink:href="#m4271f490ba" x="449.523864" y="122.512" style="stroke: #000000; stroke-width: 0.8"/>
      </g>
     </g>
    </g>
    <g id="xtick_6">
     <g id="line2d_11">
      <path d="M 542.064773 122.512 
L 542.064773 49.75125 
" clip-path="url(#p3cc0248fc5)" style="fill: none; stroke: #b0b0b0; stroke-opacity: 0.3; stroke-width: 0.8; stroke-linecap: square"/>
     </g>
     <g id="line2d_12">
      <g>
       <use xlink:href="#m4271f490ba" x="542.064773" y="122.512" style="stroke: #000000; stroke-width: 0.8"/>
      </g>
     </g>
    </g>
   </g>
   <g id="matplotlib.axis_2">
    <g id="ytick_1">
     <g id="line2d_13">
      <path d="M 56.225 87.872313 
L 565.2 87.872313 
" clip-path="url(#p3cc0248fc5)" style="fill: none; stroke: #b0b0b0; stroke-opacity: 0.3; stroke-width: 0.8; stroke-linecap: square"/>
     </g>
     <g id="line2d_14">
      <defs>
       <path id="mceccc5edf1" d="M 0 0 
L -3.5 0 
" style="stroke: #000000; stroke-width: 0.8"/>
      </defs>
      <g>
       <use xlink:href="#mceccc5edf1" x="56.225" y="87.872313" style="stroke: #000000; stroke-width: 0.8"/>
      </g>
     </g>
     <g id="text_1">
      <!-- 1 -->
      <g transform="translate(44.225 91.309813) scale(0.1 -0.1)">
       <defs>
        <path id="SimHei-31" d="M 1400 3600 
Q 1075 3275 575 2975 
L 575 3450 
Q 1200 3875 1600 4450 
L 1900 4450 
L 1900 150 
L 1400 150 
L 1400 3600 
z
" transform="scale(0.015625)"/>
       </defs>
       <use xlink:href="#SimHei-31"/>
      </g>
     </g>
    </g>
    <g id="ytick_2">
     <g id="line2d_15">
      <path d="M 56.225 53.058557 
L 565.2 53.058557 
" clip-path="url(#p3cc0248fc5)" style="fill: none; stroke: #b0b0b0; stroke-opacity: 0.3; stroke-width: 0.8; stroke-linecap: square"/>
     </g>
     <g id="line2d_16">
      <g>
       <use xlink:href="#mceccc5edf1" x="56.225" y="53.058557" style="stroke: #000000; stroke-width: 0.8"/>
      </g>
     </g>
     <g id="text_2">
      <!-- 2 -->
      <g transform="translate(44.225 56.496057) scale(0.1 -0.1)">
       <defs>
        <path id="SimHei-32" d="M 300 250 
Q 325 625 650 925 
Q 975 1225 1475 1862 
Q 1975 2500 2125 2850 
Q 2275 3200 2237 3450 
Q 2200 3700 2000 3862 
Q 1800 4025 1537 4000 
Q 1275 3975 1037 3800 
Q 800 3625 675 3275 
L 200 3350 
Q 400 3925 712 4187 
Q 1025 4450 1450 4475 
Q 1700 4500 1900 4462 
Q 2100 4425 2312 4287 
Q 2525 4150 2662 3875 
Q 2800 3600 2762 3212 
Q 2725 2825 2375 2287 
Q 2025 1750 1025 600 
L 2825 600 
L 2825 150 
L 300 150 
L 300 250 
z
" transform="scale(0.015625)"/>
       </defs>
       <use xlink:href="#SimHei-32"/>
      </g>
     </g>
    </g>
    <g id="text_3">
     <!-- Current [A] -->
     <g transform="translate(38.975 113.631625) rotate(-90) scale(0.1 -0.1)">
      <defs>
       <path id="SimHei-43" d="M 2975 1825 
Q 2950 875 2575 475 
Q 2200 75 1675 75 
Q 1075 75 650 562 
Q 225 1050 225 2125 
Q 225 3300 637 3875 
Q 1050 4450 1700 4450 
Q 2250 4450 2612 4037 
Q 2975 3625 2950 2875 
L 2400 2875 
Q 2400 3425 2225 3700 
Q 2050 3975 1700 3975 
Q 1300 3975 1062 3562 
Q 825 3150 825 2175 
Q 825 1275 1062 912 
Q 1300 550 1675 550 
Q 1950 550 2175 812 
Q 2400 1075 2400 1825 
L 2975 1825 
z
" transform="scale(0.015625)"/>
       <path id="SimHei-75" d="M 2800 125 
L 2300 125 
L 2300 650 
Q 2100 375 1862 225 
Q 1625 75 1250 75 
Q 800 75 575 325 
Q 350 575 350 950 
L 350 2925 
L 850 2925 
L 850 1125 
Q 850 825 1000 650 
Q 1150 475 1400 475 
Q 1725 475 2012 812 
Q 2300 1150 2300 1650 
L 2300 2925 
L 2800 2925 
L 2800 125 
z
" transform="scale(0.015625)"/>
       <path id="SimHei-72" d="M 2500 2425 
Q 2025 2500 1700 2287 
Q 1375 2075 1150 1550 
L 1150 125 
L 650 125 
L 650 2925 
L 1150 2925 
L 1150 2200 
Q 1375 2600 1712 2787 
Q 2050 2975 2500 2975 
L 2500 2425 
z
" transform="scale(0.015625)"/>
       <path id="SimHei-65" d="M 2850 1075 
Q 2800 625 2450 350 
Q 2100 75 1625 75 
Q 1025 75 637 462 
Q 250 850 250 1525 
Q 250 2200 637 2587 
Q 1025 2975 1625 2975 
Q 2150 2975 2487 2637 
Q 2825 2300 2825 1525 
L 800 1525 
Q 800 975 1037 750 
Q 1275 525 1625 525 
Q 1900 525 2075 662 
Q 2250 800 2300 1075 
L 2850 1075 
z
M 2250 1925 
Q 2200 2275 2025 2412 
Q 1850 2550 1575 2550 
Q 1325 2550 1125 2412 
Q 925 2275 825 1925 
L 2250 1925 
z
" transform="scale(0.015625)"/>
       <path id="SimHei-6e" d="M 2800 125 
L 2300 125 
L 2300 1925 
Q 2300 2225 2150 2400 
Q 2000 2575 1750 2575 
Q 1425 2575 1137 2237 
Q 850 1900 850 1400 
L 850 125 
L 350 125 
L 350 2925 
L 850 2925 
L 850 2400 
Q 1050 2675 1287 2825 
Q 1525 2975 1900 2975 
Q 2350 2975 2575 2725 
Q 2800 2475 2800 2100 
L 2800 125 
z
" transform="scale(0.015625)"/>
       <path id="SimHei-74" d="M 2750 200 
Q 2625 150 2462 112 
Q 2300 75 2025 75 
Q 1575 75 1300 325 
Q 1025 575 1025 1025 
L 1025 2525 
L 175 2525 
L 175 2925 
L 1025 2925 
L 1025 3900 
L 1525 3900 
L 1525 2925 
L 2550 2925 
L 2550 2525 
L 1525 2525 
L 1525 1000 
Q 1525 800 1625 662 
Q 1725 525 2000 525 
Q 2275 525 2450 575 
Q 2625 625 2750 700 
L 2750 200 
z
" transform="scale(0.015625)"/>
       <path id="SimHei-20" transform="scale(0.015625)"/>
       <path id="SimHei-5b" d="M 2825 -525 
L 1250 -525 
L 1250 5050 
L 2825 5050 
L 2825 4650 
L 1675 4650 
L 1675 -125 
L 2825 -125 
L 2825 -525 
z
" transform="scale(0.015625)"/>
       <path id="SimHei-41" d="M 3075 125 
L 2475 125 
L 2125 1450 
L 1025 1450 
L 675 125 
L 75 125 
L 1325 4450 
L 1825 4450 
L 3075 125 
z
M 2000 1925 
L 1600 3450 
L 1550 3450 
L 1150 1925 
L 2000 1925 
z
" transform="scale(0.015625)"/>
       <path id="SimHei-5d" d="M 1875 -525 
L 300 -525 
L 300 -125 
L 1450 -125 
L 1450 4650 
L 300 4650 
L 300 5050 
L 1875 5050 
L 1875 -525 
z
" transform="scale(0.015625)"/>
      </defs>
      <use xlink:href="#SimHei-43"/>
      <use xlink:href="#SimHei-75" transform="translate(50 0)"/>
      <use xlink:href="#SimHei-72" transform="translate(100 0)"/>
      <use xlink:href="#SimHei-72" transform="translate(150 0)"/>
      <use xlink:href="#SimHei-65" transform="translate(200 0)"/>
      <use xlink:href="#SimHei-6e" transform="translate(250 0)"/>
      <use xlink:href="#SimHei-74" transform="translate(300 0)"/>
      <use xlink:href="#SimHei-20" transform="translate(350 0)"/>
      <use xlink:href="#SimHei-5b" transform="translate(400 0)"/>
      <use xlink:href="#SimHei-41" transform="translate(450 0)"/>
      <use xlink:href="#SimHei-5d" transform="translate(500 0)"/>
     </g>
    </g>
   </g>
   <g id="line2d_17">
    <path d="M 79.360227 119.204693 
L 171.901136 119.204693 
L 171.901136 53.058557 
L 310.7125 53.058557 
L 310.7125 119.204693 
L 542.064773 119.204693 
L 542.064773 119.204693 
" clip-path="url(#p3cc0248fc5)" style="fill: none; stroke: #ffa500; stroke-width: 1.5; stroke-linecap: square"/>
   </g>
   <g id="patch_3">
    <path d="M 56.225 122.512 
L 56.225 49.75125 
" style="fill: none; stroke: #000000; stroke-width: 0.8; stroke-linejoin: miter; stroke-linecap: square"/>
   </g>
   <g id="patch_4">
    <path d="M 565.2 122.512 
L 565.2 49.75125 
" style="fill: none; stroke: #000000; stroke-width: 0.8; stroke-linejoin: miter; stroke-linecap: square"/>
   </g>
   <g id="patch_5">
    <path d="M 56.225 122.512 
L 565.2 122.512 
" style="fill: none; stroke: #000000; stroke-width: 0.8; stroke-linejoin: miter; stroke-linecap: square"/>
   </g>
   <g id="patch_6">
    <path d="M 56.225 49.75125 
L 565.2 49.75125 
" style="fill: none; stroke: #000000; stroke-width: 0.8; stroke-linejoin: miter; stroke-linecap: square"/>
   </g>
   <g id="text_4">
    <!-- 阶跃电流：待机 → 玩游戏 → 待机 -->
    <g transform="translate(214.7125 43.75125) scale(0.12 -0.12)">
     <defs>
      <path id="SimHei-9636" d="M 2450 4850 
Q 2350 4575 2175 3962 
Q 2000 3350 1825 2800 
Q 2225 2225 2312 1912 
Q 2400 1600 2375 1250 
Q 2350 900 2137 725 
Q 1925 550 1400 475 
Q 1300 925 1200 1075 
Q 1725 1025 1837 1225 
Q 1950 1425 1875 1775 
Q 1800 2125 1350 2725 
Q 1700 3825 1825 4400 
L 975 4400 
L 975 -500 
L 500 -500 
Q 525 175 525 675 
L 525 3650 
Q 525 4225 500 4850 
L 2450 4850 
z
M 4250 4825 
Q 4600 4100 5187 3637 
Q 5775 3175 6200 3025 
Q 5950 2775 5800 2500 
Q 4975 3075 4600 3512 
Q 4225 3950 4025 4400 
Q 3850 4025 3512 3487 
Q 3175 2950 2625 2350 
Q 2425 2575 2175 2700 
Q 2700 3075 3150 3787 
Q 3600 4500 3850 5275 
Q 4050 5150 4375 5075 
Q 4275 4900 4250 4825 
z
M 3750 2700 
Q 3650 2325 3575 1512 
Q 3500 700 3250 225 
Q 3000 -250 2650 -575 
Q 2425 -400 2175 -300 
Q 2550 -25 2762 337 
Q 2975 700 3087 1200 
Q 3200 1700 3200 2800 
Q 3350 2725 3750 2700 
z
M 5025 2775 
Q 4975 2425 4975 2025 
L 4975 350 
Q 4975 100 5000 -525 
L 4475 -525 
Q 4500 150 4500 375 
L 4500 2025 
Q 4500 2375 4475 2775 
L 5025 2775 
z
" transform="scale(0.015625)"/>
      <path id="SimHei-8dc3" d="M 625 1950 
Q 625 2225 600 2525 
L 1100 2525 
Q 1075 2225 1075 1950 
L 1075 525 
L 1525 600 
L 1525 3050 
L 725 3050 
Q 750 3525 750 4025 
Q 750 4550 725 5025 
L 2675 5025 
Q 2650 4550 2650 4025 
Q 2650 3525 2675 3050 
L 1975 3050 
L 1975 2225 
Q 2300 2225 2675 2250 
L 2675 1825 
Q 2300 1850 1975 1850 
L 1975 700 
L 2775 900 
L 2775 475 
Q 1325 125 1025 37 
Q 725 -50 425 -175 
Q 325 125 225 375 
Q 425 400 625 450 
L 625 1950 
z
M 2175 -300 
Q 2600 -75 2912 225 
Q 3225 525 3437 887 
Q 3650 1250 3775 1662 
Q 3900 2075 3950 2500 
Q 3050 2500 2725 2475 
L 2725 2900 
Q 3225 2875 4000 2875 
L 4000 4350 
Q 3625 4300 3025 4175 
Q 3000 4425 2850 4625 
Q 3425 4650 4212 4800 
Q 5000 4950 5250 5125 
Q 5375 4925 5625 4675 
Q 5350 4600 4450 4450 
L 4450 2875 
Q 5525 2875 5900 2900 
L 5900 2475 
Q 5500 2500 4525 2500 
Q 4550 2075 4862 1387 
Q 5175 700 5525 350 
Q 5875 0 6175 -175 
Q 5900 -275 5725 -550 
Q 5225 -125 4950 275 
Q 4675 675 4525 1000 
Q 4375 1325 4275 1725 
Q 4100 1050 3787 550 
Q 3475 50 2650 -625 
Q 2425 -450 2175 -300 
z
M 2225 3450 
L 2225 4625 
L 1175 4625 
L 1175 3450 
L 2225 3450 
z
" transform="scale(0.015625)"/>
      <path id="SimHei-7535" d="M 6150 325 
Q 5975 -250 5825 -412 
Q 5675 -575 5325 -575 
L 3375 -575 
Q 2700 -600 2675 100 
L 2675 975 
L 1225 975 
L 1225 500 
L 650 500 
Q 675 750 675 2225 
Q 675 3700 650 4150 
L 2675 4150 
Q 2675 4825 2650 5200 
L 3200 5200 
Q 3175 4875 3175 4150 
L 5200 4150 
Q 5175 3775 5175 2600 
Q 5175 1450 5200 975 
L 3175 975 
L 3175 300 
Q 3175 -150 3650 -150 
L 4975 -150 
Q 5375 -150 5450 25 
Q 5525 200 5575 575 
Q 5825 400 6150 325 
z
M 4675 1400 
L 4675 2400 
L 3175 2400 
L 3175 1400 
L 4675 1400 
z
M 2675 1400 
L 2675 2400 
L 1225 2400 
L 1225 1400 
L 2675 1400 
z
M 4675 2800 
L 4675 3725 
L 3175 3725 
L 3175 2800 
L 4675 2800 
z
M 2675 2800 
L 2675 3725 
L 1225 3725 
L 1225 2800 
L 2675 2800 
z
" transform="scale(0.015625)"/>
      <path id="SimHei-6d41" d="M 3725 5250 
Q 3975 4875 4225 4450 
L 5025 4450 
Q 5425 4450 5925 4475 
L 5925 4025 
Q 5325 4050 5025 4050 
L 3425 4050 
Q 3625 3900 3775 3825 
Q 3650 3725 3450 3475 
Q 3250 3225 2850 2775 
Q 3750 2800 4775 2850 
Q 4525 3150 4275 3375 
Q 4525 3550 4625 3675 
Q 5325 2950 5800 2375 
Q 5575 2200 5400 2050 
Q 5200 2325 5050 2525 
Q 4500 2475 3562 2412 
Q 2625 2350 2300 2250 
Q 2225 2475 2075 2675 
Q 2325 2750 2675 3175 
Q 3025 3600 3250 4050 
L 2975 4050 
Q 2525 4050 2050 4000 
L 2050 4475 
Q 2525 4450 2975 4450 
L 3675 4450 
Q 3475 4800 3325 5000 
Q 3575 5125 3725 5250 
z
M 5025 2025 
Q 5000 1700 5000 1375 
L 5000 150 
Q 5000 -75 5225 -75 
L 5475 -75 
Q 5675 -75 5700 500 
Q 5900 350 6200 275 
Q 6050 -350 5887 -425 
Q 5725 -500 5500 -500 
L 5025 -500 
Q 4550 -500 4550 -25 
L 4550 1425 
Q 4550 1725 4525 2025 
L 5025 2025 
z
M 3125 1975 
Q 3075 1725 3037 1212 
Q 3000 700 2812 225 
Q 2625 -250 1950 -700 
Q 1775 -475 1575 -325 
Q 2075 -100 2312 287 
Q 2550 675 2575 1162 
Q 2600 1650 2575 2025 
Q 2825 1975 3125 1975 
z
M 4000 2025 
Q 3975 1875 3975 1400 
L 3975 300 
Q 3975 -25 4000 -500 
L 3475 -500 
Q 3500 -50 3500 300 
L 3500 1400 
Q 3500 1825 3475 2025 
L 4000 2025 
z
M 1900 1625 
Q 1650 1200 1350 562 
Q 1050 -75 850 -425 
Q 625 -250 325 -125 
Q 575 175 900 750 
Q 1225 1325 1450 1950 
Q 1650 1775 1900 1625 
z
M 625 3450 
Q 1200 3100 1725 2725 
Q 1525 2525 1375 2275 
Q 925 2700 325 3000 
Q 475 3200 625 3450 
z
M 925 4975 
Q 1500 4625 1900 4300 
Q 1725 4075 1550 3875 
Q 1150 4275 625 4575 
Q 800 4800 925 4975 
z
" transform="scale(0.015625)"/>
      <path id="SimHei-ff1a" d="M 1200 2425 
L 2025 2425 
L 2025 1600 
L 1200 1600 
L 1200 2425 
z
M 1200 825 
L 2025 825 
L 2025 0 
L 1200 0 
L 1200 825 
z
" transform="scale(0.015625)"/>
      <path id="SimHei-5f85" d="M 3725 3050 
L 3725 3875 
Q 3100 3875 2500 3850 
L 2500 4300 
Q 3025 4275 3725 4275 
Q 3725 4925 3700 5225 
L 4225 5225 
Q 4200 4900 4200 4275 
L 4750 4275 
Q 5250 4300 5525 4325 
L 5525 3850 
Q 5275 3875 4750 3875 
L 4200 3875 
L 4200 3050 
L 5300 3050 
Q 5800 3050 6075 3075 
L 6075 2625 
Q 5550 2650 5100 2650 
L 5100 1950 
Q 5625 1950 6000 1975 
L 6000 1500 
Q 5625 1525 5100 1525 
L 5100 225 
Q 5100 -225 4887 -325 
Q 4675 -425 4100 -550 
Q 4050 -250 3875 50 
Q 4300 25 4462 75 
Q 4625 125 4625 400 
L 4625 1525 
L 3100 1525 
Q 2725 1525 2200 1500 
L 2200 1975 
Q 2725 1950 3100 1950 
L 4625 1950 
L 4625 2650 
L 3275 2650 
Q 2775 2650 2250 2600 
L 2250 3075 
Q 2775 3050 3275 3050 
L 3725 3050 
z
M 2350 3425 
Q 2000 3075 1725 2625 
L 1725 450 
Q 1725 0 1750 -600 
L 1225 -600 
Q 1250 0 1250 425 
L 1250 2075 
Q 950 1750 600 1325 
Q 425 1525 250 1700 
Q 700 2050 1187 2687 
Q 1675 3325 1900 3800 
Q 2075 3625 2350 3425 
z
M 2250 4900 
Q 2050 4750 1700 4300 
Q 1350 3850 725 3225 
Q 600 3400 375 3575 
Q 1425 4550 1750 5225 
Q 1975 5050 2250 4900 
z
M 3125 1375 
Q 3500 875 3750 525 
Q 3525 400 3275 200 
Q 3000 700 2675 1050 
Q 2925 1200 3125 1375 
z
" transform="scale(0.015625)"/>
      <path id="SimHei-673a" d="M 5100 4775 
Q 5075 4075 5075 3575 
L 5075 325 
Q 5075 0 5225 -25 
Q 5375 -50 5475 -37 
Q 5575 -25 5612 137 
Q 5650 300 5650 625 
Q 5875 500 6175 425 
Q 6075 -100 5975 -275 
Q 5875 -450 5650 -450 
L 5125 -450 
Q 4825 -450 4687 -312 
Q 4550 -175 4575 250 
L 4575 4350 
L 3625 4350 
Q 3625 2925 3587 2137 
Q 3550 1350 3362 712 
Q 3175 75 2625 -575 
Q 2500 -425 2175 -175 
Q 2525 100 2737 500 
Q 2950 900 3025 1325 
Q 3100 1750 3125 2225 
Q 3150 2700 3150 3425 
Q 3150 4175 3125 4775 
L 5100 4775 
z
M 2150 2725 
Q 2550 2175 2750 1875 
Q 2575 1725 2325 1550 
Q 2175 1875 1800 2425 
L 1800 600 
Q 1800 100 1825 -525 
L 1275 -525 
Q 1300 100 1300 600 
L 1300 2200 
Q 1175 1825 1025 1487 
Q 875 1150 600 725 
Q 375 975 200 1125 
Q 400 1350 725 2000 
Q 1050 2650 1225 3450 
L 1075 3450 
Q 725 3450 375 3400 
L 375 3875 
Q 725 3850 1050 3850 
L 1300 3850 
L 1300 4350 
Q 1300 4750 1275 5100 
L 1850 5100 
Q 1800 4850 1800 4350 
L 1800 3850 
L 2075 3850 
Q 2350 3850 2700 3875 
L 2700 3425 
Q 2150 3450 1800 3450 
L 1800 2450 
Q 1950 2575 2150 2725 
z
" transform="scale(0.015625)"/>
      <path id="SimHei-2192" d="M 3900 4275 
L 5475 2300 
L 3900 400 
L 3900 1900 
L 400 1900 
L 400 2725 
L 3900 2725 
L 3900 4275 
z
" transform="scale(0.015625)"/>
      <path id="SimHei-73a9" d="M 5100 3250 
Q 5550 3250 6025 3275 
L 6025 2825 
Q 5575 2850 5075 2850 
L 4800 2850 
L 4800 225 
Q 4800 0 4975 -12 
Q 5150 -25 5325 -25 
Q 5525 -25 5575 162 
Q 5625 350 5650 750 
Q 5875 600 6200 525 
Q 6075 -25 5950 -250 
Q 5825 -475 5450 -475 
L 4900 -475 
Q 4325 -475 4325 100 
L 4325 2850 
L 3675 2850 
Q 3700 1375 3362 625 
Q 3025 -125 2350 -700 
Q 2100 -400 1825 -325 
Q 2600 175 2925 887 
Q 3250 1600 3200 2850 
Q 2825 2850 2400 2825 
L 2400 3275 
Q 2850 3250 3250 3250 
L 5100 3250 
z
M 1750 4750 
Q 2025 4750 2350 4775 
L 2350 4300 
Q 2000 4325 1550 4325 
L 1550 2900 
Q 1875 2900 2225 2925 
L 2225 2450 
Q 1875 2475 1550 2475 
L 1550 1000 
Q 1975 1150 2300 1275 
Q 2275 1025 2275 775 
Q 1700 600 1250 437 
Q 800 275 450 75 
Q 350 375 200 650 
Q 650 700 1100 850 
L 1100 2475 
Q 750 2475 425 2450 
L 425 2925 
Q 750 2900 1100 2900 
L 1100 4325 
Q 700 4325 350 4300 
L 350 4775 
Q 750 4750 975 4750 
L 1750 4750 
z
M 4675 4875 
Q 5200 4875 5575 4900 
L 5575 4450 
Q 5200 4475 4700 4475 
L 3650 4475 
Q 3275 4475 2825 4450 
L 2825 4900 
Q 3250 4875 3600 4875 
L 4675 4875 
z
" transform="scale(0.015625)"/>
      <path id="SimHei-6e38" d="M 3475 3125 
Q 3650 3300 3787 3550 
Q 3925 3800 4025 4062 
Q 4125 4325 4212 4625 
Q 4300 4925 4350 5225 
Q 4625 5100 4950 5050 
Q 4825 4875 4750 4700 
Q 4675 4525 4625 4325 
L 5075 4325 
Q 5575 4325 6150 4350 
L 6150 3925 
Q 5575 3950 5050 3950 
L 4500 3950 
Q 4400 3750 4325 3587 
Q 4250 3425 4150 3225 
L 5925 3225 
L 5925 2750 
Q 5800 2625 5637 2475 
Q 5475 2325 5275 2075 
L 5275 1775 
L 5550 1775 
Q 5725 1775 6175 1800 
L 6175 1375 
Q 5775 1400 5550 1400 
L 5275 1400 
L 5275 0 
Q 5275 -375 5050 -487 
Q 4825 -600 4300 -675 
Q 4275 -450 4100 -125 
Q 4500 -150 4650 -125 
Q 4800 -100 4800 200 
L 4800 1400 
L 4575 1400 
Q 4275 1400 3850 1375 
L 3850 1800 
Q 4250 1775 4550 1775 
L 4800 1775 
Q 4800 2000 4775 2200 
Q 5075 2450 5375 2850 
L 4650 2850 
L 4150 2825 
L 4150 3200 
Q 4000 3000 3900 2800 
Q 3725 2975 3475 3125 
z
M 2425 0 
Q 2900 -25 2975 25 
Q 3050 75 3050 225 
L 3050 2450 
L 2500 2450 
Q 2500 2000 2450 1562 
Q 2400 1125 2312 750 
Q 2225 375 2062 50 
Q 1900 -275 1625 -625 
Q 1475 -400 1200 -275 
Q 1575 50 1762 537 
Q 1950 1025 2000 1525 
Q 2050 2025 2062 2575 
Q 2075 3125 2075 3700 
Q 1900 3700 1575 3675 
L 1575 4075 
Q 2100 4050 2250 4050 
L 3125 4050 
Q 3350 4050 3675 4075 
L 3675 3675 
Q 3375 3700 3100 3700 
L 2525 3700 
L 2525 2850 
L 3525 2850 
Q 3500 2450 3500 2100 
L 3500 125 
Q 3500 -125 3337 -262 
Q 3175 -400 2625 -500 
Q 2600 -275 2425 0 
z
M 1475 1600 
Q 1275 1050 1187 775 
Q 1100 500 987 137 
Q 875 -225 800 -625 
Q 475 -425 225 -350 
Q 525 175 650 575 
Q 775 975 850 1250 
Q 925 1525 1000 1850 
Q 1250 1700 1475 1600 
z
M 1300 2425 
Q 1050 2625 825 2762 
Q 600 2900 275 3050 
Q 425 3250 550 3450 
Q 750 3325 1037 3162 
Q 1325 3000 1575 2825 
Q 1425 2600 1300 2425 
z
M 725 5075 
Q 875 4950 1137 4762 
Q 1400 4575 1600 4400 
Q 1400 4175 1275 4000 
Q 1025 4275 425 4700 
Q 575 4900 725 5075 
z
M 2525 5225 
Q 2925 4625 3000 4450 
Q 2800 4375 2575 4225 
Q 2500 4425 2400 4612 
Q 2300 4800 2150 5000 
Q 2350 5100 2525 5225 
z
" transform="scale(0.015625)"/>
      <path id="SimHei-620f" d="M 3450 3200 
Q 3375 3775 3325 5200 
Q 3675 5150 3875 5150 
Q 3800 4050 3900 3275 
Q 5475 3650 5825 3750 
L 5900 3250 
Q 5600 3225 3950 2850 
Q 4050 1900 4300 1350 
Q 4750 2125 4900 2725 
Q 5100 2575 5500 2475 
Q 5275 2225 5112 1837 
Q 4950 1450 4525 825 
Q 4975 225 5225 62 
Q 5475 -100 5550 50 
Q 5625 200 5675 550 
Q 5900 375 6175 275 
Q 6000 -200 5875 -412 
Q 5750 -625 5550 -662 
Q 5350 -700 4912 -325 
Q 4475 50 4175 525 
Q 3400 -250 2975 -600 
Q 2800 -375 2500 -225 
Q 3050 100 3412 425 
Q 3775 750 3950 950 
Q 3650 1650 3500 2725 
Q 3125 2650 2575 2500 
L 2500 3000 
Q 2900 3050 3450 3200 
z
M 2450 4400 
Q 2425 4025 2350 3312 
Q 2275 2600 2025 1725 
Q 2550 925 2825 475 
Q 2575 350 2375 175 
Q 2175 700 1800 1200 
Q 1175 175 625 -425 
Q 450 -150 200 25 
Q 725 450 987 812 
Q 1250 1175 1450 1625 
Q 1250 2025 500 2950 
Q 675 3050 850 3250 
Q 1450 2475 1675 2175 
Q 1825 2625 1950 4000 
L 1250 4000 
Q 775 4000 325 3975 
L 325 4425 
Q 750 4400 1225 4400 
L 2450 4400 
z
M 4825 4925 
Q 5250 4400 5425 4200 
Q 5225 4100 4975 3950 
Q 4850 4125 4425 4625 
Q 4650 4775 4825 4925 
z
" transform="scale(0.015625)"/>
     </defs>
     <use xlink:href="#SimHei-9636"/>
     <use xlink:href="#SimHei-8dc3" transform="translate(100 0)"/>
     <use xlink:href="#SimHei-7535" transform="translate(200 0)"/>
     <use xlink:href="#SimHei-6d41" transform="translate(300 0)"/>
     <use xlink:href="#SimHei-ff1a" transform="translate(400 0)"/>
     <use xlink:href="#SimHei-5f85" transform="translate(500 0)"/>
     <use xlink:href="#SimHei-673a" transform="translate(600 0)"/>
     <use xlink:href="#SimHei-20" transform="translate(700 0)"/>
     <use xlink:href="#SimHei-2192" transform="translate(750 0)"/>
     <use xlink:href="#SimHei-20" transform="translate(850 0)"/>
     <use xlink:href="#SimHei-73a9" transform="translate(900 0)"/>
     <use xlink:href="#SimHei-6e38" transform="translate(1000 0)"/>
     <use xlink:href="#SimHei-620f" transform="translate(1100 0)"/>
     <use xlink:href="#SimHei-20" transform="translate(1200 0)"/>
     <use xlink:href="#SimHei-2192" transform="translate(1250 0)"/>
     <use xlink:href="#SimHei-20" transform="translate(1350 0)"/>
     <use xlink:href="#SimHei-5f85" transform="translate(1400 0)"/>
     <use xlink:href="#SimHei-673a" transform="translate(1500 0)"/>
    </g>
   </g>
   <g id="legend_1">
    <g id="patch_7">
     <path d="M 506.2 71.305938 
L 558.2 71.305938 
Q 560.2 71.305938 560.2 69.305938 
L 560.2 56.75125 
Q 560.2 54.75125 558.2 54.75125 
L 506.2 54.75125 
Q 504.2 54.75125 504.2 56.75125 
L 504.2 69.305938 
Q 504.2 71.305938 506.2 71.305938 
z
" style="fill: #ffffff; opacity: 0.8; stroke: #cccccc; stroke-linejoin: miter"/>
    </g>
    <g id="line2d_18">
     <path d="M 508.2 62.555938 
L 518.2 62.555938 
L 518.2 62.555938 
L 528.2 62.555938 
L 528.2 62.555938 
" style="fill: none; stroke: #ffa500; stroke-width: 1.5; stroke-linecap: square"/>
    </g>
    <g id="text_5">
     <!-- I(t) -->
     <g transform="translate(536.2 66.055938) scale(0.1 -0.1)">
      <defs>
       <path id="SimHei-49" d="M 1850 125 
L 1275 125 
L 1275 4400 
L 1850 4400 
L 1850 125 
z
" transform="scale(0.015625)"/>
       <path id="SimHei-28" d="M 2975 -200 
L 2700 -475 
Q 2075 125 1762 775 
Q 1450 1425 1450 2250 
Q 1450 3075 1762 3725 
Q 2075 4375 2700 5000 
L 2975 4725 
Q 2400 4175 2112 3587 
Q 1825 3000 1825 2250 
Q 1825 1500 2112 912 
Q 2400 325 2975 -200 
z
" transform="scale(0.015625)"/>
       <path id="SimHei-29" d="M 1675 2250 
Q 1675 1425 1362 775 
Q 1050 125 425 -475 
L 150 -200 
Q 725 325 1012 912 
Q 1300 1500 1300 2250 
Q 1300 3000 1012 3587 
Q 725 4175 150 4725 
L 425 5000 
Q 1050 4375 1362 3725 
Q 1675 3075 1675 2250 
z
" transform="scale(0.015625)"/>
      </defs>
      <use xlink:href="#SimHei-49"/>
      <use xlink:href="#SimHei-28" transform="translate(50 0)"/>
      <use xlink:href="#SimHei-74" transform="translate(100 0)"/>
      <use xlink:href="#SimHei-29" transform="translate(150 0)"/>
     </g>
    </g>
   </g>
  </g>
  <g id="axes_2">
   <g id="patch_8">
    <path d="M 56.225 225.92275 
L 565.2 225.92275 
L 565.2 153.162 
L 56.225 153.162 
z
" style="fill: #ffffff"/>
   </g>
   <g id="matplotlib.axis_3">
    <g id="xtick_7">
     <g id="line2d_19">
      <path d="M 79.360227 225.92275 
L 79.360227 153.162 
" clip-path="url(#pebcf53ca7e)" style="fill: none; stroke: #b0b0b0; stroke-opacity: 0.3; stroke-width: 0.8; stroke-linecap: square"/>
     </g>
     <g id="line2d_20">
      <g>
       <use xlink:href="#m4271f490ba" x="79.360227" y="225.92275" style="stroke: #000000; stroke-width: 0.8"/>
      </g>
     </g>
    </g>
    <g id="xtick_8">
     <g id="line2d_21">
      <path d="M 171.901136 225.92275 
L 171.901136 153.162 
" clip-path="url(#pebcf53ca7e)" style="fill: none; stroke: #b0b0b0; stroke-opacity: 0.3; stroke-width: 0.8; stroke-linecap: square"/>
     </g>
     <g id="line2d_22">
      <g>
       <use xlink:href="#m4271f490ba" x="171.901136" y="225.92275" style="stroke: #000000; stroke-width: 0.8"/>
      </g>
     </g>
    </g>
    <g id="xtick_9">
     <g id="line2d_23">
      <path d="M 264.442045 225.92275 
L 264.442045 153.162 
" clip-path="url(#pebcf53ca7e)" style="fill: none; stroke: #b0b0b0; stroke-opacity: 0.3; stroke-width: 0.8; stroke-linecap: square"/>
     </g>
     <g id="line2d_24">
      <g>
       <use xlink:href="#m4271f490ba" x="264.442045" y="225.92275" style="stroke: #000000; stroke-width: 0.8"/>
      </g>
     </g>
    </g>
    <g id="xtick_10">
     <g id="line2d_25">
      <path d="M 356.982955 225.92275 
L 356.982955 153.162 
" clip-path="url(#pebcf53ca7e)" style="fill: none; stroke: #b0b0b0; stroke-opacity: 0.3; stroke-width: 0.8; stroke-linecap: square"/>
     </g>
     <g id="line2d_26">
      <g>
       <use xlink:href="#m4271f490ba" x="356.982955" y="225.92275" style="stroke: #000000; stroke-width: 0.8"/>
      </g>
     </g>
    </g>
    <g id="xtick_11">
     <g id="line2d_27">
      <path d="M 449.523864 225.92275 
L 449.523864 153.162 
" clip-path="url(#pebcf53ca7e)" style="fill: none; stroke: #b0b0b0; stroke-opacity: 0.3; stroke-width: 0.8; stroke-linecap: square"/>
     </g>
     <g id="line2d_28">
      <g>
       <use xlink:href="#m4271f490ba" x="449.523864" y="225.92275" style="stroke: #000000; stroke-width: 0.8"/>
      </g>
     </g>
    </g>
    <g id="xtick_12">
     <g id="line2d_29">
      <path d="M 542.064773 225.92275 
L 542.064773 153.162 
" clip-path="url(#pebcf53ca7e)" style="fill: none; stroke: #b0b0b0; stroke-opacity: 0.3; stroke-width: 0.8; stroke-linecap: square"/>
     </g>
     <g id="line2d_30">
      <g>
       <use xlink:href="#m4271f490ba" x="542.064773" y="225.92275" style="stroke: #000000; stroke-width: 0.8"/>
      </g>
     </g>
    </g>
   </g>
   <g id="matplotlib.axis_4">
    <g id="ytick_3">
     <g id="line2d_31">
      <path d="M 56.225 223.736564 
L 565.2 223.736564 
" clip-path="url(#pebcf53ca7e)" style="fill: none; stroke: #b0b0b0; stroke-opacity: 0.3; stroke-width: 0.8; stroke-linecap: square"/>
     </g>
     <g id="line2d_32">
      <g>
       <use xlink:href="#mceccc5edf1" x="56.225" y="223.736564" style="stroke: #000000; stroke-width: 0.8"/>
      </g>
     </g>
     <g id="text_6">
      <!-- 0 -->
      <g transform="translate(44.225 227.174064) scale(0.1 -0.1)">
       <defs>
        <path id="SimHei-30" d="M 225 2537 
Q 250 3200 412 3587 
Q 575 3975 875 4225 
Q 1175 4475 1612 4475 
Q 2050 4475 2375 4112 
Q 2700 3750 2800 3200 
Q 2900 2650 2862 1937 
Q 2825 1225 2612 775 
Q 2400 325 1975 150 
Q 1550 -25 1125 187 
Q 700 400 525 750 
Q 350 1100 275 1487 
Q 200 1875 225 2537 
z
M 750 2687 
Q 675 2000 800 1462 
Q 925 925 1212 700 
Q 1500 475 1800 612 
Q 2100 750 2237 1162 
Q 2375 1575 2375 2062 
Q 2375 2550 2337 2950 
Q 2300 3350 2112 3675 
Q 1925 4000 1612 4012 
Q 1300 4025 1062 3700 
Q 825 3375 750 2687 
z
" transform="scale(0.015625)"/>
       </defs>
       <use xlink:href="#SimHei-30"/>
      </g>
     </g>
    </g>
    <g id="ytick_4">
     <g id="line2d_33">
      <path d="M 56.225 178.891726 
L 565.2 178.891726 
" clip-path="url(#pebcf53ca7e)" style="fill: none; stroke: #b0b0b0; stroke-opacity: 0.3; stroke-width: 0.8; stroke-linecap: square"/>
     </g>
     <g id="line2d_34">
      <g>
       <use xlink:href="#mceccc5edf1" x="56.225" y="178.891726" style="stroke: #000000; stroke-width: 0.8"/>
      </g>
     </g>
     <g id="text_7">
      <!-- 2 -->
      <g transform="translate(44.225 182.329226) scale(0.1 -0.1)">
       <use xlink:href="#SimHei-32"/>
      </g>
     </g>
    </g>
    <g id="text_8">
     <!-- P_device [W] -->
     <g transform="translate(38.896875 219.542375) rotate(-90) scale(0.1 -0.1)">
      <defs>
       <path id="SimHei-50" d="M 2950 3100 
Q 2950 2500 2600 2150 
Q 2250 1800 1625 1800 
L 900 1800 
L 900 125 
L 325 125 
L 325 4400 
L 1625 4400 
Q 2250 4400 2600 4050 
Q 2950 3700 2950 3100 
z
M 2375 3100 
Q 2375 3575 2150 3750 
Q 1925 3925 1475 3925 
L 900 3925 
L 900 2275 
L 1475 2275 
Q 1925 2275 2150 2450 
Q 2375 2625 2375 3100 
z
" transform="scale(0.015625)"/>
       <path id="SimHei-5f" d="M 3150 -850 
L 0 -850 
L 0 -550 
L 3150 -550 
L 3150 -850 
z
" transform="scale(0.015625)"/>
       <path id="SimHei-64" d="M 2750 125 
L 2250 125 
L 2250 500 
Q 2100 275 1900 175 
Q 1700 75 1425 75 
Q 925 75 575 437 
Q 225 800 225 1525 
Q 225 2250 575 2625 
Q 925 3000 1425 3000 
Q 1700 3000 1900 2887 
Q 2100 2775 2250 2550 
L 2250 4400 
L 2750 4400 
L 2750 125 
z
M 2250 1525 
Q 2250 2000 2037 2275 
Q 1825 2550 1525 2550 
Q 1150 2550 962 2275 
Q 775 2000 775 1525 
Q 775 1050 962 787 
Q 1150 525 1525 525 
Q 1825 525 2037 787 
Q 2250 1050 2250 1525 
z
" transform="scale(0.015625)"/>
       <path id="SimHei-76" d="M 2875 2925 
L 1825 75 
L 1275 75 
L 225 2925 
L 750 2925 
L 1525 750 
L 1575 750 
L 2350 2925 
L 2875 2925 
z
" transform="scale(0.015625)"/>
       <path id="SimHei-69" d="M 1800 3725 
L 1300 3725 
L 1300 4375 
L 1800 4375 
L 1800 3725 
z
M 1800 125 
L 1300 125 
L 1300 2925 
L 1800 2925 
L 1800 125 
z
" transform="scale(0.015625)"/>
       <path id="SimHei-63" d="M 2850 1250 
Q 2850 725 2487 400 
Q 2125 75 1575 75 
Q 1025 75 625 462 
Q 225 850 225 1525 
Q 225 2200 625 2587 
Q 1025 2975 1575 2975 
Q 2125 2975 2450 2687 
Q 2775 2400 2775 2000 
L 2225 2000 
Q 2200 2300 2012 2412 
Q 1825 2525 1575 2525 
Q 1275 2525 1025 2287 
Q 775 2050 775 1525 
Q 775 1000 1025 762 
Q 1275 525 1575 525 
Q 1900 525 2100 700 
Q 2300 875 2300 1250 
L 2850 1250 
z
" transform="scale(0.015625)"/>
       <path id="SimHei-57" d="M 3075 4400 
L 2525 75 
L 2025 75 
L 1575 3275 
L 1525 3275 
L 1075 75 
L 575 75 
L 25 4400 
L 575 4400 
L 850 1675 
L 900 1675 
L 1275 4400 
L 1825 4400 
L 2200 1675 
L 2250 1675 
L 2525 4400 
L 3075 4400 
z
" transform="scale(0.015625)"/>
      </defs>
      <use xlink:href="#SimHei-50"/>
      <use xlink:href="#SimHei-5f" transform="translate(50 0)"/>
      <use xlink:href="#SimHei-64" transform="translate(100 0)"/>
      <use xlink:href="#SimHei-65" transform="translate(150 0)"/>
      <use xlink:href="#SimHei-76" transform="translate(200 0)"/>
      <use xlink:href="#SimHei-69" transform="translate(250 0)"/>
      <use xlink:href="#SimHei-63" transform="translate(300 0)"/>
      <use xlink:href="#SimHei-65" transform="translate(350 0)"/>
      <use xlink:href="#SimHei-20" transform="translate(400 0)"/>
      <use xlink:href="#SimHei-5b" transform="translate(450 0)"/>
      <use xlink:href="#SimHei-57" transform="translate(500 0)"/>
      <use xlink:href="#SimHei-5d" transform="translate(550 0)"/>
     </g>
    </g>
   </g>
   <g id="line2d_35">
    <path d="M 79.360227 222.615443 
L 171.901136 222.615443 
L 171.901136 156.469307 
L 310.7125 156.469307 
L 310.7125 222.615443 
L 542.064773 222.615443 
L 542.064773 222.615443 
" clip-path="url(#pebcf53ca7e)" style="fill: none; stroke: #800080; stroke-width: 1.5; stroke-linecap: square"/>
   </g>
   <g id="patch_9">
    <path d="M 56.225 225.92275 
L 56.225 153.162 
" style="fill: none; stroke: #000000; stroke-width: 0.8; stroke-linejoin: miter; stroke-linecap: square"/>
   </g>
   <g id="patch_10">
    <path d="M 565.2 225.92275 
L 565.2 153.162 
" style="fill: none; stroke: #000000; stroke-width: 0.8; stroke-linejoin: miter; stroke-linecap: square"/>
   </g>
   <g id="patch_11">
    <path d="M 56.225 225.92275 
L 565.2 225.92275 
" style="fill: none; stroke: #000000; stroke-width: 0.8; stroke-linejoin: miter; stroke-linecap: square"/>
   </g>
   <g id="patch_12">
    <path d="M 56.225 153.162 
L 565.2 153.162 
" style="fill: none; stroke: #000000; stroke-width: 0.8; stroke-linejoin: miter; stroke-linecap: square"/>
   </g>
   <g id="text_9">
    <!-- 外电路功耗（CPU/屏，不含电池 I**2*R） -->
    <g transform="translate(199.7125 147.162) scale(0.12 -0.12)">
     <defs>
      <path id="SimHei-5916" d="M 2150 4875 
Q 2000 4650 1912 4425 
Q 1825 4200 1725 3975 
L 3275 3975 
Q 3150 3075 2937 2450 
Q 2725 1825 2412 1350 
Q 2100 875 1675 437 
Q 1250 0 650 -375 
Q 475 -100 200 0 
Q 775 250 1275 712 
Q 1775 1175 2000 1600 
Q 1675 1950 1150 2325 
Q 1325 2475 1475 2675 
Q 1975 2275 2250 2050 
Q 2425 2400 2525 2775 
Q 2625 3150 2700 3550 
L 1575 3550 
Q 1425 3225 1187 2825 
Q 950 2425 575 2025 
Q 450 2200 200 2375 
Q 625 2775 862 3187 
Q 1100 3600 1250 4025 
Q 1400 4450 1550 5075 
Q 1825 4950 2150 4875 
z
M 4225 5125 
Q 4200 4725 4200 4325 
L 4200 475 
Q 4200 0 4225 -500 
L 3675 -500 
Q 3700 0 3700 475 
L 3700 4325 
Q 3700 4725 3675 5125 
L 4225 5125 
z
M 4675 3450 
Q 4900 3200 5337 2687 
Q 5775 2175 6075 1725 
Q 5825 1575 5650 1400 
Q 5425 1800 5025 2300 
Q 4625 2800 4300 3150 
Q 4450 3300 4675 3450 
z
" transform="scale(0.015625)"/>
      <path id="SimHei-8def" d="M 2900 425 
Q 1225 -75 475 -350 
Q 425 -150 275 125 
Q 525 150 700 225 
L 700 1800 
Q 700 2000 675 2325 
L 1150 2325 
Q 1125 2100 1125 1675 
L 1125 325 
Q 1300 375 1550 450 
L 1550 2975 
L 725 2975 
Q 750 3225 750 3850 
Q 750 4500 725 4750 
L 2650 4750 
Q 2625 4475 2625 3850 
Q 2625 3250 2650 2975 
L 1975 2975 
L 1975 2075 
Q 2275 2075 2600 2100 
L 2600 1650 
Q 2275 1675 1975 1675 
L 1975 550 
Q 2200 600 2900 875 
Q 2875 675 2900 425 
z
M 4225 5025 
Q 4075 4850 3925 4550 
L 5750 4550 
Q 5575 4125 5287 3650 
Q 5000 3175 4750 2850 
Q 5325 2400 6200 2200 
Q 6000 1950 5900 1750 
Q 5600 1875 5200 2087 
Q 4800 2300 4475 2550 
Q 4150 2300 3762 2100 
Q 3375 1900 2925 1700 
Q 2825 1925 2650 2125 
Q 2975 2200 3400 2375 
Q 3825 2550 4150 2825 
Q 3900 3075 3425 3650 
Q 3250 3350 3100 3150 
Q 2950 3300 2725 3425 
Q 3000 3675 3275 4187 
Q 3550 4700 3700 5225 
Q 3975 5050 4225 5025 
z
M 5525 1800 
Q 5500 1475 5500 650 
Q 5500 -150 5525 -525 
L 5050 -525 
L 5050 -50 
L 3625 -50 
L 3625 -550 
L 3175 -550 
Q 3200 -125 3200 650 
Q 3200 1450 3175 1800 
L 5525 1800 
z
M 5050 325 
L 5050 1400 
L 3625 1400 
L 3625 325 
L 5050 325 
z
M 2200 3350 
L 2200 4375 
L 1175 4375 
L 1175 3350 
L 2200 3350 
z
M 3650 4000 
Q 3950 3550 4425 3125 
Q 4575 3275 4775 3612 
Q 4975 3950 5075 4175 
L 3750 4175 
L 3650 4000 
z
" transform="scale(0.015625)"/>
      <path id="SimHei-529f" d="M 5675 275 
Q 5575 -200 5225 -312 
Q 4875 -425 4450 -475 
Q 4400 -175 4200 100 
Q 4725 75 4937 137 
Q 5150 200 5175 425 
Q 5300 1775 5375 3275 
L 4250 3275 
Q 4225 2550 4125 1925 
Q 4025 1300 3787 850 
Q 3550 400 3250 50 
Q 2950 -300 2550 -650 
Q 2375 -400 2100 -250 
Q 2650 100 2925 425 
Q 3200 750 3400 1162 
Q 3600 1575 3675 2075 
Q 3750 2575 3775 3275 
L 3400 3275 
Q 3100 3275 2800 3250 
L 2800 3725 
Q 3125 3700 3450 3700 
L 3775 3700 
L 3775 4575 
Q 3775 4875 3750 5175 
Q 4075 5100 4325 5075 
Q 4275 4900 4262 4525 
Q 4250 4150 4250 3700 
L 5900 3700 
Q 5875 3350 5850 3037 
Q 5825 2725 5675 275 
z
M 2900 1000 
Q 2475 900 2200 837 
Q 1925 775 1337 600 
Q 750 425 500 350 
Q 400 700 300 900 
Q 450 900 1375 1100 
L 1375 3900 
L 1175 3900 
Q 875 3900 450 3875 
L 450 4350 
Q 850 4325 1175 4325 
L 2100 4325 
Q 2450 4325 2725 4350 
L 2725 3875 
Q 2425 3900 2125 3900 
L 1875 3900 
L 1875 1200 
L 2375 1325 
Q 2575 1375 2850 1450 
L 2900 1000 
z
" transform="scale(0.015625)"/>
      <path id="SimHei-8017" d="M 5675 4400 
Q 5500 4375 5150 4300 
Q 4800 4225 4475 4150 
L 4475 3225 
Q 5025 3300 5700 3400 
L 5725 2975 
Q 5250 2925 4475 2800 
L 4475 1975 
Q 4725 2000 5087 2050 
Q 5450 2100 5975 2175 
L 6025 1725 
Q 5500 1675 4475 1550 
L 4475 250 
Q 4475 0 4750 0 
L 5175 0 
Q 5375 0 5425 137 
Q 5475 275 5500 675 
Q 5725 525 6075 450 
Q 5925 -75 5812 -237 
Q 5700 -400 5425 -400 
L 4525 -400 
Q 4000 -400 4000 150 
L 4000 1475 
Q 3325 1400 2975 1325 
L 2925 1775 
Q 3400 1825 4000 1900 
L 4000 2750 
Q 3850 2750 3200 2625 
L 3150 3075 
Q 3400 3100 4000 3175 
L 4000 4050 
Q 3675 3975 3250 3850 
Q 3175 4125 3050 4325 
Q 3650 4400 4062 4487 
Q 4475 4575 4787 4675 
Q 5100 4775 5400 4925 
Q 5500 4675 5675 4400 
z
M 200 400 
Q 750 925 1012 1325 
Q 1275 1725 1425 2100 
Q 875 2100 400 2075 
L 400 2525 
Q 875 2500 1200 2500 
L 1525 2500 
L 1525 3050 
Q 1050 3050 575 3025 
L 575 3475 
Q 1050 3450 1525 3450 
L 1525 3950 
L 1250 3950 
Q 950 3950 500 3925 
L 500 4375 
Q 950 4350 1250 4350 
L 1525 4350 
Q 1525 4825 1500 5100 
L 2025 5100 
Q 2000 4825 2000 4350 
Q 2450 4350 2950 4375 
L 2950 3925 
Q 2450 3950 2000 3950 
L 2000 3450 
Q 2375 3450 2775 3475 
L 2775 3025 
Q 2350 3050 2000 3050 
L 2000 2500 
Q 2550 2500 2925 2525 
L 2925 2075 
Q 2525 2100 2000 2100 
L 2000 150 
Q 2000 -175 2025 -575 
L 1500 -575 
Q 1525 -175 1525 150 
L 1525 1350 
Q 1175 700 650 100 
Q 425 300 200 400 
z
M 2450 1750 
Q 2550 1575 2975 1000 
Q 2750 875 2550 675 
Q 2450 900 2075 1450 
Q 2225 1550 2450 1750 
z
" transform="scale(0.015625)"/>
      <path id="SimHei-ff08" d="M 5425 5100 
L 5700 4775 
Q 4275 3725 4325 2350 
Q 4350 1025 5675 50 
L 5400 -275 
Q 3875 825 3925 2500 
Q 3925 3875 5425 5100 
z
" transform="scale(0.015625)"/>
      <path id="SimHei-55" d="M 2875 1375 
Q 2875 775 2562 425 
Q 2250 75 1575 75 
Q 900 75 587 425 
Q 275 775 275 1375 
L 275 4400 
L 850 4400 
L 850 1375 
Q 850 950 1050 750 
Q 1250 550 1575 550 
Q 1900 550 2100 750 
Q 2300 950 2300 1375 
L 2300 4400 
L 2875 4400 
L 2875 1375 
z
" transform="scale(0.015625)"/>
      <path id="SimHei-2f" d="M 3000 4550 
L 350 -175 
L 100 -25 
L 2750 4700 
L 3000 4550 
z
" transform="scale(0.015625)"/>
      <path id="SimHei-5c4f" d="M 250 -50 
Q 650 550 825 1350 
Q 1000 2150 1000 3150 
Q 1000 4175 975 5025 
L 5500 5025 
Q 5475 4700 5475 4350 
Q 5475 4000 5500 3600 
L 1450 3600 
Q 1450 2300 1337 1412 
Q 1225 525 750 -325 
Q 550 -100 250 -50 
z
M 1700 -325 
Q 2250 0 2487 325 
Q 2725 650 2750 1075 
L 1575 1075 
L 1575 1475 
Q 2025 1450 2775 1450 
L 2775 2200 
Q 2175 2200 1775 2175 
L 1775 2625 
Q 2150 2600 2925 2600 
Q 2700 3000 2400 3225 
Q 2675 3350 2800 3500 
Q 3050 3175 3300 2800 
Q 3125 2750 2975 2600 
L 4150 2600 
Q 4450 3200 4475 3475 
Q 4725 3350 5000 3250 
Q 4750 2950 4600 2600 
Q 5300 2600 5750 2625 
L 5750 2175 
Q 5300 2200 4750 2200 
L 4750 1450 
Q 5475 1450 5975 1475 
L 5975 1075 
L 4750 1075 
L 4750 200 
Q 4750 -175 4775 -575 
L 4275 -575 
Q 4300 -175 4300 175 
L 4300 1075 
L 3200 1075 
Q 3150 450 2875 50 
Q 2600 -350 2175 -650 
Q 1950 -475 1700 -325 
z
M 5050 3975 
L 5050 4650 
L 1450 4650 
L 1450 3975 
L 5050 3975 
z
M 4300 1450 
L 4300 2200 
L 3200 2200 
L 3200 1450 
L 4300 1450 
z
" transform="scale(0.015625)"/>
      <path id="SimHei-ff0c" d="M 875 950 
L 1775 950 
L 1775 -50 
Q 1700 -675 1150 -975 
L 900 -750 
Q 1350 -500 1350 0 
L 875 0 
L 875 950 
z
" transform="scale(0.015625)"/>
      <path id="SimHei-4e0d" d="M 5975 4450 
Q 5525 4475 5200 4475 
L 3725 4475 
Q 3550 4125 3300 3700 
L 3300 575 
Q 3300 75 3325 -550 
L 2775 -550 
Q 2800 50 2800 575 
L 2800 3025 
Q 2025 1950 700 1050 
Q 500 1350 325 1475 
Q 825 1700 1650 2437 
Q 2475 3175 3175 4475 
L 1525 4475 
Q 1050 4475 525 4450 
L 525 4950 
Q 1275 4925 1675 4925 
L 5175 4925 
Q 5500 4925 5975 4950 
L 5975 4450 
z
M 5450 1125 
Q 4975 1725 3750 2975 
Q 3950 3150 4075 3325 
Q 4675 2775 5100 2362 
Q 5525 1950 5900 1550 
Q 5650 1350 5450 1125 
z
" transform="scale(0.015625)"/>
      <path id="SimHei-542b" d="M 4525 -575 
L 4525 -200 
L 1850 -200 
L 1850 -625 
L 1325 -625 
Q 1350 -275 1350 275 
Q 1350 850 1325 1450 
L 5050 1450 
Q 5025 1175 5025 425 
Q 5025 -300 5050 -575 
L 4525 -575 
z
M 3350 4850 
Q 3625 4525 4325 4062 
Q 5025 3600 6150 3300 
Q 5850 3075 5750 2750 
Q 5050 3025 4337 3462 
Q 3625 3900 3125 4500 
Q 2500 3800 1912 3387 
Q 1325 2975 625 2650 
Q 550 2850 275 3100 
Q 1100 3325 1862 3925 
Q 2625 4525 2975 5275 
Q 3325 5150 3525 5050 
L 3350 4850 
z
M 4525 200 
L 4525 1050 
L 1850 1050 
L 1850 200 
L 4525 200 
z
M 4775 2875 
Q 4525 2600 4200 2200 
Q 3875 1800 3600 1500 
Q 3425 1675 3250 1750 
Q 3525 2025 3875 2500 
L 1975 2500 
Q 1750 2500 1350 2475 
L 1350 2900 
Q 1750 2875 1975 2875 
L 4775 2875 
z
M 3050 3925 
Q 3425 3400 3475 3225 
Q 3375 3200 3050 3025 
Q 2850 3475 2675 3700 
Q 2925 3800 3050 3925 
z
" transform="scale(0.015625)"/>
      <path id="SimHei-6c60" d="M 2525 3425 
Q 2525 3850 2500 4250 
L 3025 4250 
Q 3000 3750 3000 3450 
L 3000 2975 
L 3800 3225 
L 3800 4250 
Q 3800 4675 3775 5075 
L 4275 5075 
Q 4250 4725 4250 4225 
L 4250 3375 
L 5700 3850 
L 5575 1750 
Q 5550 1350 5375 1237 
Q 5200 1125 4725 1025 
Q 4675 1275 4475 1550 
Q 4850 1575 4975 1625 
Q 5100 1675 5125 2025 
L 5175 3200 
L 4250 2925 
L 4250 1425 
Q 4250 1125 4275 600 
L 3775 600 
Q 3800 1075 3800 1425 
L 3800 2775 
L 3000 2525 
L 3000 400 
Q 3000 -25 3450 25 
L 5125 25 
Q 5375 25 5462 175 
Q 5550 325 5625 850 
Q 5850 675 6175 575 
Q 6050 25 5900 -200 
Q 5750 -425 5225 -425 
L 3200 -425 
Q 2500 -425 2525 325 
L 2525 2350 
L 1975 2150 
L 1850 2625 
L 2525 2825 
L 2525 3425 
z
M 1825 1525 
Q 1675 1300 1375 600 
Q 1075 -100 875 -525 
Q 550 -350 300 -225 
Q 550 75 875 750 
Q 1200 1425 1300 1800 
Q 1525 1650 1825 1525 
z
M 550 3400 
Q 1000 3175 1600 2775 
Q 1425 2575 1275 2300 
Q 825 2675 250 2975 
Q 400 3175 550 3400 
z
M 1050 4950 
Q 1500 4625 2000 4200 
Q 1800 4000 1625 3775 
Q 1200 4200 725 4575 
Q 875 4750 1050 4950 
z
" transform="scale(0.015625)"/>
      <path id="SimHei-2a" d="M 3075 2350 
L 2825 1900 
L 1800 2550 
L 1850 1275 
L 1350 1275 
L 1400 2550 
L 375 1900 
L 125 2350 
L 1200 2900 
L 125 3450 
L 375 3900 
L 1400 3250 
L 1350 4450 
L 1850 4450 
L 1800 3250 
L 2825 3900 
L 3075 3450 
L 2000 2900 
L 3075 2350 
z
" transform="scale(0.015625)"/>
      <path id="SimHei-52" d="M 3000 125 
L 2400 125 
L 1500 1975 
L 850 1975 
L 850 125 
L 275 125 
L 275 4400 
L 1525 4400 
Q 2125 4400 2500 4112 
Q 2875 3825 2875 3175 
Q 2875 2675 2625 2400 
Q 2375 2125 2050 2050 
L 3000 125 
z
M 2300 3175 
Q 2300 3525 2087 3725 
Q 1875 3925 1400 3925 
L 850 3925 
L 850 2450 
L 1550 2450 
Q 1850 2450 2075 2612 
Q 2300 2775 2300 3175 
z
" transform="scale(0.015625)"/>
      <path id="SimHei-ff09" d="M 1000 5100 
Q 2500 3875 2500 2500 
Q 2550 825 1025 -275 
L 750 50 
Q 2075 1025 2100 2350 
Q 2150 3725 725 4775 
L 1000 5100 
z
" transform="scale(0.015625)"/>
     </defs>
     <use xlink:href="#SimHei-5916"/>
     <use xlink:href="#SimHei-7535" transform="translate(100 0)"/>
     <use xlink:href="#SimHei-8def" transform="translate(200 0)"/>
     <use xlink:href="#SimHei-529f" transform="translate(300 0)"/>
     <use xlink:href="#SimHei-8017" transform="translate(400 0)"/>
     <use xlink:href="#SimHei-ff08" transform="translate(500 0)"/>
     <use xlink:href="#SimHei-43" transform="translate(600 0)"/>
     <use xlink:href="#SimHei-50" transform="translate(650 0)"/>
     <use xlink:href="#SimHei-55" transform="translate(700 0)"/>
     <use xlink:href="#SimHei-2f" transform="translate(750 0)"/>
     <use xlink:href="#SimHei-5c4f" transform="translate(800 0)"/>
     <use xlink:href="#SimHei-ff0c" transform="translate(900 0)"/>
     <use xlink:href="#SimHei-4e0d" transform="translate(1000 0)"/>
     <use xlink:href="#SimHei-542b" transform="translate(1100 0)"/>
     <use xlink:href="#SimHei-7535" transform="translate(1200 0)"/>
     <use xlink:href="#SimHei-6c60" transform="translate(1300 0)"/>
     <use xlink:href="#SimHei-20" transform="translate(1400 0)"/>
     <use xlink:href="#SimHei-49" transform="translate(1450 0)"/>
     <use xlink:href="#SimHei-2a" transform="translate(1500 0)"/>
     <use xlink:href="#SimHei-2a" transform="translate(1550 0)"/>
     <use xlink:href="#SimHei-32" transform="translate(1600 0)"/>
     <use xlink:href="#SimHei-2a" transform="translate(1650 0)"/>
     <use xlink:href="#SimHei-52" transform="translate(1700 0)"/>
     <use xlink:href="#SimHei-ff09" transform="translate(1750 0)"/>
    </g>
   </g>
   <g id="legend_2">
    <g id="patch_13">
     <path d="M 471.2 175.302625 
L 558.2 175.302625 
Q 560.2 175.302625 560.2 173.302625 
L 560.2 160.162 
Q 560.2 158.162 558.2 158.162 
L 471.2 158.162 
Q 469.2 158.162 469.2 160.162 
L 469.2 173.302625 
Q 469.2 175.302625 471.2 175.302625 
z
" style="fill: #ffffff; opacity: 0.8; stroke: #cccccc; stroke-linejoin: miter"/>
    </g>
    <g id="line2d_36">
     <path d="M 473.2 166.4745 
L 483.2 166.4745 
L 483.2 166.4745 
L 493.2 166.4745 
L 493.2 166.4745 
" style="fill: none; stroke: #800080; stroke-width: 1.5; stroke-linecap: square"/>
    </g>
    <g id="text_10">
     <!-- P_device(t) -->
     <g transform="translate(501.2 169.9745) scale(0.1 -0.1)">
      <use xlink:href="#SimHei-50"/>
      <use xlink:href="#SimHei-5f" transform="translate(50 0)"/>
      <use xlink:href="#SimHei-64" transform="translate(100 0)"/>
      <use xlink:href="#SimHei-65" transform="translate(150 0)"/>
      <use xlink:href="#SimHei-76" transform="translate(200 0)"/>
      <use xlink:href="#SimHei-69" transform="translate(250 0)"/>
      <use xlink:href="#SimHei-63" transform="translate(300 0)"/>
      <use xlink:href="#SimHei-65" transform="translate(350 0)"/>
      <use xlink:href="#SimHei-28" transform="translate(400 0)"/>
      <use xlink:href="#SimHei-74" transform="translate(450 0)"/>
      <use xlink:href="#SimHei-29" transform="translate(500 0)"/>
     </g>
    </g>
   </g>
  </g>
  <g id="axes_3">
   <g id="patch_14">
    <path d="M 56.225 329.3335 
L 565.2 329.3335 
L 565.2 256.57275 
L 56.225 256.57275 
z
" style="fill: #ffffff"/>
   </g>
   <g id="matplotlib.axis_5">
    <g id="xtick_13">
     <g id="line2d_37">
      <path d="M 79.360227 329.3335 
L 79.360227 256.57275 
" clip-path="url(#p39babbfc78)" style="fill: none; stroke: #b0b0b0; stroke-opacity: 0.3; stroke-width: 0.8; stroke-linecap: square"/>
     </g>
     <g id="line2d_38">
      <g>
       <use xlink:href="#m4271f490ba" x="79.360227" y="329.3335" style="stroke: #000000; stroke-width: 0.8"/>
      </g>
     </g>
    </g>
    <g id="xtick_14">
     <g id="line2d_39">
      <path d="M 171.901136 329.3335 
L 171.901136 256.57275 
" clip-path="url(#p39babbfc78)" style="fill: none; stroke: #b0b0b0; stroke-opacity: 0.3; stroke-width: 0.8; stroke-linecap: square"/>
     </g>
     <g id="line2d_40">
      <g>
       <use xlink:href="#m4271f490ba" x="171.901136" y="329.3335" style="stroke: #000000; stroke-width: 0.8"/>
      </g>
     </g>
    </g>
    <g id="xtick_15">
     <g id="line2d_41">
      <path d="M 264.442045 329.3335 
L 264.442045 256.57275 
" clip-path="url(#p39babbfc78)" style="fill: none; stroke: #b0b0b0; stroke-opacity: 0.3; stroke-width: 0.8; stroke-linecap: square"/>
     </g>
     <g id="line2d_42">
      <g>
       <use xlink:href="#m4271f490ba" x="264.442045" y="329.3335" style="stroke: #000000; stroke-width: 0.8"/>
      </g>
     </g>
    </g>
    <g id="xtick_16">
     <g id="line2d_43">
      <path d="M 356.982955 329.3335 
L 356.982955 256.57275 
" clip-path="url(#p39babbfc78)" style="fill: none; stroke: #b0b0b0; stroke-opacity: 0.3; stroke-width: 0.8; stroke-linecap: square"/>
     </g>
     <g id="line2d_44">
      <g>
       <use xlink:href="#m4271f490ba" x="356.982955" y="329.3335" style="stroke: #000000; stroke-width: 0.8"/>
      </g>
     </g>
    </g>
    <g id="xtick_17">
     <g id="line2d_45">
      <path d="M 449.523864 329.3335 
L 449.523864 256.57275 
" clip-path="url(#p39babbfc78)" style="fill: none; stroke: #b0b0b0; stroke-opacity: 0.3; stroke-width: 0.8; stroke-linecap: square"/>
     </g>
     <g id="line2d_46">
      <g>
       <use xlink:href="#m4271f490ba" x="449.523864" y="329.3335" style="stroke: #000000; stroke-width: 0.8"/>
      </g>
     </g>
    </g>
    <g id="xtick_18">
     <g id="line2d_47">
      <path d="M 542.064773 329.3335 
L 542.064773 256.57275 
" clip-path="url(#p39babbfc78)" style="fill: none; stroke: #b0b0b0; stroke-opacity: 0.3; stroke-width: 0.8; stroke-linecap: square"/>
     </g>
     <g id="line2d_48">
      <g>
       <use xlink:href="#m4271f490ba" x="542.064773" y="329.3335" style="stroke: #000000; stroke-width: 0.8"/>
      </g>
     </g>
    </g>
   </g>
   <g id="matplotlib.axis_6">
    <g id="ytick_5">
     <g id="line2d_49">
      <path d="M 56.225 310.367169 
L 565.2 310.367169 
" clip-path="url(#p39babbfc78)" style="fill: none; stroke: #b0b0b0; stroke-opacity: 0.3; stroke-width: 0.8; stroke-linecap: square"/>
     </g>
     <g id="line2d_50">
      <g>
       <use xlink:href="#mceccc5edf1" x="56.225" y="310.367169" style="stroke: #000000; stroke-width: 0.8"/>
      </g>
     </g>
     <g id="text_11">
      <!-- 4.20 -->
      <g transform="translate(29.225 313.804669) scale(0.1 -0.1)">
       <defs>
        <path id="SimHei-34" d="M 2000 1100 
L 75 1100 
L 75 1525 
L 2100 4450 
L 2475 4450 
L 2475 1525 
L 3075 1525 
L 3075 1100 
L 2475 1100 
L 2475 150 
L 2000 150 
L 2000 1100 
z
M 2000 1525 
L 2000 3500 
L 600 1525 
L 2000 1525 
z
" transform="scale(0.015625)"/>
        <path id="SimHei-2e" d="M 1075 125 
L 500 125 
L 500 675 
L 1075 675 
L 1075 125 
z
" transform="scale(0.015625)"/>
       </defs>
       <use xlink:href="#SimHei-34"/>
       <use xlink:href="#SimHei-2e" transform="translate(50 0)"/>
       <use xlink:href="#SimHei-32" transform="translate(100 0)"/>
       <use xlink:href="#SimHei-30" transform="translate(150 0)"/>
      </g>
     </g>
    </g>
    <g id="ytick_6">
     <g id="line2d_51">
      <path d="M 56.225 284.071798 
L 565.2 284.071798 
" clip-path="url(#p39babbfc78)" style="fill: none; stroke: #b0b0b0; stroke-opacity: 0.3; stroke-width: 0.8; stroke-linecap: square"/>
     </g>
     <g id="line2d_52">
      <g>
       <use xlink:href="#mceccc5edf1" x="56.225" y="284.071798" style="stroke: #000000; stroke-width: 0.8"/>
      </g>
     </g>
     <g id="text_12">
      <!-- 4.25 -->
      <g transform="translate(29.225 287.509298) scale(0.1 -0.1)">
       <defs>
        <path id="SimHei-35" d="M 550 1325 
Q 725 650 1150 575 
Q 1575 500 1837 662 
Q 2100 825 2212 1087 
Q 2325 1350 2312 1675 
Q 2300 2000 2137 2225 
Q 1975 2450 1725 2525 
Q 1475 2600 1162 2525 
Q 850 2450 650 2175 
L 225 2225 
Q 275 2375 700 4375 
L 2675 4375 
L 2675 3925 
L 1075 3925 
Q 950 3250 825 2850 
Q 1200 3025 1525 3012 
Q 1850 3000 2150 2862 
Q 2450 2725 2587 2487 
Q 2725 2250 2787 2012 
Q 2850 1775 2837 1500 
Q 2825 1225 2725 937 
Q 2625 650 2425 462 
Q 2225 275 1937 162 
Q 1650 50 1275 75 
Q 900 100 562 350 
Q 225 600 100 1200 
L 550 1325 
z
" transform="scale(0.015625)"/>
       </defs>
       <use xlink:href="#SimHei-34"/>
       <use xlink:href="#SimHei-2e" transform="translate(50 0)"/>
       <use xlink:href="#SimHei-32" transform="translate(100 0)"/>
       <use xlink:href="#SimHei-35" transform="translate(150 0)"/>
      </g>
     </g>
    </g>
    <g id="ytick_7">
     <g id="line2d_53">
      <path d="M 56.225 257.776427 
L 565.2 257.776427 
" clip-path="url(#p39babbfc78)" style="fill: none; stroke: #b0b0b0; stroke-opacity: 0.3; stroke-width: 0.8; stroke-linecap: square"/>
     </g>
     <g id="line2d_54">
      <g>
       <use xlink:href="#mceccc5edf1" x="56.225" y="257.776427" style="stroke: #000000; stroke-width: 0.8"/>
      </g>
     </g>
     <g id="text_13">
      <!-- 4.30 -->
      <g transform="translate(29.225 261.213927) scale(0.1 -0.1)">
       <defs>
        <path id="SimHei-33" d="M 250 1225 
L 700 1300 
Q 800 975 1025 762 
Q 1250 550 1587 562 
Q 1925 575 2125 837 
Q 2325 1100 2300 1437 
Q 2275 1775 2037 1962 
Q 1800 2150 1275 2225 
L 1275 2550 
Q 1800 2600 2037 2825 
Q 2275 3050 2250 3412 
Q 2225 3775 1925 3937 
Q 1625 4100 1287 3975 
Q 950 3850 750 3275 
L 300 3350 
Q 450 3800 712 4100 
Q 975 4400 1425 4450 
Q 1875 4500 2212 4337 
Q 2550 4175 2687 3837 
Q 2825 3500 2725 3100 
Q 2625 2700 2150 2400 
Q 2500 2250 2687 1950 
Q 2875 1650 2812 1162 
Q 2750 675 2375 375 
Q 2000 75 1525 87 
Q 1050 100 700 387 
Q 350 675 250 1225 
z
" transform="scale(0.015625)"/>
       </defs>
       <use xlink:href="#SimHei-34"/>
       <use xlink:href="#SimHei-2e" transform="translate(50 0)"/>
       <use xlink:href="#SimHei-33" transform="translate(100 0)"/>
       <use xlink:href="#SimHei-30" transform="translate(150 0)"/>
      </g>
     </g>
    </g>
    <g id="text_14">
     <!-- Voltage [V] -->
     <g transform="translate(23.975 320.453125) rotate(-90) scale(0.1 -0.1)">
      <defs>
       <path id="SimHei-56" d="M 3050 4400 
L 1800 75 
L 1300 75 
L 50 4400 
L 650 4400 
L 1525 1125 
L 1575 1125 
L 2450 4400 
L 3050 4400 
z
" transform="scale(0.015625)"/>
       <path id="SimHei-6f" d="M 2925 1525 
Q 2925 875 2525 475 
Q 2125 75 1575 75 
Q 1025 75 625 475 
Q 225 875 225 1525 
Q 225 2175 625 2575 
Q 1025 2975 1575 2975 
Q 2125 2975 2525 2575 
Q 2925 2175 2925 1525 
z
M 2375 1525 
Q 2375 2025 2125 2275 
Q 1875 2525 1575 2525 
Q 1275 2525 1025 2275 
Q 775 2025 775 1525 
Q 775 1025 1025 775 
Q 1275 525 1575 525 
Q 1875 525 2125 775 
Q 2375 1025 2375 1525 
z
" transform="scale(0.015625)"/>
       <path id="SimHei-6c" d="M 1825 125 
L 1325 125 
L 1325 4400 
L 1825 4400 
L 1825 125 
z
" transform="scale(0.015625)"/>
       <path id="SimHei-61" d="M 2875 125 
L 2275 125 
Q 2225 175 2200 262 
Q 2175 350 2175 475 
Q 2000 275 1750 175 
Q 1500 75 1225 75 
Q 825 75 550 275 
Q 275 475 275 850 
Q 275 1225 525 1450 
Q 775 1675 1300 1750 
Q 1650 1800 1912 1875 
Q 2175 1950 2175 2075 
Q 2175 2225 2062 2375 
Q 1950 2525 1575 2525 
Q 1275 2525 1137 2412 
Q 1000 2300 950 2100 
L 400 2100 
Q 450 2500 762 2737 
Q 1075 2975 1575 2975 
Q 2125 2975 2400 2725 
Q 2675 2475 2675 2025 
L 2675 650 
Q 2675 500 2725 375 
Q 2775 250 2875 125 
z
M 2175 1050 
L 2175 1550 
Q 2025 1500 1887 1462 
Q 1750 1425 1425 1375 
Q 1050 1325 937 1200 
Q 825 1075 825 900 
Q 825 750 937 637 
Q 1050 525 1275 525 
Q 1500 525 1762 650 
Q 2025 775 2175 1050 
z
" transform="scale(0.015625)"/>
       <path id="SimHei-67" d="M 2975 2500 
Q 2800 2550 2637 2562 
Q 2475 2575 2300 2525 
Q 2375 2450 2425 2337 
Q 2475 2225 2475 2000 
Q 2475 1575 2187 1300 
Q 1900 1025 1475 1025 
Q 1375 1025 1212 1062 
Q 1050 1100 950 1150 
Q 875 1100 850 1050 
Q 825 1000 825 925 
Q 825 800 1000 737 
Q 1175 675 1625 675 
Q 2350 675 2612 475 
Q 2875 275 2875 -25 
Q 2875 -425 2487 -612 
Q 2100 -800 1575 -800 
Q 900 -800 575 -625 
Q 250 -450 250 -150 
Q 250 0 375 150 
Q 500 300 700 400 
Q 550 475 462 587 
Q 375 700 375 875 
Q 375 1025 487 1137 
Q 600 1250 750 1325 
Q 625 1450 550 1625 
Q 475 1800 475 2000 
Q 475 2425 762 2700 
Q 1050 2975 1475 2975 
Q 1700 2975 1862 2912 
Q 2025 2850 2150 2725 
Q 2350 2875 2550 2937 
Q 2750 3000 2975 2975 
L 2975 2500 
z
M 1975 2000 
Q 1975 2250 1850 2400 
Q 1725 2550 1475 2550 
Q 1225 2550 1100 2400 
Q 975 2250 975 2000 
Q 975 1750 1100 1600 
Q 1225 1450 1475 1450 
Q 1725 1450 1850 1600 
Q 1975 1750 1975 2000 
z
M 2400 -75 
Q 2400 25 2287 125 
Q 2175 225 1725 225 
Q 1625 225 1450 237 
Q 1275 250 1050 275 
Q 850 200 775 100 
Q 700 0 700 -100 
Q 700 -250 900 -350 
Q 1100 -450 1600 -450 
Q 2025 -450 2212 -337 
Q 2400 -225 2400 -75 
z
" transform="scale(0.015625)"/>
      </defs>
      <use xlink:href="#SimHei-56"/>
      <use xlink:href="#SimHei-6f" transform="translate(50 0)"/>
      <use xlink:href="#SimHei-6c" transform="translate(100 0)"/>
      <use xlink:href="#SimHei-74" transform="translate(150 0)"/>
      <use xlink:href="#SimHei-61" transform="translate(200 0)"/>
      <use xlink:href="#SimHei-67" transform="translate(250 0)"/>
      <use xlink:href="#SimHei-65" transform="translate(300 0)"/>
      <use xlink:href="#SimHei-20" transform="translate(350 0)"/>
      <use xlink:href="#SimHei-5b" transform="translate(400 0)"/>
      <use xlink:href="#SimHei-56" transform="translate(450 0)"/>
      <use xlink:href="#SimHei-5d" transform="translate(500 0)"/>
     </g>
    </g>
   </g>
   <g id="line2d_55">
    <path d="M 79.360227 259.880057 
L 80.516989 260.470539 
L 82.059337 260.989357 
L 83.987273 261.380957 
L 86.686383 261.675675 
L 90.799312 261.875134 
L 98.639583 261.994083 
L 126.144798 262.079266 
L 171.901136 262.195085 
L 172.029665 302.842964 
L 172.80084 309.723642 
L 173.572014 314.88241 
L 174.343188 318.692838 
L 175.114362 321.449981 
L 175.885537 323.386147 
L 176.656711 324.683872 
L 177.299356 325.381688 
L 177.942001 325.801575 
L 178.584646 325.997522 
L 179.355821 325.998145 
L 180.255524 325.749978 
L 181.283756 325.225862 
L 182.697576 324.223377 
L 184.625511 322.551864 
L 189.124028 318.243765 
L 193.108428 314.595135 
L 196.450183 311.83163 
L 199.791938 309.357074 
L 203.262222 307.072799 
L 206.861035 304.977306 
L 210.588378 303.062606 
L 214.572778 301.263924 
L 218.814236 299.59078 
L 223.441282 298.007836 
L 228.453914 296.534953 
L 233.852134 295.186049 
L 239.76447 293.945256 
L 246.190922 292.830125 
L 253.260019 291.835617 
L 260.971761 290.97808 
L 269.583207 290.248172 
L 279.222885 289.659929 
L 290.019324 289.228452 
L 302.229583 288.966392 
L 310.7125 288.896525 
L 310.841029 276.919229 
L 311.355145 273.09289 
L 311.869261 270.981695 
L 312.383378 269.771595 
L 312.897494 269.056316 
L 313.540139 268.536269 
L 314.311313 268.201941 
L 315.468074 267.975892 
L 317.39601 267.872777 
L 322.151585 267.918808 
L 448.367102 270.217247 
L 499.52166 270.75875 
L 542.064773 271.076221 
L 542.064773 271.076221 
" clip-path="url(#p39babbfc78)" style="fill: none; stroke: #0000ff; stroke-width: 1.5; stroke-linecap: square"/>
   </g>
   <g id="line2d_56">
    <path d="M 171.901136 329.3335 
L 171.901136 256.57275 
" clip-path="url(#p39babbfc78)" style="fill: none; stroke-dasharray: 5.55,2.4; stroke-dashoffset: 0; stroke: #808080; stroke-opacity: 0.5; stroke-width: 1.5"/>
   </g>
   <g id="line2d_57">
    <path d="M 310.7125 329.3335 
L 310.7125 256.57275 
" clip-path="url(#p39babbfc78)" style="fill: none; stroke-dasharray: 5.55,2.4; stroke-dashoffset: 0; stroke: #808080; stroke-opacity: 0.5; stroke-width: 1.5"/>
   </g>
   <g id="patch_15">
    <path d="M 56.225 329.3335 
L 56.225 256.57275 
" style="fill: none; stroke: #000000; stroke-width: 0.8; stroke-linejoin: miter; stroke-linecap: square"/>
   </g>
   <g id="patch_16">
    <path d="M 565.2 329.3335 
L 565.2 256.57275 
" style="fill: none; stroke: #000000; stroke-width: 0.8; stroke-linejoin: miter; stroke-linecap: square"/>
   </g>
   <g id="patch_17">
    <path d="M 56.225 329.3335 
L 565.2 329.3335 
" style="fill: none; stroke: #000000; stroke-width: 0.8; stroke-linejoin: miter; stroke-linecap: square"/>
   </g>
   <g id="patch_18">
    <path d="M 56.225 256.57275 
L 565.2 256.57275 
" style="fill: none; stroke: #000000; stroke-width: 0.8; stroke-linejoin: miter; stroke-linecap: square"/>
   </g>
   <g id="legend_3">
    <g id="patch_19">
     <path d="M 63.225 324.3335 
L 125.225 324.3335 
Q 127.225 324.3335 127.225 322.3335 
L 127.225 310.005375 
Q 127.225 308.005375 125.225 308.005375 
L 63.225 308.005375 
Q 61.225 308.005375 61.225 310.005375 
L 61.225 322.3335 
Q 61.225 324.3335 63.225 324.3335 
z
" style="fill: #ffffff; opacity: 0.8; stroke: #cccccc; stroke-linejoin: miter"/>
    </g>
    <g id="line2d_58">
     <path d="M 65.225 315.505375 
L 75.225 315.505375 
L 85.225 315.505375 
" style="fill: none; stroke: #0000ff; stroke-width: 1.5; stroke-linecap: square"/>
    </g>
    <g id="text_15">
     <!-- V_cell -->
     <g transform="translate(93.225 319.005375) scale(0.1 -0.1)">
      <use xlink:href="#SimHei-56"/>
      <use xlink:href="#SimHei-5f" transform="translate(50 0)"/>
      <use xlink:href="#SimHei-63" transform="translate(100 0)"/>
      <use xlink:href="#SimHei-65" transform="translate(150 0)"/>
      <use xlink:href="#SimHei-6c" transform="translate(200 0)"/>
      <use xlink:href="#SimHei-6c" transform="translate(250 0)"/>
     </g>
    </g>
   </g>
  </g>
  <g id="axes_4">
   <g id="patch_20">
    <path d="M 56.225 432.74425 
L 565.2 432.74425 
L 565.2 359.9835 
L 56.225 359.9835 
z
" style="fill: #ffffff"/>
   </g>
   <g id="matplotlib.axis_7">
    <g id="xtick_19">
     <g id="line2d_59">
      <path d="M 79.360227 432.74425 
L 79.360227 359.9835 
" clip-path="url(#pb3bc8e986b)" style="fill: none; stroke: #b0b0b0; stroke-opacity: 0.3; stroke-width: 0.8; stroke-linecap: square"/>
     </g>
     <g id="line2d_60">
      <g>
       <use xlink:href="#m4271f490ba" x="79.360227" y="432.74425" style="stroke: #000000; stroke-width: 0.8"/>
      </g>
     </g>
    </g>
    <g id="xtick_20">
     <g id="line2d_61">
      <path d="M 171.901136 432.74425 
L 171.901136 359.9835 
" clip-path="url(#pb3bc8e986b)" style="fill: none; stroke: #b0b0b0; stroke-opacity: 0.3; stroke-width: 0.8; stroke-linecap: square"/>
     </g>
     <g id="line2d_62">
      <g>
       <use xlink:href="#m4271f490ba" x="171.901136" y="432.74425" style="stroke: #000000; stroke-width: 0.8"/>
      </g>
     </g>
    </g>
    <g id="xtick_21">
     <g id="line2d_63">
      <path d="M 264.442045 432.74425 
L 264.442045 359.9835 
" clip-path="url(#pb3bc8e986b)" style="fill: none; stroke: #b0b0b0; stroke-opacity: 0.3; stroke-width: 0.8; stroke-linecap: square"/>
     </g>
     <g id="line2d_64">
      <g>
       <use xlink:href="#m4271f490ba" x="264.442045" y="432.74425" style="stroke: #000000; stroke-width: 0.8"/>
      </g>
     </g>
    </g>
    <g id="xtick_22">
     <g id="line2d_65">
      <path d="M 356.982955 432.74425 
L 356.982955 359.9835 
" clip-path="url(#pb3bc8e986b)" style="fill: none; stroke: #b0b0b0; stroke-opacity: 0.3; stroke-width: 0.8; stroke-linecap: square"/>
     </g>
     <g id="line2d_66">
      <g>
       <use xlink:href="#m4271f490ba" x="356.982955" y="432.74425" style="stroke: #000000; stroke-width: 0.8"/>
      </g>
     </g>
    </g>
    <g id="xtick_23">
     <g id="line2d_67">
      <path d="M 449.523864 432.74425 
L 449.523864 359.9835 
" clip-path="url(#pb3bc8e986b)" style="fill: none; stroke: #b0b0b0; stroke-opacity: 0.3; stroke-width: 0.8; stroke-linecap: square"/>
     </g>
     <g id="line2d_68">
      <g>
       <use xlink:href="#m4271f490ba" x="449.523864" y="432.74425" style="stroke: #000000; stroke-width: 0.8"/>
      </g>
     </g>
    </g>
    <g id="xtick_24">
     <g id="line2d_69">
      <path d="M 542.064773 432.74425 
L 542.064773 359.9835 
" clip-path="url(#pb3bc8e986b)" style="fill: none; stroke: #b0b0b0; stroke-opacity: 0.3; stroke-width: 0.8; stroke-linecap: square"/>
     </g>
     <g id="line2d_70">
      <g>
       <use xlink:href="#m4271f490ba" x="542.064773" y="432.74425" style="stroke: #000000; stroke-width: 0.8"/>
      </g>
     </g>
    </g>
   </g>
   <g id="matplotlib.axis_8">
    <g id="ytick_8">
     <g id="line2d_71">
      <path d="M 56.225 400.312898 
L 565.2 400.312898 
" clip-path="url(#pb3bc8e986b)" style="fill: none; stroke: #b0b0b0; stroke-opacity: 0.3; stroke-width: 0.8; stroke-linecap: square"/>
     </g>
     <g id="line2d_72">
      <g>
       <use xlink:href="#mceccc5edf1" x="56.225" y="400.312898" style="stroke: #000000; stroke-width: 0.8"/>
      </g>
     </g>
     <g id="text_16">
      <!-- 0.995 -->
      <g transform="translate(24.225 403.750398) scale(0.1 -0.1)">
       <defs>
        <path id="SimHei-39" d="M 800 75 
Q 1350 1000 1700 1750 
Q 1075 1650 662 1912 
Q 250 2175 162 2625 
Q 75 3075 175 3437 
Q 275 3800 487 4037 
Q 700 4275 1000 4375 
Q 1300 4475 1537 4475 
Q 1775 4475 2025 4375 
Q 2275 4275 2475 4075 
Q 2675 3875 2750 3662 
Q 2825 3450 2825 3112 
Q 2825 2775 2575 2250 
Q 2325 1725 1350 75 
L 800 75 
z
M 662 2875 
Q 700 2550 937 2337 
Q 1175 2125 1450 2150 
Q 1725 2175 1887 2300 
Q 2050 2425 2200 2725 
Q 2300 3100 2250 3362 
Q 2200 3625 1987 3800 
Q 1775 3975 1525 3975 
Q 1375 4000 1137 3900 
Q 900 3800 762 3500 
Q 625 3200 662 2875 
z
" transform="scale(0.015625)"/>
       </defs>
       <use xlink:href="#SimHei-30"/>
       <use xlink:href="#SimHei-2e" transform="translate(50 0)"/>
       <use xlink:href="#SimHei-39" transform="translate(100 0)"/>
       <use xlink:href="#SimHei-39" transform="translate(150 0)"/>
       <use xlink:href="#SimHei-35" transform="translate(200 0)"/>
      </g>
     </g>
    </g>
    <g id="ytick_9">
     <g id="line2d_73">
      <path d="M 56.225 363.290807 
L 565.2 363.290807 
" clip-path="url(#pb3bc8e986b)" style="fill: none; stroke: #b0b0b0; stroke-opacity: 0.3; stroke-width: 0.8; stroke-linecap: square"/>
     </g>
     <g id="line2d_74">
      <g>
       <use xlink:href="#mceccc5edf1" x="56.225" y="363.290807" style="stroke: #000000; stroke-width: 0.8"/>
      </g>
     </g>
     <g id="text_17">
      <!-- 1.000 -->
      <g transform="translate(24.225 366.728307) scale(0.1 -0.1)">
       <use xlink:href="#SimHei-31"/>
       <use xlink:href="#SimHei-2e" transform="translate(50 0)"/>
       <use xlink:href="#SimHei-30" transform="translate(100 0)"/>
       <use xlink:href="#SimHei-30" transform="translate(150 0)"/>
       <use xlink:href="#SimHei-30" transform="translate(200 0)"/>
      </g>
     </g>
    </g>
    <g id="text_18">
     <!-- SOC [-] -->
     <g transform="translate(18.975 413.863875) rotate(-90) scale(0.1 -0.1)">
      <defs>
       <path id="SimHei-53" d="M 2900 1325 
Q 2900 750 2537 412 
Q 2175 75 1550 75 
Q 925 75 575 425 
Q 225 775 225 1300 
L 225 1475 
L 800 1475 
L 800 1325 
Q 800 950 1025 750 
Q 1250 550 1550 550 
Q 1950 550 2137 762 
Q 2325 975 2325 1275 
Q 2325 1525 2100 1737 
Q 1875 1950 1450 2125 
Q 850 2350 587 2625 
Q 325 2900 325 3275 
Q 325 3800 687 4125 
Q 1050 4450 1550 4450 
Q 2200 4450 2487 4062 
Q 2775 3675 2775 3225 
L 2200 3225 
Q 2225 3500 2050 3725 
Q 1875 3950 1550 3950 
Q 1250 3950 1075 3787 
Q 900 3625 900 3350 
Q 900 3125 1037 2962 
Q 1175 2800 1750 2575 
Q 2300 2350 2600 2037 
Q 2900 1725 2900 1325 
z
" transform="scale(0.015625)"/>
       <path id="SimHei-4f" d="M 2950 2275 
Q 2950 1100 2587 587 
Q 2225 75 1575 75 
Q 925 75 550 587 
Q 175 1100 175 2275 
Q 175 3450 550 3950 
Q 925 4450 1575 4450 
Q 2225 4450 2587 3950 
Q 2950 3450 2950 2275 
z
M 2350 2275 
Q 2350 3325 2125 3650 
Q 1900 3975 1575 3975 
Q 1250 3975 1012 3650 
Q 775 3325 775 2275 
Q 775 1225 1012 887 
Q 1250 550 1575 550 
Q 1900 550 2125 887 
Q 2350 1225 2350 2275 
z
" transform="scale(0.015625)"/>
       <path id="SimHei-2d" d="M 2975 2125 
L 125 2125 
L 125 2525 
L 2975 2525 
L 2975 2125 
z
" transform="scale(0.015625)"/>
      </defs>
      <use xlink:href="#SimHei-53"/>
      <use xlink:href="#SimHei-4f" transform="translate(50 0)"/>
      <use xlink:href="#SimHei-43" transform="translate(100 0)"/>
      <use xlink:href="#SimHei-20" transform="translate(150 0)"/>
      <use xlink:href="#SimHei-5b" transform="translate(200 0)"/>
      <use xlink:href="#SimHei-2d" transform="translate(250 0)"/>
      <use xlink:href="#SimHei-5d" transform="translate(300 0)"/>
     </g>
    </g>
   </g>
   <g id="line2d_75">
    <path d="M 79.360227 363.290807 
L 172.158194 365.375013 
L 310.969558 424.506149 
L 542.064773 429.436943 
L 542.064773 429.436943 
" clip-path="url(#pb3bc8e986b)" style="fill: none; stroke: #008000; stroke-width: 1.5; stroke-linecap: square"/>
   </g>
   <g id="patch_21">
    <path d="M 56.225 432.74425 
L 56.225 359.9835 
" style="fill: none; stroke: #000000; stroke-width: 0.8; stroke-linejoin: miter; stroke-linecap: square"/>
   </g>
   <g id="patch_22">
    <path d="M 565.2 432.74425 
L 565.2 359.9835 
" style="fill: none; stroke: #000000; stroke-width: 0.8; stroke-linejoin: miter; stroke-linecap: square"/>
   </g>
   <g id="patch_23">
    <path d="M 56.225 432.74425 
L 565.2 432.74425 
" style="fill: none; stroke: #000000; stroke-width: 0.8; stroke-linejoin: miter; stroke-linecap: square"/>
   </g>
   <g id="patch_24">
    <path d="M 56.225 359.9835 
L 565.2 359.9835 
" style="fill: none; stroke: #000000; stroke-width: 0.8; stroke-linejoin: miter; stroke-linecap: square"/>
   </g>
   <g id="legend_4">
    <g id="patch_25">
     <path d="M 511.2 381.2335 
L 558.2 381.2335 
Q 560.2 381.2335 560.2 379.2335 
L 560.2 366.9835 
Q 560.2 364.9835 558.2 364.9835 
L 511.2 364.9835 
Q 509.2 364.9835 509.2 366.9835 
L 509.2 379.2335 
Q 509.2 381.2335 511.2 381.2335 
z
" style="fill: #ffffff; opacity: 0.8; stroke: #cccccc; stroke-linejoin: miter"/>
    </g>
    <g id="line2d_76">
     <path d="M 513.2 372.4835 
L 523.2 372.4835 
L 533.2 372.4835 
" style="fill: none; stroke: #008000; stroke-width: 1.5; stroke-linecap: square"/>
    </g>
    <g id="text_19">
     <!-- SOC -->
     <g transform="translate(541.2 375.9835) scale(0.1 -0.1)">
      <use xlink:href="#SimHei-53"/>
      <use xlink:href="#SimHei-4f" transform="translate(50 0)"/>
      <use xlink:href="#SimHei-43" transform="translate(100 0)"/>
     </g>
    </g>
   </g>
  </g>
  <g id="axes_5">
   <g id="patch_26">
    <path d="M 56.225 536.155 
L 565.2 536.155 
L 565.2 463.39425 
L 56.225 463.39425 
z
" style="fill: #ffffff"/>
   </g>
   <g id="matplotlib.axis_9">
    <g id="xtick_25">
     <g id="line2d_77">
      <path d="M 79.360227 536.155 
L 79.360227 463.39425 
" clip-path="url(#p38693b0ff1)" style="fill: none; stroke: #b0b0b0; stroke-opacity: 0.3; stroke-width: 0.8; stroke-linecap: square"/>
     </g>
     <g id="line2d_78">
      <g>
       <use xlink:href="#m4271f490ba" x="79.360227" y="536.155" style="stroke: #000000; stroke-width: 0.8"/>
      </g>
     </g>
     <g id="text_20">
      <!-- 0.0 -->
      <g transform="translate(71.860227 550.03) scale(0.1 -0.1)">
       <use xlink:href="#SimHei-30"/>
       <use xlink:href="#SimHei-2e" transform="translate(50 0)"/>
       <use xlink:href="#SimHei-30" transform="translate(100 0)"/>
      </g>
     </g>
    </g>
    <g id="xtick_26">
     <g id="line2d_79">
      <path d="M 171.901136 536.155 
L 171.901136 463.39425 
" clip-path="url(#p38693b0ff1)" style="fill: none; stroke: #b0b0b0; stroke-opacity: 0.3; stroke-width: 0.8; stroke-linecap: square"/>
     </g>
     <g id="line2d_80">
      <g>
       <use xlink:href="#m4271f490ba" x="171.901136" y="536.155" style="stroke: #000000; stroke-width: 0.8"/>
      </g>
     </g>
     <g id="text_21">
      <!-- 0.2 -->
      <g transform="translate(164.401136 550.03) scale(0.1 -0.1)">
       <use xlink:href="#SimHei-30"/>
       <use xlink:href="#SimHei-2e" transform="translate(50 0)"/>
       <use xlink:href="#SimHei-32" transform="translate(100 0)"/>
      </g>
     </g>
    </g>
    <g id="xtick_27">
     <g id="line2d_81">
      <path d="M 264.442045 536.155 
L 264.442045 463.39425 
" clip-path="url(#p38693b0ff1)" style="fill: none; stroke: #b0b0b0; stroke-opacity: 0.3; stroke-width: 0.8; stroke-linecap: square"/>
     </g>
     <g id="line2d_82">
      <g>
       <use xlink:href="#m4271f490ba" x="264.442045" y="536.155" style="stroke: #000000; stroke-width: 0.8"/>
      </g>
     </g>
     <g id="text_22">
      <!-- 0.4 -->
      <g transform="translate(256.942045 550.03) scale(0.1 -0.1)">
       <use xlink:href="#SimHei-30"/>
       <use xlink:href="#SimHei-2e" transform="translate(50 0)"/>
       <use xlink:href="#SimHei-34" transform="translate(100 0)"/>
      </g>
     </g>
    </g>
    <g id="xtick_28">
     <g id="line2d_83">
      <path d="M 356.982955 536.155 
L 356.982955 463.39425 
" clip-path="url(#p38693b0ff1)" style="fill: none; stroke: #b0b0b0; stroke-opacity: 0.3; stroke-width: 0.8; stroke-linecap: square"/>
     </g>
     <g id="line2d_84">
      <g>
       <use xlink:href="#m4271f490ba" x="356.982955" y="536.155" style="stroke: #000000; stroke-width: 0.8"/>
      </g>
     </g>
     <g id="text_23">
      <!-- 0.6 -->
      <g transform="translate(349.482955 550.03) scale(0.1 -0.1)">
       <defs>
        <path id="SimHei-36" d="M 250 1612 
Q 275 1975 387 2225 
Q 500 2475 725 2850 
L 1750 4450 
L 2325 4450 
L 1275 2800 
Q 1950 2975 2350 2750 
Q 2750 2525 2887 2237 
Q 3025 1950 3037 1612 
Q 3050 1275 2937 950 
Q 2825 625 2537 362 
Q 2250 100 1737 75 
Q 1225 50 862 262 
Q 500 475 362 862 
Q 225 1250 250 1612 
z
M 1025 787 
Q 1250 550 1625 525 
Q 2000 500 2250 775 
Q 2500 1050 2500 1575 
Q 2500 2100 2187 2300 
Q 1875 2500 1487 2450 
Q 1100 2400 925 2075 
Q 750 1750 775 1387 
Q 800 1025 1025 787 
z
" transform="scale(0.015625)"/>
       </defs>
       <use xlink:href="#SimHei-30"/>
       <use xlink:href="#SimHei-2e" transform="translate(50 0)"/>
       <use xlink:href="#SimHei-36" transform="translate(100 0)"/>
      </g>
     </g>
    </g>
    <g id="xtick_29">
     <g id="line2d_85">
      <path d="M 449.523864 536.155 
L 449.523864 463.39425 
" clip-path="url(#p38693b0ff1)" style="fill: none; stroke: #b0b0b0; stroke-opacity: 0.3; stroke-width: 0.8; stroke-linecap: square"/>
     </g>
     <g id="line2d_86">
      <g>
       <use xlink:href="#m4271f490ba" x="449.523864" y="536.155" style="stroke: #000000; stroke-width: 0.8"/>
      </g>
     </g>
     <g id="text_24">
      <!-- 0.8 -->
      <g transform="translate(442.023864 550.03) scale(0.1 -0.1)">
       <defs>
        <path id="SimHei-38" d="M 175 1375 
Q 175 1675 325 1962 
Q 475 2250 825 2425 
Q 525 2600 425 2812 
Q 325 3025 312 3300 
Q 300 3575 387 3775 
Q 475 3975 650 4150 
Q 825 4325 1037 4387 
Q 1250 4450 1500 4450 
Q 1750 4450 1950 4400 
Q 2150 4350 2375 4187 
Q 2600 4025 2700 3725 
Q 2800 3425 2687 3025 
Q 2575 2625 2100 2400 
Q 2525 2275 2700 2012 
Q 2875 1750 2875 1375 
Q 2875 1000 2762 775 
Q 2650 550 2512 400 
Q 2375 250 2137 162 
Q 1900 75 1537 75 
Q 1175 75 912 162 
Q 650 250 475 425 
Q 300 600 237 837 
Q 175 1075 175 1375 
z
M 687 1400 
Q 675 1100 787 875 
Q 900 650 1200 587 
Q 1500 525 1825 600 
Q 2150 675 2275 950 
Q 2400 1225 2362 1500 
Q 2325 1775 2050 1962 
Q 1775 2150 1450 2125 
Q 1125 2100 912 1900 
Q 700 1700 687 1400 
z
M 775 3350 
Q 775 3100 950 2875 
Q 1125 2650 1500 2650 
Q 1875 2650 2062 2875 
Q 2250 3100 2237 3412 
Q 2225 3725 2012 3875 
Q 1800 4025 1437 4000 
Q 1075 3975 925 3787 
Q 775 3600 775 3350 
z
" transform="scale(0.015625)"/>
       </defs>
       <use xlink:href="#SimHei-30"/>
       <use xlink:href="#SimHei-2e" transform="translate(50 0)"/>
       <use xlink:href="#SimHei-38" transform="translate(100 0)"/>
      </g>
     </g>
    </g>
    <g id="xtick_30">
     <g id="line2d_87">
      <path d="M 542.064773 536.155 
L 542.064773 463.39425 
" clip-path="url(#p38693b0ff1)" style="fill: none; stroke: #b0b0b0; stroke-opacity: 0.3; stroke-width: 0.8; stroke-linecap: square"/>
     </g>
     <g id="line2d_88">
      <g>
       <use xlink:href="#m4271f490ba" x="542.064773" y="536.155" style="stroke: #000000; stroke-width: 0.8"/>
      </g>
     </g>
     <g id="text_25">
      <!-- 1.0 -->
      <g transform="translate(534.564773 550.03) scale(0.1 -0.1)">
       <use xlink:href="#SimHei-31"/>
       <use xlink:href="#SimHei-2e" transform="translate(50 0)"/>
       <use xlink:href="#SimHei-30" transform="translate(100 0)"/>
      </g>
     </g>
    </g>
    <g id="text_26">
     <!-- Time [h] -->
     <g transform="translate(290.7125 562.740937) scale(0.1 -0.1)">
      <defs>
       <path id="SimHei-54" d="M 2850 3925 
L 1850 3925 
L 1850 125 
L 1275 125 
L 1275 3925 
L 275 3925 
L 275 4400 
L 2850 4400 
L 2850 3925 
z
" transform="scale(0.015625)"/>
       <path id="SimHei-6d" d="M 3050 125 
L 2550 125 
L 2550 2150 
Q 2550 2300 2500 2400 
Q 2450 2500 2300 2500 
Q 2125 2500 1975 2312 
Q 1825 2125 1825 1825 
L 1825 125 
L 1325 125 
L 1325 2150 
Q 1325 2300 1275 2400 
Q 1225 2500 1075 2500 
Q 900 2500 750 2312 
Q 600 2125 600 1825 
L 600 125 
L 100 125 
L 100 2925 
L 600 2925 
L 600 2550 
Q 725 2750 900 2862 
Q 1075 2975 1275 2975 
Q 1475 2975 1612 2862 
Q 1750 2750 1800 2550 
Q 1925 2750 2087 2862 
Q 2250 2975 2450 2975 
Q 2750 2975 2900 2812 
Q 3050 2650 3050 2350 
L 3050 125 
z
" transform="scale(0.015625)"/>
       <path id="SimHei-68" d="M 2800 125 
L 2300 125 
L 2300 1925 
Q 2300 2225 2150 2400 
Q 2000 2575 1750 2575 
Q 1425 2575 1137 2237 
Q 850 1900 850 1400 
L 850 125 
L 350 125 
L 350 4400 
L 850 4400 
L 850 2400 
Q 1050 2675 1287 2825 
Q 1525 2975 1900 2975 
Q 2350 2975 2575 2725 
Q 2800 2475 2800 2100 
L 2800 125 
z
" transform="scale(0.015625)"/>
      </defs>
      <use xlink:href="#SimHei-54"/>
      <use xlink:href="#SimHei-69" transform="translate(50 0)"/>
      <use xlink:href="#SimHei-6d" transform="translate(100 0)"/>
      <use xlink:href="#SimHei-65" transform="translate(150 0)"/>
      <use xlink:href="#SimHei-20" transform="translate(200 0)"/>
      <use xlink:href="#SimHei-5b" transform="translate(250 0)"/>
      <use xlink:href="#SimHei-68" transform="translate(300 0)"/>
      <use xlink:href="#SimHei-5d" transform="translate(350 0)"/>
     </g>
    </g>
   </g>
   <g id="matplotlib.axis_10">
    <g id="ytick_10">
     <g id="line2d_89">
      <path d="M 56.225 522.758797 
L 565.2 522.758797 
" clip-path="url(#p38693b0ff1)" style="fill: none; stroke: #b0b0b0; stroke-opacity: 0.3; stroke-width: 0.8; stroke-linecap: square"/>
     </g>
     <g id="line2d_90">
      <g>
       <use xlink:href="#mceccc5edf1" x="56.225" y="522.758797" style="stroke: #000000; stroke-width: 0.8"/>
      </g>
     </g>
     <g id="text_27">
      <!-- 30 -->
      <g transform="translate(39.225 526.196297) scale(0.1 -0.1)">
       <use xlink:href="#SimHei-33"/>
       <use xlink:href="#SimHei-30" transform="translate(50 0)"/>
      </g>
     </g>
    </g>
    <g id="ytick_11">
     <g id="line2d_91">
      <path d="M 56.225 502.581005 
L 565.2 502.581005 
" clip-path="url(#p38693b0ff1)" style="fill: none; stroke: #b0b0b0; stroke-opacity: 0.3; stroke-width: 0.8; stroke-linecap: square"/>
     </g>
     <g id="line2d_92">
      <g>
       <use xlink:href="#mceccc5edf1" x="56.225" y="502.581005" style="stroke: #000000; stroke-width: 0.8"/>
      </g>
     </g>
     <g id="text_28">
      <!-- 40 -->
      <g transform="translate(39.225 506.018505) scale(0.1 -0.1)">
       <use xlink:href="#SimHei-34"/>
       <use xlink:href="#SimHei-30" transform="translate(50 0)"/>
      </g>
     </g>
    </g>
    <g id="ytick_12">
     <g id="line2d_93">
      <path d="M 56.225 482.403212 
L 565.2 482.403212 
" clip-path="url(#p38693b0ff1)" style="fill: none; stroke: #b0b0b0; stroke-opacity: 0.3; stroke-width: 0.8; stroke-linecap: square"/>
     </g>
     <g id="line2d_94">
      <g>
       <use xlink:href="#mceccc5edf1" x="56.225" y="482.403212" style="stroke: #000000; stroke-width: 0.8"/>
      </g>
     </g>
     <g id="text_29">
      <!-- 50 -->
      <g transform="translate(39.225 485.840712) scale(0.1 -0.1)">
       <use xlink:href="#SimHei-35"/>
       <use xlink:href="#SimHei-30" transform="translate(50 0)"/>
      </g>
     </g>
    </g>
    <g id="text_30">
     <!-- Temperature [°C] -->
     <g transform="translate(33.975 542.274625) rotate(-90) scale(0.1 -0.1)">
      <defs>
       <path id="SimHei-70" d="M 2825 1525 
Q 2825 800 2475 425 
Q 2125 50 1625 50 
Q 1350 50 1150 162 
Q 950 275 800 500 
L 800 -800 
L 300 -800 
L 300 2925 
L 800 2925 
L 800 2550 
Q 950 2775 1150 2875 
Q 1350 2975 1625 2975 
Q 2125 2975 2475 2612 
Q 2825 2250 2825 1525 
z
M 2275 1525 
Q 2275 2000 2087 2262 
Q 1900 2525 1525 2525 
Q 1225 2525 1012 2262 
Q 800 2000 800 1525 
Q 800 1050 1012 775 
Q 1225 500 1525 500 
Q 1900 500 2087 775 
Q 2275 1050 2275 1525 
z
" transform="scale(0.015625)"/>
       <path id="SimHei-b0" d="M 1512 3225 
Q 1200 3250 1012 3450 
Q 825 3650 837 3950 
Q 850 4250 1000 4412 
Q 1150 4575 1375 4637 
Q 1600 4700 1812 4650 
Q 2025 4600 2175 4387 
Q 2325 4175 2287 3850 
Q 2250 3525 2037 3362 
Q 1825 3200 1512 3225 
z
M 1100 4000 
Q 1075 3825 1162 3675 
Q 1250 3525 1487 3487 
Q 1725 3450 1875 3587 
Q 2025 3725 2025 3962 
Q 2025 4200 1875 4325 
Q 1725 4450 1550 4425 
Q 1375 4400 1250 4287 
Q 1125 4175 1100 4000 
z
" transform="scale(0.015625)"/>
      </defs>
      <use xlink:href="#SimHei-54"/>
      <use xlink:href="#SimHei-65" transform="translate(50 0)"/>
      <use xlink:href="#SimHei-6d" transform="translate(100 0)"/>
      <use xlink:href="#SimHei-70" transform="translate(150 0)"/>
      <use xlink:href="#SimHei-65" transform="translate(200 0)"/>
      <use xlink:href="#SimHei-72" transform="translate(250 0)"/>
      <use xlink:href="#SimHei-61" transform="translate(300 0)"/>
      <use xlink:href="#SimHei-74" transform="translate(350 0)"/>
      <use xlink:href="#SimHei-75" transform="translate(400 0)"/>
      <use xlink:href="#SimHei-72" transform="translate(450 0)"/>
      <use xlink:href="#SimHei-65" transform="translate(500 0)"/>
      <use xlink:href="#SimHei-20" transform="translate(550 0)"/>
      <use xlink:href="#SimHei-5b" transform="translate(600 0)"/>
      <use xlink:href="#SimHei-b0" transform="translate(650 0)"/>
      <use xlink:href="#SimHei-43" transform="translate(750 0)"/>
      <use xlink:href="#SimHei-5d" transform="translate(800 0)"/>
     </g>
    </g>
   </g>
   <g id="line2d_95">
    <path d="M 79.360227 532.847693 
L 113.291894 532.38559 
L 156.606181 532.029311 
L 171.901136 531.944845 
L 176.399653 527.206942 
L 181.026698 522.661164 
L 185.782273 518.307082 
L 190.666376 514.143925 
L 195.679009 510.170518 
L 200.82017 506.385226 
L 206.089861 502.785931 
L 211.488081 499.370027 
L 217.01483 496.134425 
L 222.798636 493.008847 
L 228.710972 490.066555 
L 234.880366 487.245835 
L 241.306818 484.555193 
L 247.990328 482.001151 
L 254.930896 479.588336 
L 262.257052 477.281096 
L 269.840265 475.126705 
L 277.809066 473.092962 
L 286.291982 471.159715 
L 295.289015 469.341279 
L 304.800164 467.648087 
L 310.7125 466.701557 
L 315.853662 470.953503 
L 321.123352 475.022687 
L 326.521572 478.908054 
L 332.048321 482.609526 
L 337.703598 486.12793 
L 343.487405 489.464929 
L 349.399741 492.622954 
L 355.569135 495.666038 
L 361.995587 498.583367 
L 368.550568 501.314978 
L 375.362607 503.914291 
L 382.431705 506.375833 
L 389.886389 508.734681 
L 397.72666 510.97764 
L 405.952519 513.094455 
L 414.563965 515.077721 
L 423.689527 516.947537 
L 433.329205 518.692927 
L 443.611528 520.325635 
L 454.536496 521.834136 
L 466.361168 523.239621 
L 479.085543 524.5262 
L 492.966679 525.704143 
L 508.261635 526.775212 
L 525.227468 527.735979 
L 542.064773 528.498915 
L 542.064773 528.498915 
" clip-path="url(#p38693b0ff1)" style="fill: none; stroke: #ff0000; stroke-width: 1.5; stroke-linecap: square"/>
   </g>
   <g id="line2d_96">
    <path d="M 171.901136 536.155 
L 171.901136 463.39425 
" clip-path="url(#p38693b0ff1)" style="fill: none; stroke-dasharray: 5.55,2.4; stroke-dashoffset: 0; stroke: #808080; stroke-opacity: 0.5; stroke-width: 1.5"/>
   </g>
   <g id="line2d_97">
    <path d="M 310.7125 536.155 
L 310.7125 463.39425 
" clip-path="url(#p38693b0ff1)" style="fill: none; stroke-dasharray: 5.55,2.4; stroke-dashoffset: 0; stroke: #808080; stroke-opacity: 0.5; stroke-width: 1.5"/>
   </g>
   <g id="patch_27">
    <path d="M 56.225 536.155 
L 56.225 463.39425 
" style="fill: none; stroke: #000000; stroke-width: 0.8; stroke-linejoin: miter; stroke-linecap: square"/>
   </g>
   <g id="patch_28">
    <path d="M 565.2 536.155 
L 565.2 463.39425 
" style="fill: none; stroke: #000000; stroke-width: 0.8; stroke-linejoin: miter; stroke-linecap: square"/>
   </g>
   <g id="patch_29">
    <path d="M 56.225 536.155 
L 565.2 536.155 
" style="fill: none; stroke: #000000; stroke-width: 0.8; stroke-linejoin: miter; stroke-linecap: square"/>
   </g>
   <g id="patch_30">
    <path d="M 56.225 463.39425 
L 565.2 463.39425 
" style="fill: none; stroke: #000000; stroke-width: 0.8; stroke-linejoin: miter; stroke-linecap: square"/>
   </g>
   <g id="legend_5">
    <g id="patch_31">
     <path d="M 496.2 484.722375 
L 558.2 484.722375 
Q 560.2 484.722375 560.2 482.722375 
L 560.2 470.39425 
Q 560.2 468.39425 558.2 468.39425 
L 496.2 468.39425 
Q 494.2 468.39425 494.2 470.39425 
L 494.2 482.722375 
Q 494.2 484.722375 496.2 484.722375 
z
" style="fill: #ffffff; opacity: 0.8; stroke: #cccccc; stroke-linejoin: miter"/>
    </g>
    <g id="line2d_98">
     <path d="M 498.2 475.89425 
L 508.2 475.89425 
L 518.2 475.89425 
" style="fill: none; stroke: #ff0000; stroke-width: 1.5; stroke-linecap: square"/>
    </g>
    <g id="text_31">
     <!-- T_cell -->
     <g transform="translate(526.2 479.39425) scale(0.1 -0.1)">
      <use xlink:href="#SimHei-54"/>
      <use xlink:href="#SimHei-5f" transform="translate(50 0)"/>
      <use xlink:href="#SimHei-63" transform="translate(100 0)"/>
      <use xlink:href="#SimHei-65" transform="translate(150 0)"/>
      <use xlink:href="#SimHei-6c" transform="translate(200 0)"/>
      <use xlink:href="#SimHei-6c" transform="translate(250 0)"/>
     </g>
    </g>
   </g>
  </g>
  <g id="text_32">
   <!-- 2-RC 等效电路（I(t) 阶跃 + 热平衡 + 外电路功耗 P_device） -->
   <g transform="translate(117 21.4575) scale(0.12 -0.12)">
    <defs>
     <path id="SimHei-7b49" d="M 2925 3450 
Q 2925 3625 2900 3950 
L 3450 3950 
Q 3425 3625 3425 3450 
L 4475 3450 
Q 4850 3450 5350 3475 
L 5350 3050 
Q 4875 3075 4500 3075 
L 3425 3075 
L 3425 2400 
L 5225 2400 
Q 5625 2400 6125 2425 
L 6125 1975 
Q 5650 2000 5225 2000 
L 4700 2000 
L 4700 1350 
Q 5325 1350 5750 1375 
L 5750 925 
Q 5250 950 4700 950 
L 4700 125 
Q 4725 -325 4437 -437 
Q 4150 -550 3550 -625 
Q 3500 -325 3350 -75 
Q 3775 -100 3975 -75 
Q 4175 -50 4175 275 
L 4175 950 
L 1550 950 
Q 1225 950 700 925 
L 700 1375 
Q 1200 1350 1650 1350 
L 4175 1350 
L 4175 2000 
L 1075 2000 
Q 750 2000 200 1975 
L 200 2425 
Q 750 2400 1075 2400 
L 2925 2400 
L 2925 3075 
L 1925 3075 
Q 1575 3075 1050 3050 
L 1050 3475 
Q 1725 3450 1925 3450 
L 2925 3450 
z
M 1825 5100 
Q 1675 5000 1500 4725 
L 2400 4725 
Q 2925 4725 3275 4750 
L 3275 4350 
Q 3000 4375 2575 4375 
L 2275 4375 
Q 2400 4175 2575 3850 
Q 2275 3750 2025 3675 
Q 2025 3725 1775 4375 
L 1325 4375 
Q 1125 4075 750 3625 
Q 525 3800 275 3900 
Q 625 4175 850 4525 
Q 1075 4875 1250 5300 
Q 1550 5175 1825 5100 
z
M 3700 3875 
Q 3500 4000 3225 4075 
Q 3475 4275 3650 4575 
Q 3825 4875 3975 5250 
Q 4250 5150 4550 5050 
Q 4350 4875 4250 4700 
L 5275 4700 
Q 5450 4700 6125 4725 
L 6125 4325 
Q 5650 4350 5200 4350 
Q 5475 3900 5600 3725 
Q 5250 3650 5025 3575 
Q 4975 3800 4700 4350 
L 4050 4350 
Q 3925 4150 3700 3875 
z
M 2575 75 
Q 2350 -50 2125 -200 
Q 1900 225 1525 625 
Q 1700 725 1925 900 
Q 2300 500 2575 75 
z
" transform="scale(0.015625)"/>
     <path id="SimHei-6548" d="M 3500 2400 
Q 3400 2675 3200 2900 
Q 3500 3350 3750 4025 
Q 4000 4700 4100 5300 
Q 4400 5150 4750 5075 
Q 4625 4950 4500 4687 
Q 4375 4425 4225 4025 
Q 5800 4025 6150 4050 
L 6150 3625 
Q 5850 3650 5475 3650 
Q 5450 2925 5300 2137 
Q 5150 1350 4825 800 
Q 4900 575 5312 275 
Q 5725 -25 6175 -175 
Q 5875 -350 5775 -650 
Q 5350 -425 5050 -162 
Q 4750 100 4500 425 
Q 4175 125 3837 -112 
Q 3500 -350 2850 -700 
Q 2725 -425 2425 -250 
Q 2750 -200 3325 137 
Q 3900 475 4200 800 
Q 4000 1225 3887 1675 
Q 3775 2125 3675 2700 
L 3500 2400 
z
M 1100 2225 
Q 1525 1875 1925 1575 
Q 2125 1900 2200 2400 
Q 2450 2275 2700 2200 
Q 2475 1625 2300 1250 
L 3000 550 
Q 2775 375 2575 175 
Q 2400 450 2025 825 
Q 1825 600 1550 312 
Q 1275 25 700 -425 
Q 500 -175 250 -25 
Q 575 125 950 400 
Q 1325 675 1675 1175 
Q 1325 1475 850 1875 
L 1100 2225 
z
M 4075 2950 
Q 4100 2700 4212 2187 
Q 4325 1675 4525 1225 
Q 4775 1700 4887 2475 
Q 5000 3250 4975 3650 
L 4100 3650 
Q 3900 3125 3725 2850 
Q 3900 2850 4075 2950 
z
M 2500 4200 
Q 2875 4200 3175 4225 
L 3175 3800 
Q 2875 3825 2525 3825 
L 1000 3825 
Q 600 3825 275 3800 
L 275 4225 
Q 600 4200 1000 4200 
L 2500 4200 
z
M 1125 3650 
Q 1400 3500 1625 3325 
Q 1525 3250 1300 2900 
Q 1050 2525 675 2000 
Q 450 2150 225 2275 
Q 550 2575 787 2975 
Q 1025 3375 1125 3650 
z
M 2475 3625 
Q 2625 3400 2850 3100 
Q 3075 2800 3250 2575 
Q 3025 2450 2825 2275 
Q 2325 3000 2075 3325 
Q 2275 3425 2475 3625 
z
M 1825 5250 
Q 2025 4875 2175 4475 
Q 1950 4375 1700 4275 
Q 1550 4650 1350 5075 
Q 1575 5150 1825 5250 
z
" transform="scale(0.015625)"/>
     <path id="SimHei-2b" d="M 3000 2125 
L 1775 2125 
L 1775 900 
L 1350 900 
L 1350 2125 
L 125 2125 
L 125 2525 
L 1350 2525 
L 1350 3750 
L 1775 3750 
L 1775 2525 
L 3000 2525 
L 3000 2125 
z
" transform="scale(0.015625)"/>
     <path id="SimHei-70ed" d="M 2350 1175 
Q 3050 1700 3350 2400 
Q 3175 2575 2750 2825 
Q 2900 3025 3000 3200 
Q 3300 3025 3500 2875 
Q 3600 3200 3600 3775 
Q 3300 3775 2875 3725 
L 2850 4125 
Q 3250 4150 3600 4150 
Q 3600 4750 3575 5175 
Q 3750 5100 4125 5075 
Q 4050 4700 4050 4150 
L 5150 4200 
Q 5075 3800 5050 3087 
Q 5025 2375 5175 1975 
Q 5325 1575 5462 1600 
Q 5600 1625 5675 2250 
Q 5900 2100 6150 2050 
Q 5950 1425 5812 1262 
Q 5675 1100 5500 1100 
Q 5325 1100 5075 1287 
Q 4825 1475 4700 2100 
Q 4575 2725 4625 3800 
L 4050 3775 
Q 4025 3175 3875 2600 
Q 4400 2200 4650 2000 
Q 4500 1775 4375 1575 
Q 3950 2025 3725 2150 
Q 3425 1475 2775 850 
Q 2625 1075 2350 1175 
z
M 750 1525 
Q 1275 1500 1350 1550 
Q 1425 1600 1425 1800 
L 1425 2475 
Q 1025 2375 550 2225 
Q 500 2450 375 2725 
Q 750 2750 1425 2900 
L 1425 3725 
Q 925 3725 500 3700 
L 500 4125 
Q 900 4100 1425 4100 
Q 1425 4775 1400 5175 
L 1875 5175 
Q 1850 4850 1850 4100 
Q 2150 4100 2575 4125 
L 2575 3700 
Q 2150 3725 1850 3725 
L 1850 3000 
Q 2200 3075 2575 3175 
L 2575 2775 
Q 2200 2675 1850 2575 
L 1850 1825 
Q 1850 1300 1675 1200 
Q 1500 1100 975 1000 
Q 900 1275 750 1525 
z
M 5525 -550 
Q 5350 -125 4825 775 
Q 5025 850 5225 975 
Q 5775 75 5975 -325 
L 5525 -550 
z
M 1450 575 
Q 1275 350 775 -650 
Q 550 -500 300 -425 
Q 600 0 975 825 
Q 1200 675 1450 575 
z
M 3875 -525 
Q 3675 75 3425 600 
Q 3675 675 3850 775 
Q 4150 150 4350 -350 
Q 4075 -425 3875 -525 
z
M 2400 -575 
Q 2300 -150 2000 500 
Q 2225 575 2425 675 
Q 2775 -100 2850 -425 
Q 2600 -500 2400 -575 
z
" transform="scale(0.015625)"/>
     <path id="SimHei-5e73" d="M 4525 4825 
Q 4900 4825 5450 4850 
L 5450 4375 
Q 4925 4400 4525 4400 
L 3475 4400 
L 3475 2025 
L 5000 2025 
Q 5550 2025 6025 2050 
L 6025 1575 
Q 5550 1600 5000 1600 
L 3475 1600 
L 3475 450 
Q 3475 -100 3500 -600 
L 2925 -600 
Q 2950 -100 2950 450 
L 2950 1600 
L 1125 1600 
Q 775 1600 375 1575 
L 375 2050 
Q 775 2025 1175 2025 
L 2950 2025 
L 2950 4400 
L 1775 4400 
Q 1400 4400 875 4375 
L 875 4850 
Q 1400 4825 1750 4825 
L 4525 4825 
z
M 3925 2600 
Q 4500 3300 4900 4125 
Q 5150 3950 5400 3825 
Q 4775 2850 4350 2300 
Q 4150 2475 3925 2600 
z
M 1975 2350 
Q 1600 3100 1050 3725 
Q 1250 3875 1450 4050 
Q 2075 3300 2450 2725 
Q 2150 2500 1975 2350 
z
" transform="scale(0.015625)"/>
     <path id="SimHei-8861" d="M 3275 5025 
Q 3150 4950 2900 4575 
L 4050 4575 
Q 3800 4175 3575 3725 
L 4425 3725 
Q 4400 3400 4400 2775 
Q 4400 2175 4425 1800 
L 2050 1800 
Q 2075 2175 2075 2800 
Q 2075 3425 2050 3725 
L 3125 3725 
L 3375 4225 
L 2600 4225 
Q 2450 4050 2125 3750 
Q 1975 3900 1750 4050 
Q 2175 4375 2412 4687 
Q 2650 5000 2775 5275 
Q 3000 5150 3275 5025 
z
M 4575 3225 
Q 4775 3200 5175 3200 
L 5675 3200 
Q 5900 3200 6150 3225 
L 6150 2750 
Q 5950 2775 5650 2775 
L 5650 25 
Q 5650 -375 5487 -462 
Q 5325 -550 4800 -650 
Q 4775 -375 4600 -100 
Q 5000 -100 5112 -75 
Q 5225 -50 5225 250 
L 5225 2775 
Q 4800 2775 4575 2750 
L 4575 3225 
z
M 1925 3300 
Q 1725 3150 1400 2650 
L 1400 275 
Q 1400 -100 1425 -625 
L 950 -625 
Q 975 25 975 350 
L 975 2175 
Q 750 1925 475 1675 
Q 325 1900 175 2075 
Q 550 2350 925 2800 
Q 1300 3250 1475 3625 
Q 1650 3450 1925 3300 
z
M 1975 -525 
Q 1800 -250 1600 -50 
Q 2175 125 2475 412 
Q 2775 700 2825 925 
L 2525 925 
Q 2225 925 1800 900 
L 1800 1350 
Q 2175 1325 2525 1325 
L 2925 1325 
Q 2975 1525 2975 1725 
Q 3175 1675 3500 1625 
Q 3400 1475 3375 1325 
L 3925 1325 
Q 4250 1325 4600 1350 
L 4600 900 
Q 4300 925 3925 925 
L 3325 925 
L 3300 875 
Q 2875 -100 1975 -525 
z
M 1975 4775 
Q 1850 4675 1425 4200 
Q 1000 3725 650 3425 
Q 475 3675 300 3775 
Q 625 3975 987 4387 
Q 1350 4800 1525 5125 
Q 1700 4950 1975 4775 
z
M 3425 825 
Q 3850 550 4475 100 
Q 4275 -100 4150 -350 
Q 3625 150 3150 450 
Q 3300 600 3425 825 
z
M 4700 4600 
Q 4875 4575 5175 4575 
L 5625 4575 
Q 5800 4575 6000 4600 
L 6000 4175 
Q 5800 4200 5625 4200 
L 5225 4200 
Q 4900 4200 4700 4175 
L 4700 4600 
z
M 3975 2925 
L 3975 3375 
L 3425 3375 
L 3425 2925 
L 3975 2925 
z
M 3025 2925 
L 3025 3375 
L 2500 3375 
L 2500 2925 
L 3025 2925 
z
M 3975 2150 
L 3975 2575 
L 3425 2575 
L 3425 2150 
L 3975 2150 
z
M 3025 2150 
L 3025 2575 
L 2500 2575 
L 2500 2150 
L 3025 2150 
z
" transform="scale(0.015625)"/>
    </defs>
    <use xlink:href="#SimHei-32"/>
    <use xlink:href="#SimHei-2d" transform="translate(50 0)"/>
    <use xlink:href="#SimHei-52" transform="translate(100 0)"/>
    <use xlink:href="#SimHei-43" transform="translate(150 0)"/>
    <use xlink:href="#SimHei-20" transform="translate(200 0)"/>
    <use xlink:href="#SimHei-7b49" transform="translate(250 0)"/>
    <use xlink:href="#SimHei-6548" transform="translate(350 0)"/>
    <use xlink:href="#SimHei-7535" transform="translate(450 0)"/>
    <use xlink:href="#SimHei-8def" transform="translate(550 0)"/>
    <use xlink:href="#SimHei-ff08" transform="translate(650 0)"/>
    <use xlink:href="#SimHei-49" transform="translate(750 0)"/>
    <use xlink:href="#SimHei-28" transform="translate(800 0)"/>
    <use xlink:href="#SimHei-74" transform="translate(850 0)"/>
    <use xlink:href="#SimHei-29" transform="translate(900 0)"/>
    <use xlink:href="#SimHei-20" transform="translate(950 0)"/>
    <use xlink:href="#SimHei-9636" transform="translate(1000 0)"/>
    <use xlink:href="#SimHei-8dc3" transform="translate(1100 0)"/>
    <use xlink:href="#SimHei-20" transform="translate(1200 0)"/>
    <use xlink:href="#SimHei-2b" transform="translate(1250 0)"/>
    <use xlink:href="#SimHei-20" transform="translate(1300 0)"/>
    <use xlink:href="#SimHei-70ed" transform="translate(1350 0)"/>
    <use xlink:href="#SimHei-5e73" transform="translate(1450 0)"/>
    <use xlink:href="#SimHei-8861" transform="translate(1550 0)"/>
    <use xlink:href="#SimHei-20" transform="translate(1650 0)"/>
    <use xlink:href="#SimHei-2b" transform="translate(1700 0)"/>
    <use xlink:href="#SimHei-20" transform="translate(1750 0)"/>
    <use xlink:href="#SimHei-5916" transform="translate(1800 0)"/>
    <use xlink:href="#SimHei-7535" transform="translate(1900 0)"/>
    <use xlink:href="#SimHei-8def" transform="translate(2000 0)"/>
    <use xlink:href="#SimHei-529f" transform="translate(2100 0)"/>
    <use xlink:href="#SimHei-8017" transform="translate(2200 0)"/>
    <use xlink:href="#SimHei-20" transform="translate(2300 0)"/>
    <use xlink:href="#SimHei-50" transform="translate(2350 0)"/>
    <use xlink:href="#SimHei-5f" transform="translate(2400 0)"/>
    <use xlink:href="#SimHei-64" transform="translate(2450 0)"/>
    <use xlink:href="#SimHei-65" transform="translate(2500 0)"/>
    <use xlink:href="#SimHei-76" transform="translate(2550 0)"/>
    <use xlink:href="#SimHei-69" transform="translate(2600 0)"/>
    <use xlink:href="#SimHei-63" transform="translate(2650 0)"/>
    <use xlink:href="#SimHei-65" transform="translate(2700 0)"/>
    <use xlink:href="#SimHei-ff09" transform="translate(2750 0)"/>
   </g>
  </g>
 </g>
 <defs>
  <clipPath id="p3cc0248fc5">
   <rect x="56.225" y="49.75125" width="508.975" height="72.76075"/>
  </clipPath>
  <clipPath id="pebcf53ca7e">
   <rect x="56.225" y="153.162" width="508.975" height="72.76075"/>
  </clipPath>
  <clipPath id="p39babbfc78">
   <rect x="56.225" y="256.57275" width="508.975" height="72.76075"/>
  </clipPath>
  <clipPath id="pb3bc8e986b">
   <rect x="56.225" y="359.9835" width="508.975" height="72.76075"/>
  </clipPath>
  <clipPath id="p38693b0ff1">
   <rect x="56.225" y="463.39425" width="508.975" height="72.76075"/>
  </clipPath>
 </defs>
</svg>
